<?xml version="1.0" encoding="UTF-8" standalone="no"?>
<!-- Generated by graphviz version 2.38.0 (20140413.2041)
 -->

<!-- Title: largeRelationshipsDiagram Pages: 1 -->

<svg
   xmlns:dc="http://purl.org/dc/elements/1.1/"
   xmlns:cc="http://creativecommons.org/ns#"
   xmlns:rdf="http://www.w3.org/1999/02/22-rdf-syntax-ns#"
   xmlns:svg="http://www.w3.org/2000/svg"
   xmlns="http://www.w3.org/2000/svg"
   xmlns:xlink="http://www.w3.org/1999/xlink"
   xmlns:sodipodi="http://sodipodi.sourceforge.net/DTD/sodipodi-0.dtd"
   xmlns:inkscape="http://www.inkscape.org/namespaces/inkscape"
   width="403pt"
   height="684pt"
   viewBox="0.00 0.00 402.95 683.70"
   id="svg7923"
   version="1.1"
   inkscape:version="0.91 r13725"
   sodipodi:docname="editme2.svg">
  <metadata
     id="metadata8404">
    <rdf:RDF>
      <cc:Work
         rdf:about="">
        <dc:format>image/svg+xml</dc:format>
        <dc:type
           rdf:resource="http://purl.org/dc/dcmitype/StillImage" />
      </cc:Work>
    </rdf:RDF>
  </metadata>
  <defs
     id="defs8402" />
  <sodipodi:namedview
     pagecolor="#ffffff"
     bordercolor="#666666"
     borderopacity="1"
     objecttolerance="10"
     gridtolerance="10"
     guidetolerance="10"
     inkscape:pageopacity="0"
     inkscape:pageshadow="2"
     inkscape:window-width="1268"
     inkscape:window-height="772"
     id="namedview8400"
     showgrid="false"
     inkscape:zoom="0.76743534"
     inkscape:cx="154.65942"
     inkscape:cy="1368.6972"
     inkscape:window-x="541"
     inkscape:window-y="81"
     inkscape:window-maximized="0"
     inkscape:current-layer="svg7923" />
  <!-- <g id="graph0" class="graph" transform="scale(1 1) rotate(0) translate(4 679.7)"> -->
  <title
     id="title7925">largeRelationshipsDiagram</title>
  <!-- dataset_summary -->
  <g
     id="node1"
     class="node"
     transform="translate(406.7089,-3.6224316)"
     inkscape:export-xdpi="90"
     inkscape:export-ydpi="90">
    <title
       id="title7932">dataset_summary</title>
    <g
       id="a_node1">
      <a
         xlink:href="tables/dataset_summary.html"
         id="a7935"
         xlink:title="dataset_summary">
        <polygon
           points="182.951,-384.7 25.9514,-384.7 25.9514,-384.7 25.9514,-555.7 182.951,-555.7 "
           id="polygon7937"
           style="fill:#ffffff;stroke:none" />
        <polygon
           points="183.451,-536.2 26.4514,-536.2 26.4514,-536.2 26.4514,-555.2 183.451,-555.2 "
           id="polygon7939"
           style="fill:#9bab96;stroke:none" />
        <polygon
           points="183.451,-536.2 26.4514,-536.2 26.4514,-536.2 26.4514,-555.2 183.451,-555.2 "
           id="polygon7941"
           style="fill:none;stroke:#000000" />
        <text
           x="61.2495"
           y="-542.29999"
           font-size="11.00"
           id="text7943"
           style="font-size:11px;font-family:Helvetica, sans-Serif;text-anchor:start">dataset_summary</text>
        <polygon
           points="183.451,-517.2 26.4514,-517.2 26.4514,-517.2 26.4514,-536.2 183.451,-536.2 "
           id="polygon7945"
           style="fill:#bed1b8;stroke:none" />
        <polygon
           points="183.451,-517.2 26.4514,-517.2 26.4514,-517.2 26.4514,-536.2 183.451,-536.2 "
           id="polygon7947"
           style="fill:none;stroke:#000000" />
        <text
           x="29.451401"
           y="-523.29999"
           font-size="11.00"
           id="text7949"
           style="font-size:11px;font-family:Helvetica, sans-Serif;text-anchor:start">dataset_summary_id</text>
        <polygon
           points="183.451,-498.2 26.4514,-498.2 26.4514,-498.2 26.4514,-517.2 183.451,-517.2 "
           id="polygon7951"
           style="fill:none;stroke:#000000" />
        <text
           x="29.451401"
           y="-504.29999"
           font-size="11.00"
           id="text7953"
           style="font-size:11px;font-family:Helvetica, sans-Serif;text-anchor:start">original_dataset_id</text>
        <polygon
           points="183.451,-479.2 26.4514,-479.2 26.4514,-479.2 26.4514,-498.2 183.451,-498.2 "
           id="polygon7955"
           style="fill:none;stroke:#000000" />
        <text
           x="29.451401"
           y="-485.29999"
           font-size="11.00"
           id="text7957"
           style="font-size:11px;font-family:Helvetica, sans-Serif;text-anchor:start">length_of_survey_years</text>
        <polygon
           points="183.451,-460.2 26.4514,-460.2 26.4514,-460.2 26.4514,-479.2 183.451,-479.2 "
           id="polygon7959"
           style="fill:none;stroke:#000000" />
        <text
           x="29.451401"
           y="-466.29999"
           font-size="11.00"
           id="text7961"
           style="font-size:11px;font-family:Helvetica, sans-Serif;text-anchor:start">number_of_years_sampled</text>
        <polygon
           points="183.451,-441.2 26.4514,-441.2 26.4514,-441.2 26.4514,-460.2 183.451,-460.2 "
           id="polygon7963"
           style="fill:none;stroke:#000000" />
        <text
           x="29.451401"
           y="-447.29999"
           font-size="11.00"
           id="text7965"
           style="font-size:11px;font-family:Helvetica, sans-Serif;text-anchor:start">std_dev_interval_betw_years</text>
        <polygon
           points="183.451,-422.2 26.4514,-422.2 26.4514,-422.2 26.4514,-441.2 183.451,-441.2 "
           id="polygon7967"
           style="fill:none;stroke:#000000" />
        <text
           x="29.451401"
           y="-428.29999"
           font-size="11.00"
           id="text7969"
           style="font-size:11px;font-family:Helvetica, sans-Serif;text-anchor:start">max_num_taxa</text>
        <polygon
           points="183.451,-403.2 26.4514,-403.2 26.4514,-403.2 26.4514,-422.2 183.451,-422.2 "
           id="polygon7971"
           style="fill:none;stroke:#000000" />
        <text
           x="29.444099"
           y="-409.29999"
           font-size="11.00"
           id="text7973"
           style="font-size:11px;font-family:Helvetica, sans-Serif;text-anchor:start">geo_extent_bounding_box_m2</text>
        <polygon
           points="81.4514,-384.2 26.4514,-384.2 26.4514,-384.2 26.4514,-403.2 81.4514,-403.2 "
           id="polygon7975"
           style="fill:#f7f7f7;stroke:none" />
        <polygon
           points="81.4514,-384.2 26.4514,-384.2 26.4514,-384.2 26.4514,-403.2 81.4514,-403.2 "
           id="polygon7977"
           style="fill:none;stroke:#000000" />
        <text
           x="29.451401"
           y="-390.29999"
           font-size="11.00"
           id="text7979"
           style="font-size:11px;font-family:Helvetica, sans-Serif;text-anchor:start"> </text>
        <polygon
           points="140.451,-384.2 81.4514,-384.2 81.4514,-384.2 81.4514,-403.2 140.451,-403.2 "
           id="polygon7981"
           style="fill:#f7f7f7;stroke:none" />
        <polygon
           points="140.451,-384.2 81.4514,-384.2 81.4514,-384.2 81.4514,-403.2 140.451,-403.2 "
           id="polygon7983"
           style="fill:none;stroke:#000000" />
        <text
           x="105.062"
           y="-390.29999"
           font-size="11.00"
           id="text7985"
           style="font-size:11px;font-family:Helvetica, sans-Serif;text-anchor:start">0 rows</text>
        <polygon
           points="183.451,-384.2 140.451,-384.2 140.451,-384.2 140.451,-403.2 183.451,-403.2 "
           id="polygon7987"
           style="fill:#f7f7f7;stroke:none" />
        <polygon
           points="183.451,-384.2 140.451,-384.2 140.451,-384.2 140.451,-403.2 183.451,-403.2 "
           id="polygon7989"
           style="fill:none;stroke:#000000" />
        <text
           x="164.85699"
           y="-390.29999"
           font-size="11.00"
           id="text7991"
           style="font-size:11px;font-family:Helvetica, sans-Serif;text-anchor:start">1 &gt;</text>
      </a>
    </g>
  </g>
  <!-- event -->
  <g
     id="node2"
     class="node"
     transform="translate(-4.7994047,0)"
     inkscape:export-xdpi="90"
     inkscape:export-ydpi="90">
    <title
       id="title7994">event</title>
    <g
       id="a_node2">
      <a
         xlink:href="tables/event.html"
         id="a7997"
         xlink:title="event">
        <polygon
           points="65.4514,-576.7 65.4514,-671.7 143.451,-671.7 143.451,-576.7 65.4514,-576.7 "
           id="polygon7999"
           style="fill:#ffffff;stroke:none" />
        <polygon
           points="65.4514,-652.2 65.4514,-671.2 143.451,-671.2 143.451,-652.2 65.4514,-652.2 "
           id="polygon8001"
           style="fill:#9bab96;stroke:none" />
        <polygon
           points="65.4514,-652.2 65.4514,-671.2 143.451,-671.2 143.451,-652.2 65.4514,-652.2 "
           id="polygon8003"
           style="fill:none;stroke:#000000" />
        <text
           x="91.000603"
           y="-658.29999"
           font-size="11.00"
           id="text8005"
           style="font-size:11px;font-family:Helvetica, sans-Serif;text-anchor:start">event</text>
        <polygon
           points="65.4514,-633.2 65.4514,-652.2 143.451,-652.2 143.451,-633.2 65.4514,-633.2 "
           id="polygon8007"
           style="fill:#bed1b8;stroke:none" />
        <polygon
           points="65.4514,-633.2 65.4514,-652.2 143.451,-652.2 143.451,-633.2 65.4514,-633.2 "
           id="polygon8009"
           style="fill:none;stroke:#000000" />
        <text
           x="68.451401"
           y="-639.29999"
           font-size="11.00"
           id="text8011"
           style="font-size:11px;font-family:Helvetica, sans-Serif;text-anchor:start">event_id</text>
        <polygon
           points="65.4514,-614.2 65.4514,-633.2 143.451,-633.2 143.451,-614.2 65.4514,-614.2 "
           id="polygon8013"
           style="fill:none;stroke:#000000" />
        <text
           x="68.389"
           y="-620.29999"
           font-size="11.00"
           id="text8015"
           style="font-size:11px;font-family:Helvetica, sans-Serif;text-anchor:start">variable_name</text>
        <polygon
           points="65.4514,-595.2 65.4514,-614.2 143.451,-614.2 143.451,-595.2 65.4514,-595.2 "
           id="polygon8017"
           style="fill:none;stroke:#000000" />
        <text
           x="68.451401"
           y="-601.29999"
           font-size="11.00"
           id="text8019"
           style="font-size:11px;font-family:Helvetica, sans-Serif;text-anchor:start">value</text>
        <polygon
           points="65.4514,-576.2 65.4514,-595.2 80.4514,-595.2 80.4514,-576.2 65.4514,-576.2 "
           id="polygon8021"
           style="fill:#f7f7f7;stroke:none" />
        <polygon
           points="65.4514,-576.2 65.4514,-595.2 80.4514,-595.2 80.4514,-576.2 65.4514,-576.2 "
           id="polygon8023"
           style="fill:none;stroke:#000000" />
        <text
           x="68.451401"
           y="-582.29999"
           font-size="11.00"
           id="text8025"
           style="font-size:11px;font-family:Helvetica, sans-Serif;text-anchor:start"> </text>
        <polygon
           points="80.4514,-576.2 80.4514,-595.2 120.451,-595.2 120.451,-576.2 80.4514,-576.2 "
           id="polygon8027"
           style="fill:#f7f7f7;stroke:none" />
        <polygon
           points="80.4514,-576.2 80.4514,-595.2 120.451,-595.2 120.451,-576.2 80.4514,-576.2 "
           id="polygon8029"
           style="fill:none;stroke:#000000" />
        <text
           x="85.061897"
           y="-582.29999"
           font-size="11.00"
           id="text8031"
           style="font-size:11px;font-family:Helvetica, sans-Serif;text-anchor:start">0 rows</text>
        <polygon
           points="120.451,-576.2 120.451,-595.2 143.451,-595.2 143.451,-576.2 120.451,-576.2 "
           id="polygon8033"
           style="fill:#f7f7f7;stroke:none" />
        <polygon
           points="120.451,-576.2 120.451,-595.2 143.451,-595.2 143.451,-576.2 120.451,-576.2 "
           id="polygon8035"
           style="fill:none;stroke:#000000" />
        <text
           x="124.857"
           y="-582.29999"
           font-size="11.00"
           id="text8037"
           style="font-size:11px;font-family:Helvetica, sans-Serif;text-anchor:start">1 &gt;</text>
      </a>
    </g>
  </g>
  <!-- observation -->
  <g
     id="node3"
     class="node"
     transform="translate(-4.7994047,0)"
     inkscape:export-xdpi="90"
     inkscape:export-ydpi="90">
    <title
       id="title8040">observation</title>
    <g
       id="a_node3">
      <a
         xlink:href="tables/observation.html"
         id="a8043"
         xlink:title="observation">
        <polygon
           points="253.951,-384.7 253.951,-593.7 364.951,-593.7 364.951,-384.7 253.951,-384.7 "
           id="polygon8045"
           style="fill:#ffffff;stroke:none" />
        <polygon
           points="254.451,-574.2 254.451,-593.2 365.451,-593.2 365.451,-574.2 254.451,-574.2 "
           id="polygon8047"
           style="fill:#9bab96;stroke:none" />
        <polygon
           points="254.451,-574.2 254.451,-593.2 365.451,-593.2 365.451,-574.2 254.451,-574.2 "
           id="polygon8049"
           style="fill:none;stroke:#000000" />
        <text
           x="281.52701"
           y="-580.29999"
           font-size="11.00"
           id="text8051"
           style="font-size:11px;font-family:Helvetica, sans-Serif;text-anchor:start">observation</text>
        <polygon
           points="254.451,-555.2 254.451,-574.2 365.451,-574.2 365.451,-555.2 254.451,-555.2 "
           id="polygon8053"
           style="fill:#bed1b8;stroke:none" />
        <polygon
           points="254.451,-555.2 254.451,-574.2 365.451,-574.2 365.451,-555.2 254.451,-555.2 "
           id="polygon8055"
           style="fill:none;stroke:#000000" />
        <text
           x="257.45099"
           y="-561.29999"
           font-size="11.00"
           id="text8057"
           style="font-size:11px;font-family:Helvetica, sans-Serif;text-anchor:start">observation_id</text>
        <polygon
           points="254.451,-536.2 254.451,-555.2 365.451,-555.2 365.451,-536.2 254.451,-536.2 "
           id="polygon8059"
           style="fill:none;stroke:#000000" />
        <text
           x="257.45099"
           y="-542.29999"
           font-size="11.00"
           id="text8061"
           style="font-size:11px;font-family:Helvetica, sans-Serif;text-anchor:start">event_id</text>
        <polygon
           points="254.451,-517.2 254.451,-536.2 365.451,-536.2 365.451,-517.2 254.451,-517.2 "
           id="polygon8063"
           style="fill:none;stroke:#000000" />
        <text
           x="257.45099"
           y="-523.29999"
           font-size="11.00"
           id="text8065"
           style="font-size:11px;font-family:Helvetica, sans-Serif;text-anchor:start">dataset_summary_id</text>
        <polygon
           points="254.451,-498.2 254.451,-517.2 365.451,-517.2 365.451,-498.2 254.451,-498.2 "
           id="polygon8067"
           style="fill:none;stroke:#000000" />
        <text
           x="257.45099"
           y="-504.29999"
           font-size="11.00"
           id="text8069"
           style="font-size:11px;font-family:Helvetica, sans-Serif;text-anchor:start">sampling_location_id</text>
        <polygon
           points="254.451,-479.2 254.451,-498.2 365.451,-498.2 365.451,-479.2 254.451,-479.2 "
           id="polygon8071"
           style="fill:none;stroke:#000000" />
        <text
           x="257.38101"
           y="-485.29999"
           font-size="11.00"
           id="text8073"
           style="font-size:11px;font-family:Helvetica, sans-Serif;text-anchor:start">observation_datetime</text>
        <polygon
           points="254.451,-460.2 254.451,-479.2 365.451,-479.2 365.451,-460.2 254.451,-460.2 "
           id="polygon8075"
           style="fill:none;stroke:#000000" />
        <text
           x="257.45099"
           y="-466.29999"
           font-size="11.00"
           id="text8077"
           style="font-size:11px;font-family:Helvetica, sans-Serif;text-anchor:start">taxon_id</text>
        <polygon
           points="254.451,-441.2 254.451,-460.2 365.451,-460.2 365.451,-441.2 254.451,-441.2 "
           id="polygon8079"
           style="fill:none;stroke:#000000" />
        <text
           x="257.45099"
           y="-447.29999"
           font-size="11.00"
           id="text8081"
           style="font-size:11px;font-family:Helvetica, sans-Serif;text-anchor:start">variable_name</text>
        <polygon
           points="254.451,-422.2 254.451,-441.2 365.451,-441.2 365.451,-422.2 254.451,-422.2 "
           id="polygon8083"
           style="fill:none;stroke:#000000" />
        <text
           x="257.45099"
           y="-428.29999"
           font-size="11.00"
           id="text8085"
           style="font-size:11px;font-family:Helvetica, sans-Serif;text-anchor:start">value</text>
        <polygon
           points="254.451,-403.2 254.451,-422.2 365.451,-422.2 365.451,-403.2 254.451,-403.2 "
           id="polygon8087"
           style="fill:none;stroke:#000000" />
        <text
           x="257.45099"
           y="-409.29999"
           font-size="11.00"
           id="text8089"
           style="font-size:11px;font-family:Helvetica, sans-Serif;text-anchor:start">unit</text>
        <polygon
           points="254.451,-384.2 254.451,-403.2 295.451,-403.2 295.451,-384.2 254.451,-384.2 "
           id="polygon8091"
           style="fill:#f7f7f7;stroke:none" />
        <polygon
           points="254.451,-384.2 254.451,-403.2 295.451,-403.2 295.451,-384.2 254.451,-384.2 "
           id="polygon8093"
           style="fill:none;stroke:#000000" />
        <text
           x="257.45099"
           y="-390.29999"
           font-size="11.00"
           id="text8095"
           style="font-size:11px;font-family:Helvetica, sans-Serif;text-anchor:start">&lt; 4</text>
        <polygon
           points="295.451,-384.2 295.451,-403.2 343.451,-403.2 343.451,-384.2 295.451,-384.2 "
           id="polygon8097"
           style="fill:#f7f7f7;stroke:none" />
        <polygon
           points="295.451,-384.2 295.451,-403.2 343.451,-403.2 343.451,-384.2 295.451,-384.2 "
           id="polygon8099"
           style="fill:none;stroke:#000000" />
        <text
           x="308.06201"
           y="-390.29999"
           font-size="11.00"
           id="text8101"
           style="font-size:11px;font-family:Helvetica, sans-Serif;text-anchor:start">0 rows</text>
        <polygon
           points="343.451,-384.2 343.451,-403.2 365.451,-403.2 365.451,-384.2 343.451,-384.2 "
           id="polygon8103"
           style="fill:#f7f7f7;stroke:none" />
        <polygon
           points="343.451,-384.2 343.451,-403.2 365.451,-403.2 365.451,-384.2 343.451,-384.2 "
           id="polygon8105"
           style="fill:none;stroke:#000000" />
        <text
           x="356.33801"
           y="-390.29999"
           font-size="11.00"
           id="text8107"
           style="font-size:11px;font-family:Helvetica, sans-Serif;text-anchor:start"> </text>
      </a>
    </g>
  </g>
  <!-- observation&#45;&gt;dataset_summary -->
  <g
     id="edge1"
     class="edge"
     transform="matrix(-1.0519212,0,0,0.99962081,627.38455,-0.92439493)"
     inkscape:export-xdpi="90"
     inkscape:export-ydpi="90">
    <title
       id="title8110">observation:dataset_summary_id:w-&gt;dataset_summary:dataset_summary_id:e</title>
    <path
       d="m 238.881,-527.2 c -19.594,0 -29.273,0 -54.43,0"
       id="path8112"
       inkscape:connector-curvature="0"
       style="fill:none;stroke:#000000" />
    <polygon
       points="245.451,-527.2 245.451,-527.2 245.451,-527.2 253.451,-530.8 249.451,-527.2 253.451,-527.2 253.451,-527.2 253.451,-527.2 249.451,-527.2 253.451,-523.6 "
       id="polygon8114"
       style="fill:#000000;stroke:#000000" />
    <circle
       cx="242.25101"
       cy="-527.20001"
       id="ellipse8116"
       r="3.2"
       style="fill:none;stroke:#000000" />
  </g>
  <!-- observation&#45;&gt;event -->
  <g
     id="edge2"
     class="edge"
     transform="translate(-4.7994047,0)"
     inkscape:export-xdpi="90"
     inkscape:export-ydpi="90">
    <title
       id="title8119">observation:event_id:w-&gt;event:event_id:e</title>
    <path
       d="M 239.125,-548.051 C 191.422,-561.461 203.981,-643.2 144.451,-643.2"
       id="path8121"
       inkscape:connector-curvature="0"
       style="fill:none;stroke:#000000" />
    <polygon
       points="253.451,-546.2 249.484,-546.713 252.99,-542.63 245.517,-547.225 245.517,-547.225 245.517,-547.225 253.913,-549.77 249.484,-546.713 253.451,-546.2 253.451,-546.2 "
       id="polygon8123"
       style="fill:#000000;stroke:#000000" />
    <circle
       cx="242.34399"
       cy="-547.63501"
       id="ellipse8125"
       r="3.2"
       style="fill:none;stroke:#000000" />
  </g>
  <!-- sampling_location -->
  <g
     id="node4"
     class="node"
     transform="translate(-11.550341,-193.59441)"
     inkscape:export-xdpi="90"
     inkscape:export-ydpi="90">
    <title
       id="title8128">sampling_location</title>
    <g
       id="a_node4">
      <a
         xlink:href="tables/sampling_location.html"
         id="a8131"
         xlink:title="sampling_location">
        <polygon
           points="31.9514,-345.2 176.951,-345.2 176.951,-193.2 31.9514,-193.2 31.9514,-193.2 "
           id="polygon8133"
           style="fill:#ffffff;stroke:none" />
        <polygon
           points="32.4514,-345.2 177.451,-345.2 177.451,-326.2 32.4514,-326.2 32.4514,-326.2 "
           id="polygon8135"
           style="fill:#9bab96;stroke:none" />
        <polygon
           points="32.4514,-345.2 177.451,-345.2 177.451,-326.2 32.4514,-326.2 32.4514,-326.2 "
           id="polygon8137"
           style="fill:none;stroke:#000000" />
        <text
           x="60.943199"
           y="-332.29999"
           font-size="11.00"
           id="text8139"
           style="font-size:11px;font-family:Helvetica, sans-Serif;text-anchor:start">sampling_location</text>
        <polygon
           points="32.4514,-326.2 177.451,-326.2 177.451,-307.2 32.4514,-307.2 32.4514,-307.2 "
           id="polygon8141"
           style="fill:#bed1b8;stroke:none" />
        <polygon
           points="32.4514,-326.2 177.451,-326.2 177.451,-307.2 32.4514,-307.2 32.4514,-307.2 "
           id="polygon8143"
           style="fill:none;stroke:#000000" />
        <text
           x="35.451401"
           y="-313.29999"
           font-size="11.00"
           id="text8145"
           style="font-size:11px;font-family:Helvetica, sans-Serif;text-anchor:start">sampling_location_id</text>
        <polygon
           points="32.4514,-307.2 177.451,-307.2 177.451,-288.2 32.4514,-288.2 32.4514,-288.2 "
           id="polygon8147"
           style="fill:none;stroke:#000000" />
        <text
           x="35.451401"
           y="-294.29999"
           font-size="11.00"
           id="text8149"
           style="font-size:11px;font-family:Helvetica, sans-Serif;text-anchor:start">sampling_location_name</text>
        <polygon
           points="32.4514,-288.2 177.451,-288.2 177.451,-269.2 32.4514,-269.2 32.4514,-269.2 "
           id="polygon8151"
           style="fill:none;stroke:#000000" />
        <text
           x="35.451401"
           y="-275.29999"
           font-size="11.00"
           id="text8153"
           style="font-size:11px;font-family:Helvetica, sans-Serif;text-anchor:start">latitude</text>
        <polygon
           points="32.4514,-269.2 177.451,-269.2 177.451,-250.2 32.4514,-250.2 32.4514,-250.2 "
           id="polygon8155"
           style="fill:none;stroke:#000000" />
        <text
           x="35.451401"
           y="-256.29999"
           font-size="11.00"
           id="text8157"
           style="font-size:11px;font-family:Helvetica, sans-Serif;text-anchor:start">longitude</text>
        <polygon
           points="32.4514,-250.2 177.451,-250.2 177.451,-231.2 32.4514,-231.2 32.4514,-231.2 "
           id="polygon8159"
           style="fill:none;stroke:#000000" />
        <text
           x="35.451401"
           y="-237.3"
           font-size="11.00"
           id="text8161"
           style="font-size:11px;font-family:Helvetica, sans-Serif;text-anchor:start">elevation</text>
        <polygon
           points="32.4514,-231.2 177.451,-231.2 177.451,-212.2 32.4514,-212.2 32.4514,-212.2 "
           id="polygon8163"
           style="fill:none;stroke:#000000" />
        <text
           x="34.961201"
           y="-218.3"
           font-size="11.00"
           id="text8165"
           style="font-size:11px;font-family:Helvetica, sans-Serif;text-anchor:start">parent_sampling_location_id</text>
        <polygon
           points="32.4514,-212.2 85.4514,-212.2 85.4514,-193.2 32.4514,-193.2 32.4514,-193.2 "
           id="polygon8167"
           style="fill:#f7f7f7;stroke:none" />
        <polygon
           points="32.4514,-212.2 85.4514,-212.2 85.4514,-193.2 32.4514,-193.2 32.4514,-193.2 "
           id="polygon8169"
           style="fill:none;stroke:#000000" />
        <text
           x="35.451401"
           y="-199.3"
           font-size="11.00"
           id="text8171"
           style="font-size:11px;font-family:Helvetica, sans-Serif;text-anchor:start">&lt; 1</text>
        <polygon
           points="85.4514,-212.2 139.451,-212.2 139.451,-193.2 85.4514,-193.2 85.4514,-193.2 "
           id="polygon8173"
           style="fill:#f7f7f7;stroke:none" />
        <polygon
           points="85.4514,-212.2 139.451,-212.2 139.451,-193.2 85.4514,-193.2 85.4514,-193.2 "
           id="polygon8175"
           style="fill:none;stroke:#000000" />
        <text
           x="104.062"
           y="-199.3"
           font-size="11.00"
           id="text8177"
           style="font-size:11px;font-family:Helvetica, sans-Serif;text-anchor:start">0 rows</text>
        <polygon
           points="139.451,-212.2 177.451,-212.2 177.451,-193.2 139.451,-193.2 139.451,-193.2 "
           id="polygon8179"
           style="fill:#f7f7f7;stroke:none" />
        <polygon
           points="139.451,-212.2 177.451,-212.2 177.451,-193.2 139.451,-193.2 139.451,-193.2 "
           id="polygon8181"
           style="fill:none;stroke:#000000" />
        <text
           x="158.85699"
           y="-199.3"
           font-size="11.00"
           id="text8183"
           style="font-size:11px;font-family:Helvetica, sans-Serif;text-anchor:start">3 &gt;</text>
      </a>
    </g>
  </g>
  <!-- observation&#45;&gt;sampling_location -->
  <g
     id="edge3"
     class="edge"
     transform="translate(-4.7994047,0)"
     inkscape:export-xdpi="90"
     inkscape:export-ydpi="90">
    <title
       id="title8186">observation:sampling_location_id:w-&gt;sampling_location:sampling_location_id:e</title>
    <path
       d="m 238.982,-506.184 c -31.28609,10.83174 -59.67413,9.8853 -67.22701,11.93446"
       id="path8188"
       inkscape:connector-curvature="0"
       style="fill:none;stroke:#000000"
       sodipodi:nodetypes="cc" />
    <polygon
       points="253.451,-508.2 249.49,-507.648 253.948,-504.634 245.528,-507.096 245.528,-507.096 245.528,-507.096 252.955,-511.766 249.49,-507.648 253.451,-508.2 253.451,-508.2 "
       id="polygon8190"
       style="fill:#000000;stroke:#000000" />
    <circle
       cx="242.35899"
       cy="-506.655"
       id="ellipse8192"
       r="3.2"
       style="fill:none;stroke:#000000" />
  </g>
  <!-- taxon -->
  <g
     id="node6"
     class="node"
     transform="translate(0.2720007,-155.04009)"
     inkscape:export-xdpi="90"
     inkscape:export-ydpi="90">
    <title
       id="title8195">taxon</title>
    <g
       id="a_node6">
      <a
         xlink:href="tables/taxon.html"
         id="a8198"
         xlink:title="taxon">
        <polygon
           points="56.9514,-171.7 151.951,-171.7 151.951,-38.7 56.9514,-38.7 56.9514,-38.7 "
           id="polygon8200"
           style="fill:#ffffff;stroke:none" />
        <polygon
           points="57.4514,-171.2 152.451,-171.2 152.451,-152.2 57.4514,-152.2 57.4514,-152.2 "
           id="polygon8202"
           style="fill:#9bab96;stroke:none" />
        <polygon
           points="57.4514,-171.2 152.451,-171.2 152.451,-152.2 57.4514,-152.2 57.4514,-152.2 "
           id="polygon8204"
           style="fill:none;stroke:#000000" />
        <text
           x="91.500603"
           y="-158.3"
           font-size="11.00"
           id="text8206"
           style="font-size:11px;font-family:Helvetica, sans-Serif;text-anchor:start">taxon</text>
        <polygon
           points="57.4514,-152.2 152.451,-152.2 152.451,-133.2 57.4514,-133.2 57.4514,-133.2 "
           id="polygon8208"
           style="fill:#bed1b8;stroke:none" />
        <polygon
           points="57.4514,-152.2 152.451,-152.2 152.451,-133.2 57.4514,-133.2 57.4514,-133.2 "
           id="polygon8210"
           style="fill:none;stroke:#000000" />
        <text
           x="60.451401"
           y="-139.3"
           font-size="11.00"
           id="text8212"
           style="font-size:11px;font-family:Helvetica, sans-Serif;text-anchor:start">taxon_id</text>
        <polygon
           points="57.4514,-133.2 152.451,-133.2 152.451,-114.2 57.4514,-114.2 57.4514,-114.2 "
           id="polygon8214"
           style="fill:none;stroke:#000000" />
        <text
           x="60.451401"
           y="-120.3"
           font-size="11.00"
           id="text8216"
           style="font-size:11px;font-family:Helvetica, sans-Serif;text-anchor:start">taxon_level</text>
        <polygon
           points="57.4514,-114.2 152.451,-114.2 152.451,-95.2 57.4514,-95.2 57.4514,-95.2 "
           id="polygon8218"
           style="fill:none;stroke:#000000" />
        <text
           x="60.451401"
           y="-101.3"
           font-size="11.00"
           id="text8220"
           style="font-size:11px;font-family:Helvetica, sans-Serif;text-anchor:start">taxon_name</text>
        <polygon
           points="57.4514,-95.2 152.451,-95.2 152.451,-76.2 57.4514,-76.2 57.4514,-76.2 "
           id="polygon8222"
           style="fill:none;stroke:#000000" />
        <text
           x="60.451401"
           y="-82.300003"
           font-size="11.00"
           id="text8224"
           style="font-size:11px;font-family:Helvetica, sans-Serif;text-anchor:start">authority_system</text>
        <polygon
           points="57.4514,-76.2 152.451,-76.2 152.451,-57.2 57.4514,-57.2 57.4514,-57.2 "
           id="polygon8226"
           style="fill:none;stroke:#000000" />
        <text
           x="60.019699"
           y="-63.299999"
           font-size="11.00"
           id="text8228"
           style="font-size:11px;font-family:Helvetica, sans-Serif;text-anchor:start">authority_taxon_id</text>
        <polygon
           points="57.4514,-57.2 81.4514,-57.2 81.4514,-38.2 57.4514,-38.2 57.4514,-38.2 "
           id="polygon8230"
           style="fill:#f7f7f7;stroke:none" />
        <polygon
           points="57.4514,-57.2 81.4514,-57.2 81.4514,-38.2 57.4514,-38.2 57.4514,-38.2 "
           id="polygon8232"
           style="fill:none;stroke:#000000" />
        <text
           x="60.451401"
           y="-44.299999"
           font-size="11.00"
           id="text8234"
           style="font-size:11px;font-family:Helvetica, sans-Serif;text-anchor:start"> </text>
        <polygon
           points="81.4514,-57.2 125.451,-57.2 125.451,-38.2 81.4514,-38.2 81.4514,-38.2 "
           id="polygon8236"
           style="fill:#f7f7f7;stroke:none" />
        <polygon
           points="81.4514,-57.2 125.451,-57.2 125.451,-38.2 81.4514,-38.2 81.4514,-38.2 "
           id="polygon8238"
           style="fill:none;stroke:#000000" />
        <text
           x="90.061897"
           y="-44.299999"
           font-size="11.00"
           id="text8240"
           style="font-size:11px;font-family:Helvetica, sans-Serif;text-anchor:start">0 rows</text>
        <polygon
           points="125.451,-57.2 152.451,-57.2 152.451,-38.2 125.451,-38.2 125.451,-38.2 "
           id="polygon8242"
           style="fill:#f7f7f7;stroke:none" />
        <polygon
           points="125.451,-57.2 152.451,-57.2 152.451,-38.2 125.451,-38.2 125.451,-38.2 "
           id="polygon8244"
           style="fill:none;stroke:#000000" />
        <text
           x="133.85699"
           y="-44.299999"
           font-size="11.00"
           id="text8246"
           style="font-size:11px;font-family:Helvetica, sans-Serif;text-anchor:start">2 &gt;</text>
      </a>
    </g>
  </g>
  <!-- observation&#45;&gt;taxon -->
  <g
     id="edge4"
     class="edge"
     transform="translate(-4.7994047,0)"
     inkscape:export-xdpi="90"
     inkscape:export-ydpi="90">
    <title
       id="title8249">observation:taxon_id:w-&gt;taxon:taxon_id:e</title>
    <path
       d="m 238.752,-468.02 c -81.29381,88.85806 22.18372,104.33728 -79.93741,171.95337"
       id="path8251"
       inkscape:connector-curvature="0"
       style="fill:none;stroke:#000000"
       sodipodi:nodetypes="cc" />
    <polygon
       points="253.451,-469.2 249.464,-468.88 253.74,-465.612 245.477,-468.56 245.477,-468.56 245.477,-468.56 253.163,-472.788 249.464,-468.88 253.451,-469.2 253.451,-469.2 "
       id="polygon8253"
       style="fill:#000000;stroke:#000000" />
    <circle
       cx="242.287"
       cy="-468.30301"
       id="ellipse8255"
       r="3.2"
       style="fill:none;stroke:#000000" />
  </g>
  <!-- sampling_location&#45;&gt;sampling_location -->
  <path
     sodipodi:nodetypes="csc"
     style="fill:none;stroke:#000000;stroke-width:0.762133"
     inkscape:connector-curvature="0"
     id="path8260"
     d="m 166.84001,-511.69029 c 31.47654,3.03288 30.3999,32.39442 30.3999,32.39442 1.91701,21.42873 -6.04357,55.73045 -17.11648,59.13079"
     inkscape:export-xdpi="90"
     inkscape:export-ydpi="90" />
  <polygon
     style="fill:#000000;stroke:#000000"
     id="polygon8262"
     points="32.4514,-221.2 32.4514,-221.2 29.3192,-223.688 30.2123,-218.381 26.187,-226.176 26.187,-226.176 26.187,-226.176 34.6905,-224.019 29.3192,-223.688 32.4514,-221.2 "
     transform="matrix(-1.1593223,0,0,1.117868,203.01576,-163.76576)"
     inkscape:export-xdpi="90"
     inkscape:export-ydpi="90" />
  <ellipse
     style="fill:none;stroke:#000000;stroke-width:1.02398026"
     id="ellipse8264"
     cy="-418.22601"
     cx="177.11565"
     rx="3.2327192"
     ry="3.3213751"
     inkscape:export-xdpi="90"
     inkscape:export-ydpi="90" />
  <!-- sampling_location_ancillary -->
  <g
     id="node5"
     class="node"
     transform="translate(-411.96079,-175.16212)"
     inkscape:export-xdpi="90"
     inkscape:export-ydpi="90">
    <title
       id="title8267">sampling_location_ancillary</title>
    <g
       id="a_node5">
      <a
         xlink:href="tables/sampling_location_ancillary.html"
         id="a8270"
         xlink:title="sampling_location_ancillary">
        <polygon
           points="386.951,-363.2 386.951,-211.2 231.951,-211.2 231.951,-211.2 231.951,-363.2 "
           id="polygon8272"
           style="fill:#ffffff;stroke:none" />
        <polygon
           points="387.451,-363.2 387.451,-344.2 232.451,-344.2 232.451,-344.2 232.451,-363.2 "
           id="polygon8274"
           style="fill:#9bab96;stroke:none" />
        <polygon
           points="387.451,-363.2 387.451,-344.2 232.451,-344.2 232.451,-344.2 232.451,-363.2 "
           id="polygon8276"
           style="fill:none;stroke:#000000" />
        <text
           x="242.72099"
           y="-350.29999"
           font-size="11.00"
           id="text8278"
           style="font-size:11px;font-family:Helvetica, sans-Serif;text-anchor:start">sampling_location_ancillary</text>
        <polygon
           points="387.451,-344.2 387.451,-325.2 232.451,-325.2 232.451,-325.2 232.451,-344.2 "
           id="polygon8280"
           style="fill:#bed1b8;stroke:none" />
        <polygon
           points="387.451,-344.2 387.451,-325.2 232.451,-325.2 232.451,-325.2 232.451,-344.2 "
           id="polygon8282"
           style="fill:none;stroke:#000000" />
        <text
           x="235.386"
           y="-331.29999"
           font-size="11.00"
           id="text8284"
           style="font-size:11px;font-family:Helvetica, sans-Serif;text-anchor:start">sampling_location_ancillary_id</text>
        <polygon
           points="387.451,-325.2 387.451,-306.2 232.451,-306.2 232.451,-306.2 232.451,-325.2 "
           id="polygon8286"
           style="fill:none;stroke:#000000" />
        <text
           x="235.451"
           y="-312.29999"
           font-size="11.00"
           id="text8288"
           style="font-size:11px;font-family:Helvetica, sans-Serif;text-anchor:start">sampling_location_id</text>
        <polygon
           points="387.451,-306.2 387.451,-287.2 232.451,-287.2 232.451,-287.2 232.451,-306.2 "
           id="polygon8290"
           style="fill:none;stroke:#000000" />
        <text
           x="235.451"
           y="-293.29999"
           font-size="11.00"
           id="text8292"
           style="font-size:11px;font-family:Helvetica, sans-Serif;text-anchor:start">datetime</text>
        <polygon
           points="387.451,-287.2 387.451,-268.2 232.451,-268.2 232.451,-268.2 232.451,-287.2 "
           id="polygon8294"
           style="fill:none;stroke:#000000" />
        <text
           x="235.451"
           y="-274.29999"
           font-size="11.00"
           id="text8296"
           style="font-size:11px;font-family:Helvetica, sans-Serif;text-anchor:start">variable_name</text>
        <polygon
           points="387.451,-268.2 387.451,-249.2 232.451,-249.2 232.451,-249.2 232.451,-268.2 "
           id="polygon8298"
           style="fill:none;stroke:#000000" />
        <text
           x="235.451"
           y="-255.3"
           font-size="11.00"
           id="text8300"
           style="font-size:11px;font-family:Helvetica, sans-Serif;text-anchor:start">value</text>
        <polygon
           points="387.451,-249.2 387.451,-230.2 232.451,-230.2 232.451,-230.2 232.451,-249.2 "
           id="polygon8302"
           style="fill:none;stroke:#000000" />
        <text
           x="235.451"
           y="-236.3"
           font-size="11.00"
           id="text8304"
           style="font-size:11px;font-family:Helvetica, sans-Serif;text-anchor:start">unit</text>
        <polygon
           points="295.451,-230.2 295.451,-211.2 232.451,-211.2 232.451,-211.2 232.451,-230.2 "
           id="polygon8306"
           style="fill:#f7f7f7;stroke:none" />
        <polygon
           points="295.451,-230.2 295.451,-211.2 232.451,-211.2 232.451,-211.2 232.451,-230.2 "
           id="polygon8308"
           style="fill:none;stroke:#000000" />
        <text
           x="235.451"
           y="-217.3"
           font-size="11.00"
           id="text8310"
           style="font-size:11px;font-family:Helvetica, sans-Serif;text-anchor:start">&lt; 1</text>
        <polygon
           points="354.451,-230.2 354.451,-211.2 295.451,-211.2 295.451,-211.2 295.451,-230.2 "
           id="polygon8312"
           style="fill:#f7f7f7;stroke:none" />
        <polygon
           points="354.451,-230.2 354.451,-211.2 295.451,-211.2 295.451,-211.2 295.451,-230.2 "
           id="polygon8314"
           style="fill:none;stroke:#000000" />
        <text
           x="319.06201"
           y="-217.3"
           font-size="11.00"
           id="text8316"
           style="font-size:11px;font-family:Helvetica, sans-Serif;text-anchor:start">0 rows</text>
        <polygon
           points="387.451,-230.2 387.451,-211.2 354.451,-211.2 354.451,-211.2 354.451,-230.2 "
           id="polygon8318"
           style="fill:#f7f7f7;stroke:none" />
        <polygon
           points="387.451,-230.2 387.451,-211.2 354.451,-211.2 354.451,-211.2 354.451,-230.2 "
           id="polygon8320"
           style="fill:none;stroke:#000000" />
        <text
           x="378.33801"
           y="-217.3"
           font-size="11.00"
           id="text8322"
           style="font-size:11px;font-family:Helvetica, sans-Serif;text-anchor:start"> </text>
      </a>
    </g>
  </g>
  <!-- sampling_location_ancillary&#45;&gt;sampling_location -->
  <g
     id="edge6"
     class="edge"
     transform="matrix(-0.97938607,0,0,1.0008301,203.33047,-192.22749)"
     inkscape:export-xdpi="90"
     inkscape:export-ydpi="90">
    <title
       id="title8325">sampling_location_ancillary:sampling_location_id:w-&gt;sampling_location:sampling_location_id:e</title>
    <path
       d="m 216.54746,-316.4723 c -12.936,-0.278 -12.62484,0.22091 -30.47884,0.22091"
       id="path8327"
       inkscape:connector-curvature="0"
       style="fill:none;stroke:#000000"
       sodipodi:nodetypes="cc" />
    <polygon
       points="227.452,-316.241 231.451,-316.2 231.451,-316.2 231.451,-316.2 227.452,-316.241 231.415,-312.6 223.452,-316.281 223.452,-316.281 223.452,-316.281 231.488,-319.8 "
       id="polygon8329"
       style="fill:#000000;stroke:#000000" />
    <circle
       cx="220.252"
       cy="-316.314"
       id="ellipse8331"
       r="3.2"
       style="fill:none;stroke:#000000" />
  </g>
  <!-- taxon_ancillary -->
  <g
     id="node7"
     class="node"
     transform="translate(-378.75816,-138.01465)"
     inkscape:export-xdpi="90"
     inkscape:export-ydpi="90">
    <title
       id="title8334">taxon_ancillary</title>
    <g
       id="a_node7">
      <a
         xlink:href="tables/taxon_ancillary.html"
         id="a8337"
         xlink:title="taxon_ancillary">
        <polygon
           points="356.451,-38.2 262.451,-38.2 262.451,-38.2 262.451,-190.2 356.451,-190.2 "
           id="polygon8339"
           style="fill:#ffffff;stroke:none" />
        <polygon
           points="356.451,-171.2 262.451,-171.2 262.451,-171.2 262.451,-190.2 356.451,-190.2 "
           id="polygon8341"
           style="fill:#9bab96;stroke:none" />
        <polygon
           points="356.451,-171.2 262.451,-171.2 262.451,-171.2 262.451,-190.2 356.451,-190.2 "
           id="polygon8343"
           style="fill:none;stroke:#000000" />
        <text
           x="272.77899"
           y="-177.3"
           font-size="11.00"
           id="text8345"
           style="font-size:11px;font-family:Helvetica, sans-Serif;text-anchor:start">taxon_ancillary</text>
        <polygon
           points="356.451,-152.2 262.451,-152.2 262.451,-152.2 262.451,-171.2 356.451,-171.2 "
           id="polygon8347"
           style="fill:#bed1b8;stroke:none" />
        <polygon
           points="356.451,-152.2 262.451,-152.2 262.451,-152.2 262.451,-171.2 356.451,-171.2 "
           id="polygon8349"
           style="fill:none;stroke:#000000" />
        <text
           x="265.44299"
           y="-158.3"
           font-size="11.00"
           id="text8351"
           style="font-size:11px;font-family:Helvetica, sans-Serif;text-anchor:start">taxon_ancillary_id</text>
        <polygon
           points="356.451,-133.2 262.451,-133.2 262.451,-133.2 262.451,-152.2 356.451,-152.2 "
           id="polygon8353"
           style="fill:none;stroke:#000000" />
        <text
           x="265.45099"
           y="-139.3"
           font-size="11.00"
           id="text8355"
           style="font-size:11px;font-family:Helvetica, sans-Serif;text-anchor:start">taxon_id</text>
        <polygon
           points="356.451,-114.2 262.451,-114.2 262.451,-114.2 262.451,-133.2 356.451,-133.2 "
           id="polygon8357"
           style="fill:none;stroke:#000000" />
        <text
           x="265.45099"
           y="-120.3"
           font-size="11.00"
           id="text8359"
           style="font-size:11px;font-family:Helvetica, sans-Serif;text-anchor:start">datetime</text>
        <polygon
           points="356.451,-95.2 262.451,-95.2 262.451,-95.2 262.451,-114.2 356.451,-114.2 "
           id="polygon8361"
           style="fill:none;stroke:#000000" />
        <text
           x="265.45099"
           y="-101.3"
           font-size="11.00"
           id="text8363"
           style="font-size:11px;font-family:Helvetica, sans-Serif;text-anchor:start">variable_name</text>
        <polygon
           points="356.451,-76.2 262.451,-76.2 262.451,-76.2 262.451,-95.2 356.451,-95.2 "
           id="polygon8365"
           style="fill:none;stroke:#000000" />
        <text
           x="265.45099"
           y="-82.300003"
           font-size="11.00"
           id="text8367"
           style="font-size:11px;font-family:Helvetica, sans-Serif;text-anchor:start">value</text>
        <polygon
           points="356.451,-57.2 262.451,-57.2 262.451,-57.2 262.451,-76.2 356.451,-76.2 "
           id="polygon8369"
           style="fill:none;stroke:#000000" />
        <text
           x="265.45099"
           y="-63.299999"
           font-size="11.00"
           id="text8371"
           style="font-size:11px;font-family:Helvetica, sans-Serif;text-anchor:start">author</text>
        <polygon
           points="294.451,-38.2 262.451,-38.2 262.451,-38.2 262.451,-57.2 294.451,-57.2 "
           id="polygon8373"
           style="fill:#f7f7f7;stroke:none" />
        <polygon
           points="294.451,-38.2 262.451,-38.2 262.451,-38.2 262.451,-57.2 294.451,-57.2 "
           id="polygon8375"
           style="fill:none;stroke:#000000" />
        <text
           x="265.45099"
           y="-44.299999"
           font-size="11.00"
           id="text8377"
           style="font-size:11px;font-family:Helvetica, sans-Serif;text-anchor:start">&lt; 1</text>
        <polygon
           points="338.451,-38.2 294.451,-38.2 294.451,-38.2 294.451,-57.2 338.451,-57.2 "
           id="polygon8379"
           style="fill:#f7f7f7;stroke:none" />
        <polygon
           points="338.451,-38.2 294.451,-38.2 294.451,-38.2 294.451,-57.2 338.451,-57.2 "
           id="polygon8381"
           style="fill:none;stroke:#000000" />
        <text
           x="303.06201"
           y="-44.299999"
           font-size="11.00"
           id="text8383"
           style="font-size:11px;font-family:Helvetica, sans-Serif;text-anchor:start">0 rows</text>
        <polygon
           points="356.451,-38.2 338.451,-38.2 338.451,-38.2 338.451,-57.2 356.451,-57.2 "
           id="polygon8385"
           style="fill:#f7f7f7;stroke:none" />
        <polygon
           points="356.451,-38.2 338.451,-38.2 338.451,-38.2 338.451,-57.2 356.451,-57.2 "
           id="polygon8387"
           style="fill:none;stroke:#000000" />
        <text
           x="347.33801"
           y="-44.299999"
           font-size="11.00"
           id="text8389"
           style="font-size:11px;font-family:Helvetica, sans-Serif;text-anchor:start"> </text>
      </a>
    </g>
  </g>
  <!-- taxon_ancillary&#45;&gt;taxon -->
  <g
     id="edge7"
     class="edge"
     transform="matrix(-1.1102035,0,0,-0.99622503,268.4638,-440.17503)"
     inkscape:export-xdpi="90"
     inkscape:export-ydpi="90">
    <title
       id="title8392">taxon_ancillary:taxon_id:w-&gt;taxon:taxon_id:e</title>
    <path
       d="m 246.899,-143.2 -55.82891,0"
       id="path8394"
       inkscape:connector-curvature="0"
       style="fill:none;stroke:#000000"
       sodipodi:nodetypes="cc" />
    <polygon
       points="261.451,-143.2 257.451,-143.2 261.451,-139.6 253.451,-143.2 253.451,-143.2 253.451,-143.2 261.451,-146.8 257.451,-143.2 261.451,-143.2 261.451,-143.2 "
       id="polygon8396"
       style="fill:#000000;stroke:#000000" />
    <circle
       cx="250.25101"
       cy="-143.2"
       id="ellipse8398"
       r="3.2"
       style="fill:none;stroke:#000000" />
  </g>
  <!-- </g> -->
</svg>
