<?xml version="1.0" encoding="UTF-8" standalone="no"?>
<!-- Generated by graphviz version 2.38.0 (20140413.2041)
 -->

<!-- Title: largeRelationshipsDiagram Pages: 1 -->

<svg
   xmlns:dc="http://purl.org/dc/elements/1.1/"
   xmlns:cc="http://creativecommons.org/ns#"
   xmlns:rdf="http://www.w3.org/1999/02/22-rdf-syntax-ns#"
   xmlns:svg="http://www.w3.org/2000/svg"
   xmlns="http://www.w3.org/2000/svg"
   xmlns:xlink="http://www.w3.org/1999/xlink"
   xmlns:sodipodi="http://sodipodi.sourceforge.net/DTD/sodipodi-0.dtd"
   xmlns:inkscape="http://www.inkscape.org/namespaces/inkscape"
   width="353pt"
   height="760pt"
   viewBox="0.00 0.00 353.00 759.70"
   id="svg3930"
   version="1.1"
   inkscape:version="0.91 r13725"
   sodipodi:docname="ecocomDP.svg">
  <metadata
     id="metadata4487">
    <rdf:RDF>
      <cc:Work
         rdf:about="">
        <dc:format>image/svg+xml</dc:format>
        <dc:type
           rdf:resource="http://purl.org/dc/dcmitype/StillImage" />
        <dc:title></dc:title>
      </cc:Work>
    </rdf:RDF>
  </metadata>
  <defs
     id="defs4485">
    <marker
       inkscape:stockid="Arrow1Mstart"
       orient="auto"
       refY="0.0"
       refX="0.0"
       id="Arrow1Mstart"
       style="overflow:visible"
       inkscape:isstock="true">
      <path
         id="path5585"
         d="M 0.0,0.0 L 5.0,-5.0 L -12.5,0.0 L 5.0,5.0 L 0.0,0.0 z "
         style="fill-rule:evenodd;stroke:#000000;stroke-width:1.0pt"
         transform="scale(0.4) translate(10,0)" />
    </marker>
  </defs>
  <sodipodi:namedview
     pagecolor="#ffffff"
     bordercolor="#666666"
     borderopacity="1"
     objecttolerance="10"
     gridtolerance="10"
     guidetolerance="10"
     inkscape:pageopacity="0"
     inkscape:pageshadow="2"
     inkscape:window-width="1570"
     inkscape:window-height="1021"
     id="namedview4483"
     showgrid="false"
     inkscape:zoom="0.64681662"
     inkscape:cx="220.07839"
     inkscape:cy="502.16936"
     inkscape:window-x="216"
     inkscape:window-y="21"
     inkscape:window-maximized="0"
     inkscape:current-layer="svg3930" />
  <g
     class="node"
     id="node1"
     transform="translate(386.18642,753.95086)">
    <title
       id="title3940">dataset_summary</title>
    <g
       id="a_node1">
      <a
         xlink:href="tables/dataset_summary.html"
         xlink:title="dataset_summary"
         id="a3943">
        <polygon
           style="fill:#ffffff;stroke:none"
           id="polygon3945"
           points="8,-384.7 8,-384.7 8,-555.7 165,-555.7 165,-384.7 " />
        <polygon
           style="fill:#9bab96;stroke:none"
           id="polygon3947"
           points="8.5,-536.2 8.5,-536.2 8.5,-555.2 165.5,-555.2 165.5,-536.2 " />
        <polygon
           style="fill:none;stroke:#000000"
           id="polygon3949"
           points="8.5,-536.2 8.5,-536.2 8.5,-555.2 165.5,-555.2 165.5,-536.2 " />
        <text
           style="font-size:11px;font-family:Helvetica, sans-Serif;text-anchor:start"
           id="text3951"
           font-size="11.00"
           y="-542.29999"
           x="43.2981">dataset_summary</text>
        <polygon
           style="fill:#bed1b8;stroke:none"
           id="polygon3953"
           points="8.5,-517.2 8.5,-517.2 8.5,-536.2 165.5,-536.2 165.5,-517.2 " />
        <polygon
           style="fill:none;stroke:#000000"
           id="polygon3955"
           points="8.5,-517.2 8.5,-517.2 8.5,-536.2 165.5,-536.2 165.5,-517.2 " />
        <text
           style="font-size:11px;font-family:Helvetica, sans-Serif;text-anchor:start"
           id="text3957"
           font-size="11.00"
           y="-523.29999"
           x="11.5">package_id</text>
        <polygon
           style="fill:none;stroke:#000000"
           id="polygon3959"
           points="8.5,-498.2 8.5,-498.2 8.5,-517.2 165.5,-517.2 165.5,-498.2 " />
        <text
           style="font-size:11px;font-family:Helvetica, sans-Serif;text-anchor:start"
           id="text3961"
           font-size="11.00"
           y="-504.29999"
           x="11.5">original_package_id</text>
        <polygon
           style="fill:none;stroke:#000000"
           id="polygon3963"
           points="8.5,-479.2 8.5,-479.2 8.5,-498.2 165.5,-498.2 165.5,-479.2 " />
        <text
           style="font-size:11px;font-family:Helvetica, sans-Serif;text-anchor:start"
           id="text3965"
           font-size="11.00"
           y="-485.29999"
           x="11.5">length_of_survey_years</text>
        <polygon
           style="fill:none;stroke:#000000"
           id="polygon3967"
           points="8.5,-460.2 8.5,-460.2 8.5,-479.2 165.5,-479.2 165.5,-460.2 " />
        <text
           style="font-size:11px;font-family:Helvetica, sans-Serif;text-anchor:start"
           id="text3969"
           font-size="11.00"
           y="-466.29999"
           x="11.5">number_of_years_sampled</text>
        <polygon
           style="fill:none;stroke:#000000"
           id="polygon3971"
           points="8.5,-441.2 8.5,-441.2 8.5,-460.2 165.5,-460.2 165.5,-441.2 " />
        <text
           style="font-size:11px;font-family:Helvetica, sans-Serif;text-anchor:start"
           id="text3973"
           font-size="11.00"
           y="-447.29999"
           x="11.5">std_dev_interval_betw_years</text>
        <polygon
           style="fill:none;stroke:#000000"
           id="polygon3975"
           points="8.5,-422.2 8.5,-422.2 8.5,-441.2 165.5,-441.2 165.5,-422.2 " />
        <text
           style="font-size:11px;font-family:Helvetica, sans-Serif;text-anchor:start"
           id="text3977"
           font-size="11.00"
           y="-428.29999"
           x="11.5">max_num_taxa</text>
        <polygon
           style="fill:none;stroke:#000000"
           id="polygon3979"
           points="8.5,-403.2 8.5,-403.2 8.5,-422.2 165.5,-422.2 165.5,-403.2 " />
        <text
           style="font-size:11px;font-family:Helvetica, sans-Serif;text-anchor:start"
           id="text3981"
           font-size="11.00"
           y="-409.29999"
           x="11.4927">geo_extent_bounding_box_m2</text>
        <polygon
           style="fill:#f7f7f7;stroke:none"
           id="polygon3983"
           points="8.5,-384.2 8.5,-384.2 8.5,-403.2 63.5,-403.2 63.5,-384.2 " />
        <polygon
           style="fill:none;stroke:#000000"
           id="polygon3985"
           points="8.5,-384.2 8.5,-384.2 8.5,-403.2 63.5,-403.2 63.5,-384.2 " />
        <text
           style="font-size:11px;font-family:Helvetica, sans-Serif;text-anchor:start"
           id="text3987"
           font-size="11.00"
           y="-390.29999"
           x="11.5"> </text>
        <polygon
           style="fill:#f7f7f7;stroke:none"
           id="polygon3989"
           points="63.5,-384.2 63.5,-384.2 63.5,-403.2 122.5,-403.2 122.5,-384.2 " />
        <polygon
           style="fill:none;stroke:#000000"
           id="polygon3991"
           points="63.5,-384.2 63.5,-384.2 63.5,-403.2 122.5,-403.2 122.5,-384.2 " />
        <text
           style="font-size:11px;font-family:Helvetica, sans-Serif;text-anchor:start"
           id="text3993"
           font-size="11.00"
           y="-390.29999"
           x="87.110497">0 rows</text>
        <polygon
           style="fill:#f7f7f7;stroke:none"
           id="polygon3995"
           points="122.5,-384.2 122.5,-384.2 122.5,-403.2 165.5,-403.2 165.5,-384.2 " />
        <polygon
           style="fill:none;stroke:#000000"
           id="polygon3997"
           points="122.5,-384.2 122.5,-384.2 122.5,-403.2 165.5,-403.2 165.5,-384.2 " />
        <text
           style="font-size:11px;font-family:Helvetica, sans-Serif;text-anchor:start"
           id="text3999"
           font-size="11.00"
           y="-390.29999"
           x="146.905">1 &gt;</text>
      </a>
    </g>
  </g>
  <g
     class="node"
     id="node3"
     transform="translate(183.2,755.7)">
    <title
       id="title4044">location</title>
    <g
       id="a_node3">
      <a
         xlink:href="tables/location.html"
         xlink:title="location"
         id="a4047">
        <polygon
           style="fill:#ffffff;stroke:none"
           id="polygon4049"
           points="39,-345.2 134,-345.2 134,-193.2 39,-193.2 39,-193.2 " />
        <polygon
           style="fill:#9bab96;stroke:none"
           id="polygon4051"
           points="39.5,-345.2 134.5,-345.2 134.5,-326.2 39.5,-326.2 39.5,-326.2 " />
        <polygon
           style="fill:none;stroke:#000000"
           id="polygon4053"
           points="39.5,-345.2 134.5,-345.2 134.5,-326.2 39.5,-326.2 39.5,-326.2 " />
        <text
           style="font-size:11px;font-family:Helvetica, sans-Serif;text-anchor:start"
           id="text4055"
           font-size="11.00"
           y="-332.29999"
           x="68.050797">location</text>
        <polygon
           style="fill:#bed1b8;stroke:none"
           id="polygon4057"
           points="39.5,-326.2 134.5,-326.2 134.5,-307.2 39.5,-307.2 39.5,-307.2 " />
        <polygon
           style="fill:none;stroke:#000000"
           id="polygon4059"
           points="39.5,-326.2 134.5,-326.2 134.5,-307.2 39.5,-307.2 39.5,-307.2 " />
        <text
           style="font-size:11px;font-family:Helvetica, sans-Serif;text-anchor:start"
           id="text4061"
           font-size="11.00"
           y="-313.29999"
           x="42.5">location_id</text>
        <polygon
           style="fill:none;stroke:#000000"
           id="polygon4063"
           points="39.5,-307.2 134.5,-307.2 134.5,-288.2 39.5,-288.2 39.5,-288.2 " />
        <text
           style="font-size:11px;font-family:Helvetica, sans-Serif;text-anchor:start"
           id="text4065"
           font-size="11.00"
           y="-294.29999"
           x="42.5">location_name</text>
        <polygon
           style="fill:none;stroke:#000000"
           id="polygon4067"
           points="39.5,-288.2 134.5,-288.2 134.5,-269.2 39.5,-269.2 39.5,-269.2 " />
        <text
           style="font-size:11px;font-family:Helvetica, sans-Serif;text-anchor:start"
           id="text4069"
           font-size="11.00"
           y="-275.29999"
           x="42.5">latitude</text>
        <polygon
           style="fill:none;stroke:#000000"
           id="polygon4071"
           points="39.5,-269.2 134.5,-269.2 134.5,-250.2 39.5,-250.2 39.5,-250.2 " />
        <text
           style="font-size:11px;font-family:Helvetica, sans-Serif;text-anchor:start"
           id="text4073"
           font-size="11.00"
           y="-256.29999"
           x="42.5">longitude</text>
        <polygon
           style="fill:none;stroke:#000000"
           id="polygon4075"
           points="39.5,-250.2 134.5,-250.2 134.5,-231.2 39.5,-231.2 39.5,-231.2 " />
        <text
           style="font-size:11px;font-family:Helvetica, sans-Serif;text-anchor:start"
           id="text4077"
           font-size="11.00"
           y="-237.3"
           x="42.5">elevation</text>
        <polygon
           style="fill:none;stroke:#000000"
           id="polygon4079"
           points="39.5,-231.2 134.5,-231.2 134.5,-212.2 39.5,-212.2 39.5,-212.2 " />
        <text
           style="font-size:11px;font-family:Helvetica, sans-Serif;text-anchor:start"
           id="text4081"
           font-size="11.00"
           y="-218.3"
           x="42.068802">parent_location_id</text>
        <polygon
           style="fill:#f7f7f7;stroke:none"
           id="polygon4083"
           points="39.5,-212.2 67.5,-212.2 67.5,-193.2 39.5,-193.2 39.5,-193.2 " />
        <polygon
           style="fill:none;stroke:#000000"
           id="polygon4085"
           points="39.5,-212.2 67.5,-212.2 67.5,-193.2 39.5,-193.2 39.5,-193.2 " />
        <text
           style="font-size:11px;font-family:Helvetica, sans-Serif;text-anchor:start"
           id="text4087"
           font-size="11.00"
           y="-199.3"
           x="42.5">&lt; 1</text>
        <polygon
           style="fill:#f7f7f7;stroke:none"
           id="polygon4089"
           points="67.5,-212.2 109.5,-212.2 109.5,-193.2 67.5,-193.2 67.5,-193.2 " />
        <polygon
           style="fill:none;stroke:#000000"
           id="polygon4091"
           points="67.5,-212.2 109.5,-212.2 109.5,-193.2 67.5,-193.2 67.5,-193.2 " />
        <text
           style="font-size:11px;font-family:Helvetica, sans-Serif;text-anchor:start"
           id="text4093"
           font-size="11.00"
           y="-199.3"
           x="74.110497">0 rows</text>
        <polygon
           style="fill:#f7f7f7;stroke:none"
           id="polygon4095"
           points="109.5,-212.2 134.5,-212.2 134.5,-193.2 109.5,-193.2 109.5,-193.2 " />
        <polygon
           style="fill:none;stroke:#000000"
           id="polygon4097"
           points="109.5,-212.2 134.5,-212.2 134.5,-193.2 109.5,-193.2 109.5,-193.2 " />
        <text
           style="font-size:11px;font-family:Helvetica, sans-Serif;text-anchor:start"
           id="text4099"
           font-size="11.00"
           y="-199.3"
           x="115.905">3 &gt;</text>
      </a>
    </g>
  </g>
  <g
     class="edge"
     id="edge1"
     transform="translate(183.2,755.7)">
    <title
       id="title4102">location:parent_location_id:w-&gt;location:location_id:e</title>
    <path
       style="fill:none;stroke:#000000"
       inkscape:connector-curvature="0"
       id="path4104"
       d="M 28.4543,-230.823 C -6.80209,-270.294 0.621094,-362.2 87,-362.2 c 94.5,0 94.5,14 47.5,45" />
    <polygon
       style="fill:#000000;stroke:#000000"
       id="polygon4106"
       points="41.8647,-223.914 36.4839,-223.827 39.5,-221.2 39.5,-221.2 39.5,-221.2 36.4839,-223.827 37.1353,-218.486 33.4679,-226.455 33.4679,-226.455 33.4679,-226.455 " />
    <circle
       style="fill:none;stroke:#000000"
       r="3.2000101"
       id="ellipse4108"
       cy="-228.55701"
       cx="31.055099" />
  </g>
  <g
     class="node"
     id="node4"
     transform="translate(-185.35972,759.04914)">
    <title
       id="title4111">location_ancillary</title>
    <g
       id="a_node4">
      <a
         xlink:href="tables/location_ancillary.html"
         xlink:title="location_ancillary"
         id="a4114">
        <polygon
           style="fill:#ffffff;stroke:none"
           id="polygon4116"
           points="223,-211.2 223,-363.2 328,-363.2 328,-211.2 223,-211.2 " />
        <polygon
           style="fill:#9bab96;stroke:none"
           id="polygon4118"
           points="223.5,-344.2 223.5,-363.2 328.5,-363.2 328.5,-344.2 223.5,-344.2 " />
        <polygon
           style="fill:none;stroke:#000000"
           id="polygon4120"
           points="223.5,-344.2 223.5,-363.2 328.5,-363.2 328.5,-344.2 223.5,-344.2 " />
        <text
           style="font-size:11px;font-family:Helvetica, sans-Serif;text-anchor:start"
           id="text4122"
           font-size="11.00"
           y="-350.29999"
           x="233.82899">location_ancillary</text>
        <polygon
           style="fill:#bed1b8;stroke:none"
           id="polygon4124"
           points="223.5,-325.2 223.5,-344.2 328.5,-344.2 328.5,-325.2 223.5,-325.2 " />
        <polygon
           style="fill:none;stroke:#000000"
           id="polygon4126"
           points="223.5,-325.2 223.5,-344.2 328.5,-344.2 328.5,-325.2 223.5,-325.2 " />
        <text
           style="font-size:11px;font-family:Helvetica, sans-Serif;text-anchor:start"
           id="text4128"
           font-size="11.00"
           y="-331.29999"
           x="226.493">location_ancillary_id</text>
        <polygon
           style="fill:#f4f7da;stroke:none"
           id="polygon4130"
           points="223.5,-306.2 223.5,-325.2 328.5,-325.2 328.5,-306.2 223.5,-306.2 " />
        <polygon
           style="fill:none;stroke:#000000"
           id="polygon4132"
           points="223.5,-306.2 223.5,-325.2 328.5,-325.2 328.5,-306.2 223.5,-306.2 " />
        <text
           style="font-size:11px;font-family:Helvetica, sans-Serif;text-anchor:start"
           id="text4134"
           font-size="11.00"
           y="-312.29999"
           x="226.5">location_id</text>
        <polygon
           style="fill:#f4f7da;stroke:none"
           id="polygon4136"
           points="223.5,-287.2 223.5,-306.2 328.5,-306.2 328.5,-287.2 223.5,-287.2 " />
        <polygon
           style="fill:none;stroke:#000000"
           id="polygon4138"
           points="223.5,-287.2 223.5,-306.2 328.5,-306.2 328.5,-287.2 223.5,-287.2 " />
        <text
           style="font-size:11px;font-family:Helvetica, sans-Serif;text-anchor:start"
           id="text4140"
           font-size="11.00"
           y="-293.29999"
           x="226.5">datetime</text>
        <polygon
           style="fill:#f4f7da;stroke:none"
           id="polygon4142"
           points="223.5,-268.2 223.5,-287.2 328.5,-287.2 328.5,-268.2 223.5,-268.2 " />
        <polygon
           style="fill:none;stroke:#000000"
           id="polygon4144"
           points="223.5,-268.2 223.5,-287.2 328.5,-287.2 328.5,-268.2 223.5,-268.2 " />
        <text
           style="font-size:11px;font-family:Helvetica, sans-Serif;text-anchor:start"
           id="text4146"
           font-size="11.00"
           y="-274.29999"
           x="226.5">variable_name</text>
        <polygon
           style="fill:none;stroke:#000000"
           id="polygon4148"
           points="223.5,-249.2 223.5,-268.2 328.5,-268.2 328.5,-249.2 223.5,-249.2 " />
        <text
           style="font-size:11px;font-family:Helvetica, sans-Serif;text-anchor:start"
           id="text4150"
           font-size="11.00"
           y="-255.3"
           x="226.5">value</text>
        <polygon
           style="fill:none;stroke:#000000"
           id="polygon4152"
           points="223.5,-230.2 223.5,-249.2 328.5,-249.2 328.5,-230.2 223.5,-230.2 " />
        <text
           style="font-size:11px;font-family:Helvetica, sans-Serif;text-anchor:start"
           id="text4154"
           font-size="11.00"
           y="-236.3"
           x="226.5">unit</text>
        <polygon
           style="fill:#f7f7f7;stroke:none"
           id="polygon4156"
           points="223.5,-211.2 223.5,-230.2 261.5,-230.2 261.5,-211.2 223.5,-211.2 " />
        <polygon
           style="fill:none;stroke:#000000"
           id="polygon4158"
           points="223.5,-211.2 223.5,-230.2 261.5,-230.2 261.5,-211.2 223.5,-211.2 " />
        <text
           style="font-size:11px;font-family:Helvetica, sans-Serif;text-anchor:start"
           id="text4160"
           font-size="11.00"
           y="-217.3"
           x="226.5">&lt; 1</text>
        <polygon
           style="fill:#f7f7f7;stroke:none"
           id="polygon4162"
           points="261.5,-211.2 261.5,-230.2 307.5,-230.2 307.5,-211.2 261.5,-211.2 " />
        <polygon
           style="fill:none;stroke:#000000"
           id="polygon4164"
           points="261.5,-211.2 261.5,-230.2 307.5,-230.2 307.5,-211.2 261.5,-211.2 " />
        <text
           style="font-size:11px;font-family:Helvetica, sans-Serif;text-anchor:start"
           id="text4166"
           font-size="11.00"
           y="-217.3"
           x="272.11099">0 rows</text>
        <polygon
           style="fill:#f7f7f7;stroke:none"
           id="polygon4168"
           points="307.5,-211.2 307.5,-230.2 328.5,-230.2 328.5,-211.2 307.5,-211.2 " />
        <polygon
           style="fill:none;stroke:#000000"
           id="polygon4170"
           points="307.5,-211.2 307.5,-230.2 328.5,-230.2 328.5,-211.2 307.5,-211.2 " />
        <text
           style="font-size:11px;font-family:Helvetica, sans-Serif;text-anchor:start"
           id="text4172"
           font-size="11.00"
           y="-217.3"
           x="319.38599"> </text>
      </a>
    </g>
  </g>
  <g
     class="edge"
     id="edge2"
     transform="matrix(-0.9224022,0,0,1.0033578,347.94578,758.36173)">
    <title
       id="title4175">location_ancillary:location_id:w-&gt;location:location_id:e</title>
    <path
       style="fill:none;stroke:#000000"
       inkscape:connector-curvature="0"
       id="path4177"
       d="M 207.746,-316.254 C 180.54,-316.461 168.731,-317.2 135.5,-317.2" />
    <polygon
       style="fill:#000000;stroke:#000000"
       id="polygon4179"
       points="222.487,-312.6 214.5,-316.229 214.5,-316.229 214.5,-316.229 222.513,-319.8 218.5,-316.215 222.5,-316.2 222.5,-316.2 222.5,-316.2 218.5,-316.215 " />
    <circle
       style="fill:none;stroke:#000000"
       r="3.2"
       id="ellipse4181"
       cy="-316.241"
       cx="211.3" />
  </g>
  <g
     class="node"
     id="node5"
     transform="translate(4,755.7)">
    <title
       id="title4184">observation</title>
    <g
       id="a_node5">
      <a
         xlink:href="tables/observation.html"
         xlink:title="observation"
         id="a4187">
        <polygon
           style="fill:#ffffff;stroke:none"
           id="polygon4189"
           points="331,-593.7 331,-384.7 220,-384.7 220,-384.7 220,-593.7 " />
        <polygon
           style="fill:#9bab96;stroke:none"
           id="polygon4191"
           points="331.5,-593.2 331.5,-574.2 220.5,-574.2 220.5,-574.2 220.5,-593.2 " />
        <polygon
           style="fill:none;stroke:#000000"
           id="polygon4193"
           points="331.5,-593.2 331.5,-574.2 220.5,-574.2 220.5,-574.2 220.5,-593.2 " />
        <text
           style="font-size:11px;font-family:Helvetica, sans-Serif;text-anchor:start"
           id="text4195"
           font-size="11.00"
           y="-580.29999"
           x="247.575">observation</text>
        <polygon
           style="fill:#bed1b8;stroke:none"
           id="polygon4197"
           points="331.5,-574.2 331.5,-555.2 220.5,-555.2 220.5,-555.2 220.5,-574.2 " />
        <polygon
           style="fill:none;stroke:#000000"
           id="polygon4199"
           points="331.5,-574.2 331.5,-555.2 220.5,-555.2 220.5,-555.2 220.5,-574.2 " />
        <text
           style="font-size:11px;font-family:Helvetica, sans-Serif;text-anchor:start"
           id="text4201"
           font-size="11.00"
           y="-561.29999"
           x="223.5">observation_id</text>
        <polygon
           style="fill:none;stroke:#000000"
           id="polygon4203"
           points="331.5,-555.2 331.5,-536.2 220.5,-536.2 220.5,-536.2 220.5,-555.2 " />
        <text
           style="font-size:11px;font-family:Helvetica, sans-Serif;text-anchor:start"
           id="text4205"
           font-size="11.00"
           y="-542.29999"
           x="223.5">event_id</text>
        <polygon
           style="fill:none;stroke:#000000"
           id="polygon4207"
           points="331.5,-536.2 331.5,-517.2 220.5,-517.2 220.5,-517.2 220.5,-536.2 " />
        <text
           style="font-size:11px;font-family:Helvetica, sans-Serif;text-anchor:start"
           id="text4209"
           font-size="11.00"
           y="-523.29999"
           x="223.5">package_id</text>
        <polygon
           style="fill:none;stroke:#000000"
           id="polygon4211"
           points="331.5,-517.2 331.5,-498.2 220.5,-498.2 220.5,-498.2 220.5,-517.2 " />
        <text
           style="font-size:11px;font-family:Helvetica, sans-Serif;text-anchor:start"
           id="text4213"
           font-size="11.00"
           y="-504.29999"
           x="223.5">location_id</text>
        <polygon
           style="fill:none;stroke:#000000"
           id="polygon4215"
           points="331.5,-498.2 331.5,-479.2 220.5,-479.2 220.5,-479.2 220.5,-498.2 " />
        <text
           style="font-size:11px;font-family:Helvetica, sans-Serif;text-anchor:start"
           id="text4217"
           font-size="11.00"
           y="-485.29999"
           x="223.42999">observation_datetime</text>
        <polygon
           style="fill:none;stroke:#000000"
           id="polygon4219"
           points="331.5,-479.2 331.5,-460.2 220.5,-460.2 220.5,-460.2 220.5,-479.2 " />
        <text
           style="font-size:11px;font-family:Helvetica, sans-Serif;text-anchor:start"
           id="text4221"
           font-size="11.00"
           y="-466.29999"
           x="223.5">taxon_id</text>
        <polygon
           style="fill:none;stroke:#000000"
           id="polygon4223"
           points="331.5,-460.2 331.5,-441.2 220.5,-441.2 220.5,-441.2 220.5,-460.2 " />
        <text
           style="font-size:11px;font-family:Helvetica, sans-Serif;text-anchor:start"
           id="text4225"
           font-size="11.00"
           y="-447.29999"
           x="223.5">variable_name</text>
        <polygon
           style="fill:none;stroke:#000000"
           id="polygon4227"
           points="331.5,-441.2 331.5,-422.2 220.5,-422.2 220.5,-422.2 220.5,-441.2 " />
        <text
           style="font-size:11px;font-family:Helvetica, sans-Serif;text-anchor:start"
           id="text4229"
           font-size="11.00"
           y="-428.29999"
           x="223.5">value</text>
        <polygon
           style="fill:none;stroke:#000000"
           id="polygon4231"
           points="331.5,-422.2 331.5,-403.2 220.5,-403.2 220.5,-403.2 220.5,-422.2 " />
        <text
           style="font-size:11px;font-family:Helvetica, sans-Serif;text-anchor:start"
           id="text4233"
           font-size="11.00"
           y="-409.29999"
           x="223.5">unit</text>
        <polygon
           style="fill:#f7f7f7;stroke:none"
           id="polygon4235"
           points="261.5,-403.2 261.5,-384.2 220.5,-384.2 220.5,-384.2 220.5,-403.2 " />
        <polygon
           style="fill:none;stroke:#000000"
           id="polygon4237"
           points="261.5,-403.2 261.5,-384.2 220.5,-384.2 220.5,-384.2 220.5,-403.2 " />
        <text
           style="font-size:11px;font-family:Helvetica, sans-Serif;text-anchor:start"
           id="text4239"
           font-size="11.00"
           y="-390.29999"
           x="223.5">&lt; 4</text>
        <polygon
           style="fill:#f7f7f7;stroke:none"
           id="polygon4241"
           points="309.5,-403.2 309.5,-384.2 261.5,-384.2 261.5,-384.2 261.5,-403.2 " />
        <polygon
           style="fill:none;stroke:#000000"
           id="polygon4243"
           points="309.5,-403.2 309.5,-384.2 261.5,-384.2 261.5,-384.2 261.5,-403.2 " />
        <text
           style="font-size:11px;font-family:Helvetica, sans-Serif;text-anchor:start"
           id="text4245"
           font-size="11.00"
           y="-390.29999"
           x="274.11099">0 rows</text>
        <polygon
           style="fill:#f7f7f7;stroke:none"
           id="polygon4247"
           points="331.5,-403.2 331.5,-384.2 309.5,-384.2 309.5,-384.2 309.5,-403.2 " />
        <polygon
           style="fill:none;stroke:#000000"
           id="polygon4249"
           points="331.5,-403.2 331.5,-384.2 309.5,-384.2 309.5,-384.2 309.5,-403.2 " />
        <text
           style="font-size:11px;font-family:Helvetica, sans-Serif;text-anchor:start"
           id="text4251"
           font-size="11.00"
           y="-390.29999"
           x="322.38599"> </text>
      </a>
    </g>
  </g>
  <g
     class="edge"
     id="edge5"
     transform="matrix(-1.1115414,0,0,0.99982332,579.79774,755.60686)">
    <title
       id="title4254">observation:package_id:w-&gt;dataset_summary:package_id:e</title>
    <path
       style="fill:none;stroke:#000000"
       inkscape:connector-curvature="0"
       id="path4256"
       d="m 204.992,-527.2 c -12.936,0 -20.641,0 -38.492,0" />
    <polygon
       style="fill:#000000;stroke:#000000"
       id="polygon4258"
       points="219.5,-527.2 215.5,-527.2 219.5,-523.6 211.5,-527.2 211.5,-527.2 211.5,-527.2 219.5,-530.8 215.5,-527.2 219.5,-527.2 219.5,-527.2 " />
    <circle
       style="fill:none;stroke:#000000"
       r="3.2"
       id="ellipse4260"
       cy="-527.20001"
       cx="208.3" />
  </g>
  <g
     class="edge"
     id="edge3"
     transform="translate(4,755.7)">
    <title
       id="title4263">observation:event_id:w-&gt;event:event_id:e</title>
    <polygon
       style="fill:#000000;stroke:#000000"
       id="polygon4267"
       points="215.546,-546.805 219.5,-546.2 219.5,-546.2 219.5,-546.2 215.546,-546.805 218.956,-542.641 211.592,-547.41 211.592,-547.41 211.592,-547.41 220.044,-549.759 " />
    <circle
       style="fill:none;stroke:#000000"
       r="3.2"
       id="ellipse4269"
       cy="-547.89398"
       cx="208.429" />
  </g>
  <g
     class="edge"
     id="edge4"
     transform="translate(4,755.7)">
    <title
       id="title4272">observation:location_id:w-&gt;location:location_id:e</title>
    <path
       style="fill:none;stroke:#000000"
       inkscape:connector-curvature="0"
       id="path4274"
       d="m 205.121,-506.31 c -70.63027,4.09477 -23.42371,196.98112 11.71387,190.85914"
       sodipodi:nodetypes="cc" />
    <polygon
       style="fill:#000000;stroke:#000000"
       id="polygon4276"
       points="215.534,-507.679 219.5,-508.2 219.5,-508.2 219.5,-508.2 215.534,-507.679 219.969,-504.631 211.568,-507.157 211.568,-507.157 211.568,-507.157 219.031,-511.769 " />
    <circle
       style="fill:none;stroke:#000000"
       r="3.2"
       id="ellipse4278"
       cy="-506.73999"
       cx="208.396" />
  </g>
  <g
     class="node"
     id="node7"
     transform="translate(183.2,755.7)">
    <title
       id="title4281">taxon</title>
    <g
       id="a_node7">
      <a
         xlink:href="tables/taxon.html"
         xlink:title="taxon"
         id="a4284">
        <polygon
           style="fill:#ffffff;stroke:none"
           id="polygon4286"
           points="39,-171.7 134,-171.7 134,-38.7 39,-38.7 39,-38.7 " />
        <polygon
           style="fill:#9bab96;stroke:none"
           id="polygon4288"
           points="39.5,-171.2 134.5,-171.2 134.5,-152.2 39.5,-152.2 39.5,-152.2 " />
        <polygon
           style="fill:none;stroke:#000000"
           id="polygon4290"
           points="39.5,-171.2 134.5,-171.2 134.5,-152.2 39.5,-152.2 39.5,-152.2 " />
        <text
           style="font-size:11px;font-family:Helvetica, sans-Serif;text-anchor:start"
           id="text4292"
           font-size="11.00"
           y="-158.3"
           x="73.549202">taxon</text>
        <polygon
           style="fill:#bed1b8;stroke:none"
           id="polygon4294"
           points="39.5,-152.2 134.5,-152.2 134.5,-133.2 39.5,-133.2 39.5,-133.2 " />
        <polygon
           style="fill:none;stroke:#000000"
           id="polygon4296"
           points="39.5,-152.2 134.5,-152.2 134.5,-133.2 39.5,-133.2 39.5,-133.2 " />
        <text
           style="font-size:11px;font-family:Helvetica, sans-Serif;text-anchor:start"
           id="text4298"
           font-size="11.00"
           y="-139.3"
           x="42.5">taxon_id</text>
        <polygon
           style="fill:none;stroke:#000000"
           id="polygon4300"
           points="39.5,-133.2 134.5,-133.2 134.5,-114.2 39.5,-114.2 39.5,-114.2 " />
        <text
           style="font-size:11px;font-family:Helvetica, sans-Serif;text-anchor:start"
           id="text4302"
           font-size="11.00"
           y="-120.3"
           x="42.5">taxon_rank</text>
        <polygon
           style="fill:none;stroke:#000000"
           id="polygon4304"
           points="39.5,-114.2 134.5,-114.2 134.5,-95.2 39.5,-95.2 39.5,-95.2 " />
        <text
           style="font-size:11px;font-family:Helvetica, sans-Serif;text-anchor:start"
           id="text4306"
           font-size="11.00"
           y="-101.3"
           x="42.5">taxon_name</text>
        <polygon
           style="fill:none;stroke:#000000"
           id="polygon4308"
           points="39.5,-95.2 134.5,-95.2 134.5,-76.2 39.5,-76.2 39.5,-76.2 " />
        <text
           style="font-size:11px;font-family:Helvetica, sans-Serif;text-anchor:start"
           id="text4310"
           font-size="11.00"
           y="-82.300003"
           x="42.5">authority_system</text>
        <polygon
           style="fill:none;stroke:#000000"
           id="polygon4312"
           points="39.5,-76.2 134.5,-76.2 134.5,-57.2 39.5,-57.2 39.5,-57.2 " />
        <text
           style="font-size:11px;font-family:Helvetica, sans-Serif;text-anchor:start"
           id="text4314"
           font-size="11.00"
           y="-63.299999"
           x="42.068298">authority_taxon_id</text>
        <polygon
           style="fill:#f7f7f7;stroke:none"
           id="polygon4316"
           points="39.5,-57.2 63.5,-57.2 63.5,-38.2 39.5,-38.2 39.5,-38.2 " />
        <polygon
           style="fill:none;stroke:#000000"
           id="polygon4318"
           points="39.5,-57.2 63.5,-57.2 63.5,-38.2 39.5,-38.2 39.5,-38.2 " />
        <text
           style="font-size:11px;font-family:Helvetica, sans-Serif;text-anchor:start"
           id="text4320"
           font-size="11.00"
           y="-44.299999"
           x="42.5"> </text>
        <polygon
           style="fill:#f7f7f7;stroke:none"
           id="polygon4322"
           points="63.5,-57.2 107.5,-57.2 107.5,-38.2 63.5,-38.2 63.5,-38.2 " />
        <polygon
           style="fill:none;stroke:#000000"
           id="polygon4324"
           points="63.5,-57.2 107.5,-57.2 107.5,-38.2 63.5,-38.2 63.5,-38.2 " />
        <text
           style="font-size:11px;font-family:Helvetica, sans-Serif;text-anchor:start"
           id="text4326"
           font-size="11.00"
           y="-44.299999"
           x="72.110497">0 rows</text>
        <polygon
           style="fill:#f7f7f7;stroke:none"
           id="polygon4328"
           points="107.5,-57.2 134.5,-57.2 134.5,-38.2 107.5,-38.2 107.5,-38.2 " />
        <polygon
           style="fill:none;stroke:#000000"
           id="polygon4330"
           points="107.5,-57.2 134.5,-57.2 134.5,-38.2 107.5,-38.2 107.5,-38.2 " />
        <text
           style="font-size:11px;font-family:Helvetica, sans-Serif;text-anchor:start"
           id="text4332"
           font-size="11.00"
           y="-44.299999"
           x="115.905">2 &gt;</text>
      </a>
    </g>
  </g>
  <g
     class="edge"
     id="edge6"
     transform="translate(4,755.7)">
    <title
       id="title4335">observation:taxon_id:w-&gt;taxon:taxon_id:e</title>
    <path
       style="fill:none;stroke:#000000"
       inkscape:connector-curvature="0"
       id="path4337"
       d="m 205.749,-464.794 c -43.661,32.044 -33.35963,162.19222 -24.87788,244.98756 2.45048,23.92059 -4.70832,63.48791 36.83832,75.73188"
       sodipodi:nodetypes="csc" />
    <polygon
       style="fill:#000000;stroke:#000000"
       id="polygon4339"
       points="215.691,-467.979 219.5,-469.2 219.5,-469.2 219.5,-469.2 215.691,-467.979 220.598,-465.772 211.881,-466.759 211.881,-466.759 211.881,-466.759 218.402,-472.628 " />
    <circle
       style="fill:none;stroke:#000000"
       r="3.2000101"
       id="ellipse4341"
       cy="-465.78299"
       cx="208.834" />
  </g>
  <g
     class="node"
     id="node6"
     transform="translate(-208.2502,934.11267)">
    <title
       id="title4344">observation_ancillary</title>
    <g
       id="a_node6">
      <a
         xlink:href="tables/observation_ancillary.html"
         xlink:title="observation_ancillary"
         id="a4347">
        <polygon
           style="fill:#ffffff;stroke:none"
           id="polygon4349"
           points="337,-614.7 214,-614.7 214,-614.7 214,-747.7 337,-747.7 " />
        <polygon
           style="fill:#9bab96;stroke:none"
           id="polygon4351"
           points="337.5,-728.2 214.5,-728.2 214.5,-728.2 214.5,-747.2 337.5,-747.2 " />
        <polygon
           style="fill:none;stroke:#000000"
           id="polygon4353"
           points="337.5,-728.2 214.5,-728.2 214.5,-728.2 214.5,-747.2 337.5,-747.2 " />
        <text
           style="font-size:11px;font-family:Helvetica, sans-Serif;text-anchor:start"
           id="text4355"
           font-size="11.00"
           y="-734.29999"
           x="224.353">observation_ancillary</text>
        <polygon
           style="fill:#bed1b8;stroke:none"
           id="polygon4357"
           points="337.5,-709.2 214.5,-709.2 214.5,-709.2 214.5,-728.2 337.5,-728.2 " />
        <polygon
           style="fill:none;stroke:#000000"
           id="polygon4359"
           points="337.5,-709.2 214.5,-709.2 214.5,-709.2 214.5,-728.2 337.5,-728.2 " />
        <text
           style="font-size:11px;font-family:Helvetica, sans-Serif;text-anchor:start"
           id="text4361"
           font-size="11.00"
           y="-715.29999"
           x="217.01801">observation_ancillary_id</text>
        <polygon
           style="fill:#f4f7da;stroke:none"
           id="polygon4363"
           points="337.5,-690.2 214.5,-690.2 214.5,-690.2 214.5,-709.2 337.5,-709.2 " />
        <polygon
           style="fill:none;stroke:#000000"
           id="polygon4365"
           points="337.5,-690.2 214.5,-690.2 214.5,-690.2 214.5,-709.2 337.5,-709.2 " />
        <text
           style="font-size:11px;font-family:Helvetica, sans-Serif;text-anchor:start"
           id="text4367"
           font-size="11.00"
           y="-696.29999"
           x="217.5">event_id</text>
        <polygon
           style="fill:#f4f7da;stroke:none"
           id="polygon4369"
           points="337.5,-671.2 214.5,-671.2 214.5,-671.2 214.5,-690.2 337.5,-690.2 " />
        <polygon
           style="fill:none;stroke:#000000"
           id="polygon4371"
           points="337.5,-671.2 214.5,-671.2 214.5,-671.2 214.5,-690.2 337.5,-690.2 " />
        <text
           style="font-size:11px;font-family:Helvetica, sans-Serif;text-anchor:start"
           id="text4373"
           font-size="11.00"
           y="-677.29999"
           x="217.5">variable_name</text>
        <polygon
           style="fill:none;stroke:#000000"
           id="polygon4375"
           points="337.5,-652.2 214.5,-652.2 214.5,-652.2 214.5,-671.2 337.5,-671.2 " />
        <text
           style="font-size:11px;font-family:Helvetica, sans-Serif;text-anchor:start"
           id="text4377"
           font-size="11.00"
           y="-658.29999"
           x="217.5">value</text>
        <polygon
           style="fill:none;stroke:#000000"
           id="polygon4379"
           points="337.5,-633.2 214.5,-633.2 214.5,-633.2 214.5,-652.2 337.5,-652.2 " />
        <text
           style="font-size:11px;font-family:Helvetica, sans-Serif;text-anchor:start"
           id="text4381"
           font-size="11.00"
           y="-639.29999"
           x="217.5">unit</text>
        <polygon
           style="fill:#f7f7f7;stroke:none"
           id="polygon4383"
           points="261.5,-614.2 214.5,-614.2 214.5,-614.2 214.5,-633.2 261.5,-633.2 " />
        <polygon
           style="fill:none;stroke:#000000"
           id="polygon4385"
           points="261.5,-614.2 214.5,-614.2 214.5,-614.2 214.5,-633.2 261.5,-633.2 " />
        <text
           style="font-size:11px;font-family:Helvetica, sans-Serif;text-anchor:start"
           id="text4387"
           font-size="11.00"
           y="-620.29999"
           x="217.5">&lt; 1</text>
        <polygon
           style="fill:#f7f7f7;stroke:none"
           id="polygon4389"
           points="312.5,-614.2 261.5,-614.2 261.5,-614.2 261.5,-633.2 312.5,-633.2 " />
        <polygon
           style="fill:none;stroke:#000000"
           id="polygon4391"
           points="312.5,-614.2 261.5,-614.2 261.5,-614.2 261.5,-633.2 312.5,-633.2 " />
        <text
           style="font-size:11px;font-family:Helvetica, sans-Serif;text-anchor:start"
           id="text4393"
           font-size="11.00"
           y="-620.29999"
           x="277.11099">0 rows</text>
        <polygon
           style="fill:#f7f7f7;stroke:none"
           id="polygon4395"
           points="337.5,-614.2 312.5,-614.2 312.5,-614.2 312.5,-633.2 337.5,-633.2 " />
        <polygon
           style="fill:none;stroke:#000000"
           id="polygon4397"
           points="337.5,-614.2 312.5,-614.2 312.5,-614.2 312.5,-633.2 337.5,-633.2 " />
        <text
           style="font-size:11px;font-family:Helvetica, sans-Serif;text-anchor:start"
           id="text4399"
           font-size="11.00"
           y="-620.29999"
           x="328.38599"> </text>
      </a>
    </g>
  </g>
  <g
     class="edge"
     id="edge7"
     transform="matrix(-0.87497177,0,0,-0.94840611,317.00373,-428.05504)">
    <title
       id="title4402">observation_ancillary:event_id:w-&gt;event:event_id:e</title>
    <path
       style="fill:none;stroke:#000000;stroke-width:1.00027529;stroke-miterlimit:4;stroke-dasharray:3.00082587,3.00082587;stroke-dashoffset:0"
       inkscape:connector-curvature="0"
       id="path4404"
       d="m 198.948,-699.02807 c -31.28654,-0.10417 -38.54129,29.10966 -76.53329,29.10966"
       sodipodi:nodetypes="cc" />
    <polygon
       style="fill:#000000;stroke:#000000"
       id="polygon4406"
       points="213.5,-700.2 209.525,-699.754 213.901,-696.622 205.55,-699.308 205.55,-699.308 205.55,-699.308 213.099,-703.778 209.525,-699.754 213.5,-700.2 213.5,-700.2 " />
    <circle
       style="fill:none;stroke:#000000"
       r="3.2"
       id="ellipse4408"
       cy="-698.95099"
       cx="202.37" />
  </g>
  <g
     class="node"
     id="node8"
     transform="translate(-179.23774,756.42543)">
    <title
       id="title4411">taxon_ancillary</title>
    <g
       id="a_node8">
      <a
         xlink:href="tables/taxon_ancillary.html"
         xlink:title="taxon_ancillary"
         id="a4414">
        <polygon
           style="fill:#ffffff;stroke:none"
           id="polygon4416"
           points="228.5,-38.2 228.5,-190.2 322.5,-190.2 322.5,-38.2 228.5,-38.2 " />
        <polygon
           style="fill:#9bab96;stroke:none"
           id="polygon4418"
           points="228.5,-171.2 228.5,-190.2 322.5,-190.2 322.5,-171.2 228.5,-171.2 " />
        <polygon
           style="fill:none;stroke:#000000"
           id="polygon4420"
           points="228.5,-171.2 228.5,-190.2 322.5,-190.2 322.5,-171.2 228.5,-171.2 " />
        <text
           style="font-size:11px;font-family:Helvetica, sans-Serif;text-anchor:start"
           id="text4422"
           font-size="11.00"
           y="-177.3"
           x="238.827">taxon_ancillary</text>
        <polygon
           style="fill:#bed1b8;stroke:none"
           id="polygon4424"
           points="228.5,-152.2 228.5,-171.2 322.5,-171.2 322.5,-152.2 228.5,-152.2 " />
        <polygon
           style="fill:none;stroke:#000000"
           id="polygon4426"
           points="228.5,-152.2 228.5,-171.2 322.5,-171.2 322.5,-152.2 228.5,-152.2 " />
        <text
           style="font-size:11px;font-family:Helvetica, sans-Serif;text-anchor:start"
           id="text4428"
           font-size="11.00"
           y="-158.3"
           x="231.492">taxon_ancillary_id</text>
        <polygon
           style="fill:#f4f7da;stroke:none"
           id="polygon4430"
           points="228.5,-133.2 228.5,-152.2 322.5,-152.2 322.5,-133.2 228.5,-133.2 " />
        <polygon
           style="fill:none;stroke:#000000"
           id="polygon4432"
           points="228.5,-133.2 228.5,-152.2 322.5,-152.2 322.5,-133.2 228.5,-133.2 " />
        <text
           style="font-size:11px;font-family:Helvetica, sans-Serif;text-anchor:start"
           id="text4434"
           font-size="11.00"
           y="-139.3"
           x="231.5">taxon_id</text>
        <polygon
           style="fill:#f4f7da;stroke:none"
           id="polygon4436"
           points="228.5,-114.2 228.5,-133.2 322.5,-133.2 322.5,-114.2 228.5,-114.2 " />
        <polygon
           style="fill:none;stroke:#000000"
           id="polygon4438"
           points="228.5,-114.2 228.5,-133.2 322.5,-133.2 322.5,-114.2 228.5,-114.2 " />
        <text
           style="font-size:11px;font-family:Helvetica, sans-Serif;text-anchor:start"
           id="text4440"
           font-size="11.00"
           y="-120.3"
           x="231.5">datetime</text>
        <polygon
           style="fill:#f4f7da;stroke:none"
           id="polygon4442"
           points="228.5,-95.2 228.5,-114.2 322.5,-114.2 322.5,-95.2 228.5,-95.2 " />
        <polygon
           style="fill:none;stroke:#000000"
           id="polygon4444"
           points="228.5,-95.2 228.5,-114.2 322.5,-114.2 322.5,-95.2 228.5,-95.2 " />
        <text
           style="font-size:11px;font-family:Helvetica, sans-Serif;text-anchor:start"
           id="text4446"
           font-size="11.00"
           y="-101.3"
           x="231.5">variable_name</text>
        <polygon
           style="fill:none;stroke:#000000"
           id="polygon4448"
           points="228.5,-76.2 228.5,-95.2 322.5,-95.2 322.5,-76.2 228.5,-76.2 " />
        <text
           style="font-size:11px;font-family:Helvetica, sans-Serif;text-anchor:start"
           id="text4450"
           font-size="11.00"
           y="-82.300003"
           x="231.5">value</text>
        <polygon
           style="fill:none;stroke:#000000"
           id="polygon4452"
           points="228.5,-57.2 228.5,-76.2 322.5,-76.2 322.5,-57.2 228.5,-57.2 " />
        <text
           style="font-size:11px;font-family:Helvetica, sans-Serif;text-anchor:start"
           id="text4454"
           font-size="11.00"
           y="-63.299999"
           x="231.5">author</text>
        <polygon
           style="fill:#f7f7f7;stroke:none"
           id="polygon4456"
           points="228.5,-38.2 228.5,-57.2 260.5,-57.2 260.5,-38.2 228.5,-38.2 " />
        <polygon
           style="fill:none;stroke:#000000"
           id="polygon4458"
           points="228.5,-38.2 228.5,-57.2 260.5,-57.2 260.5,-38.2 228.5,-38.2 " />
        <text
           style="font-size:11px;font-family:Helvetica, sans-Serif;text-anchor:start"
           id="text4460"
           font-size="11.00"
           y="-44.299999"
           x="231.5">&lt; 1</text>
        <polygon
           style="fill:#f7f7f7;stroke:none"
           id="polygon4462"
           points="260.5,-38.2 260.5,-57.2 304.5,-57.2 304.5,-38.2 260.5,-38.2 " />
        <polygon
           style="fill:none;stroke:#000000"
           id="polygon4464"
           points="260.5,-38.2 260.5,-57.2 304.5,-57.2 304.5,-38.2 260.5,-38.2 " />
        <text
           style="font-size:11px;font-family:Helvetica, sans-Serif;text-anchor:start"
           id="text4466"
           font-size="11.00"
           y="-44.299999"
           x="269.11099">0 rows</text>
        <polygon
           style="fill:#f7f7f7;stroke:none"
           id="polygon4468"
           points="304.5,-38.2 304.5,-57.2 322.5,-57.2 322.5,-38.2 304.5,-38.2 " />
        <polygon
           style="fill:none;stroke:#000000"
           id="polygon4470"
           points="304.5,-38.2 304.5,-57.2 322.5,-57.2 322.5,-38.2 304.5,-38.2 " />
        <text
           style="font-size:11px;font-family:Helvetica, sans-Serif;text-anchor:start"
           id="text4472"
           font-size="11.00"
           y="-44.299999"
           x="313.38599"> </text>
      </a>
    </g>
  </g>
  <g
     class="edge"
     id="edge8"
     transform="matrix(-0.83314881,0,0,1.0066611,333.72138,758.25387)">
    <title
       id="title4475">taxon_ancillary:taxon_id:w-&gt;taxon:taxon_id:e</title>
    <path
       style="fill:none;stroke:#000000"
       inkscape:connector-curvature="0"
       id="path4477"
       d="m 213.085,-143.2 c -29.619,0 -41.967,0 -77.585,0" />
    <polygon
       style="fill:#000000;stroke:#000000"
       id="polygon4479"
       points="227.5,-139.6 219.5,-143.2 219.5,-143.2 219.5,-143.2 227.5,-146.8 223.5,-143.2 227.5,-143.2 227.5,-143.2 227.5,-143.2 223.5,-143.2 " />
    <circle
       style="fill:none;stroke:#000000"
       r="3.2"
       id="ellipse4481"
       cy="-143.2"
       cx="216.3" />
  </g>
</svg>
