<?xml version="1.0" encoding="UTF-8" standalone="no"?>
<!-- Generated by graphviz version 2.38.0 (20140413.2041)
 -->

<!-- Title: largeRelationshipsDiagram Pages: 1 -->

<svg
   xmlns:dc="http://purl.org/dc/elements/1.1/"
   xmlns:cc="http://creativecommons.org/ns#"
   xmlns:rdf="http://www.w3.org/1999/02/22-rdf-syntax-ns#"
   xmlns:svg="http://www.w3.org/2000/svg"
   xmlns="http://www.w3.org/2000/svg"
   xmlns:xlink="http://www.w3.org/1999/xlink"
   xmlns:sodipodi="http://sodipodi.sourceforge.net/DTD/sodipodi-0.dtd"
   xmlns:inkscape="http://www.inkscape.org/namespaces/inkscape"
   width="513pt"
   height="606pt"
   viewBox="0.00 0.00 513.00 605.70"
   id="svg3875"
   version="1.1"
   inkscape:version="0.91 r13725"
   sodipodi:docname="relationships.real.large_temp2.svg"
   inkscape:export-filename="/Users/mob/schemaSpy/edi/ecocom_dp/diagrams/summary/7_tables.png"
   inkscape:export-xdpi="90"
   inkscape:export-ydpi="90">
  <metadata
     id="metadata4377">
    <rdf:RDF>
      <cc:Work
         rdf:about="">
        <dc:format>image/svg+xml</dc:format>
        <dc:type
           rdf:resource="http://purl.org/dc/dcmitype/StillImage" />
      </cc:Work>
    </rdf:RDF>
  </metadata>
  <defs
     id="defs4375" />
  <sodipodi:namedview
     pagecolor="#ffffff"
     bordercolor="#666666"
     borderopacity="1"
     objecttolerance="10"
     gridtolerance="10"
     guidetolerance="10"
     inkscape:pageopacity="0"
     inkscape:pageshadow="2"
     inkscape:window-width="1672"
     inkscape:window-height="945"
     id="namedview4373"
     showgrid="false"
     inkscape:zoom="0.81118917"
     inkscape:cx="320.625"
     inkscape:cy="428.06032"
     inkscape:window-x="133"
     inkscape:window-y="11"
     inkscape:window-maximized="0"
     inkscape:current-layer="svg3875" />
  <g
     class="node"
     id="node1"
     transform="translate(4,601.7)">
    <title
       id="title3885">dataset_summary</title>
    <g
       id="a_node1">
      <a
         xlink:href="tables/dataset_summary.html"
         xlink:title="dataset_summary"
         id="a3888">
        <polygon
           style="fill:#ffffff;stroke:none"
           id="polygon3890"
           points="165,-555.7 165,-384.7 8,-384.7 8,-384.7 8,-555.7 " />
        <polygon
           style="fill:#9bab96;stroke:none"
           id="polygon3892"
           points="165.5,-555.2 165.5,-536.2 8.5,-536.2 8.5,-536.2 8.5,-555.2 " />
        <polygon
           style="fill:none;stroke:#000000"
           id="polygon3894"
           points="165.5,-555.2 165.5,-536.2 8.5,-536.2 8.5,-536.2 8.5,-555.2 " />
        <text
           style="font-size:11px;font-family:Helvetica, sans-Serif;text-anchor:start"
           id="text3896"
           font-size="11.00"
           y="-542.29999"
           x="43.2981">dataset_summary</text>
        <polygon
           style="fill:#bed1b8;stroke:none"
           id="polygon3898"
           points="165.5,-536.2 165.5,-517.2 8.5,-517.2 8.5,-517.2 8.5,-536.2 " />
        <polygon
           style="fill:none;stroke:#000000"
           id="polygon3900"
           points="165.5,-536.2 165.5,-517.2 8.5,-517.2 8.5,-517.2 8.5,-536.2 " />
        <text
           style="font-size:11px;font-family:Helvetica, sans-Serif;text-anchor:start"
           id="text3902"
           font-size="11.00"
           y="-523.29999"
           x="11.5">package_id</text>
        <polygon
           style="fill:none;stroke:#000000"
           id="polygon3904"
           points="165.5,-517.2 165.5,-498.2 8.5,-498.2 8.5,-498.2 8.5,-517.2 " />
        <text
           style="font-size:11px;font-family:Helvetica, sans-Serif;text-anchor:start"
           id="text3906"
           font-size="11.00"
           y="-504.29999"
           x="11.5">original_package_id</text>
        <polygon
           style="fill:none;stroke:#000000"
           id="polygon3908"
           points="165.5,-498.2 165.5,-479.2 8.5,-479.2 8.5,-479.2 8.5,-498.2 " />
        <text
           style="font-size:11px;font-family:Helvetica, sans-Serif;text-anchor:start"
           id="text3910"
           font-size="11.00"
           y="-485.29999"
           x="11.5">length_of_survey_years</text>
        <polygon
           style="fill:none;stroke:#000000"
           id="polygon3912"
           points="165.5,-479.2 165.5,-460.2 8.5,-460.2 8.5,-460.2 8.5,-479.2 " />
        <text
           style="font-size:11px;font-family:Helvetica, sans-Serif;text-anchor:start"
           id="text3914"
           font-size="11.00"
           y="-466.29999"
           x="11.5">number_of_years_sampled</text>
        <polygon
           style="fill:none;stroke:#000000"
           id="polygon3916"
           points="165.5,-460.2 165.5,-441.2 8.5,-441.2 8.5,-441.2 8.5,-460.2 " />
        <text
           style="font-size:11px;font-family:Helvetica, sans-Serif;text-anchor:start"
           id="text3918"
           font-size="11.00"
           y="-447.29999"
           x="11.5">std_dev_interval_betw_years</text>
        <polygon
           style="fill:none;stroke:#000000"
           id="polygon3920"
           points="165.5,-441.2 165.5,-422.2 8.5,-422.2 8.5,-422.2 8.5,-441.2 " />
        <text
           style="font-size:11px;font-family:Helvetica, sans-Serif;text-anchor:start"
           id="text3922"
           font-size="11.00"
           y="-428.29999"
           x="11.5">max_num_taxa</text>
        <polygon
           style="fill:none;stroke:#000000"
           id="polygon3924"
           points="165.5,-422.2 165.5,-403.2 8.5,-403.2 8.5,-403.2 8.5,-422.2 " />
        <text
           style="font-size:11px;font-family:Helvetica, sans-Serif;text-anchor:start"
           id="text3926"
           font-size="11.00"
           y="-409.29999"
           x="11.4927">geo_extent_bounding_box_m2</text>
        <polygon
           style="fill:#f7f7f7;stroke:none"
           id="polygon3928"
           points="63.5,-403.2 63.5,-384.2 8.5,-384.2 8.5,-384.2 8.5,-403.2 " />
        <polygon
           style="fill:none;stroke:#000000"
           id="polygon3930"
           points="63.5,-403.2 63.5,-384.2 8.5,-384.2 8.5,-384.2 8.5,-403.2 " />
        <text
           style="font-size:11px;font-family:Helvetica, sans-Serif;text-anchor:start"
           id="text3932"
           font-size="11.00"
           y="-390.29999"
           x="11.5"> </text>
        <polygon
           style="fill:#f7f7f7;stroke:none"
           id="polygon3934"
           points="122.5,-403.2 122.5,-384.2 63.5,-384.2 63.5,-384.2 63.5,-403.2 " />
        <polygon
           style="fill:none;stroke:#000000"
           id="polygon3936"
           points="122.5,-403.2 122.5,-384.2 63.5,-384.2 63.5,-384.2 63.5,-403.2 " />
        <text
           style="font-size:11px;font-family:Helvetica, sans-Serif;text-anchor:start"
           id="text3938"
           font-size="11.00"
           y="-390.29999"
           x="87.110497">0 rows</text>
        <polygon
           style="fill:#f7f7f7;stroke:none"
           id="polygon3940"
           points="165.5,-403.2 165.5,-384.2 122.5,-384.2 122.5,-384.2 122.5,-403.2 " />
        <polygon
           style="fill:none;stroke:#000000"
           id="polygon3942"
           points="165.5,-403.2 165.5,-384.2 122.5,-384.2 122.5,-384.2 122.5,-403.2 " />
        <text
           style="font-size:11px;font-family:Helvetica, sans-Serif;text-anchor:start"
           id="text3944"
           font-size="11.00"
           y="-390.29999"
           x="146.905">1 &gt;</text>
      </a>
    </g>
  </g>
  <g
     class="node"
     id="node2"
     transform="translate(186.4,601.7)">
    <title
       id="title3947">location</title>
    <g
       id="a_node2">
      <a
         xlink:href="tables/location.html"
         xlink:title="location"
         id="a3950">
        <polygon
           style="fill:#ffffff;stroke:none"
           id="polygon3952"
           points="134,-193.2 39,-193.2 39,-193.2 39,-345.2 134,-345.2 " />
        <polygon
           style="fill:#9bab96;stroke:none"
           id="polygon3954"
           points="134.5,-326.2 39.5,-326.2 39.5,-326.2 39.5,-345.2 134.5,-345.2 " />
        <polygon
           style="fill:none;stroke:#000000"
           id="polygon3956"
           points="134.5,-326.2 39.5,-326.2 39.5,-326.2 39.5,-345.2 134.5,-345.2 " />
        <text
           style="font-size:11px;font-family:Helvetica, sans-Serif;text-anchor:start"
           id="text3958"
           font-size="11.00"
           y="-332.29999"
           x="68.050797">location</text>
        <polygon
           style="fill:#bed1b8;stroke:none"
           id="polygon3960"
           points="134.5,-307.2 39.5,-307.2 39.5,-307.2 39.5,-326.2 134.5,-326.2 " />
        <polygon
           style="fill:none;stroke:#000000"
           id="polygon3962"
           points="134.5,-307.2 39.5,-307.2 39.5,-307.2 39.5,-326.2 134.5,-326.2 " />
        <text
           style="font-size:11px;font-family:Helvetica, sans-Serif;text-anchor:start"
           id="text3964"
           font-size="11.00"
           y="-313.29999"
           x="42.5">location_id</text>
        <polygon
           style="fill:none;stroke:#000000"
           id="polygon3966"
           points="134.5,-288.2 39.5,-288.2 39.5,-288.2 39.5,-307.2 134.5,-307.2 " />
        <text
           style="font-size:11px;font-family:Helvetica, sans-Serif;text-anchor:start"
           id="text3968"
           font-size="11.00"
           y="-294.29999"
           x="42.5">location_name</text>
        <polygon
           style="fill:none;stroke:#000000"
           id="polygon3970"
           points="134.5,-269.2 39.5,-269.2 39.5,-269.2 39.5,-288.2 134.5,-288.2 " />
        <text
           style="font-size:11px;font-family:Helvetica, sans-Serif;text-anchor:start"
           id="text3972"
           font-size="11.00"
           y="-275.29999"
           x="42.5">latitude</text>
        <polygon
           style="fill:none;stroke:#000000"
           id="polygon3974"
           points="134.5,-250.2 39.5,-250.2 39.5,-250.2 39.5,-269.2 134.5,-269.2 " />
        <text
           style="font-size:11px;font-family:Helvetica, sans-Serif;text-anchor:start"
           id="text3976"
           font-size="11.00"
           y="-256.29999"
           x="42.5">longitude</text>
        <polygon
           style="fill:none;stroke:#000000"
           id="polygon3978"
           points="134.5,-231.2 39.5,-231.2 39.5,-231.2 39.5,-250.2 134.5,-250.2 " />
        <text
           style="font-size:11px;font-family:Helvetica, sans-Serif;text-anchor:start"
           id="text3980"
           font-size="11.00"
           y="-237.3"
           x="42.5">elevation</text>
        <polygon
           style="fill:none;stroke:#000000"
           id="polygon3982"
           points="134.5,-212.2 39.5,-212.2 39.5,-212.2 39.5,-231.2 134.5,-231.2 " />
        <text
           style="font-size:11px;font-family:Helvetica, sans-Serif;text-anchor:start"
           id="text3984"
           font-size="11.00"
           y="-218.3"
           x="42.068802">parent_location_id</text>
        <polygon
           style="fill:#f7f7f7;stroke:none"
           id="polygon3986"
           points="67.5,-193.2 39.5,-193.2 39.5,-193.2 39.5,-212.2 67.5,-212.2 " />
        <polygon
           style="fill:none;stroke:#000000"
           id="polygon3988"
           points="67.5,-193.2 39.5,-193.2 39.5,-193.2 39.5,-212.2 67.5,-212.2 " />
        <text
           style="font-size:11px;font-family:Helvetica, sans-Serif;text-anchor:start"
           id="text3990"
           font-size="11.00"
           y="-199.3"
           x="42.5">&lt; 1</text>
        <polygon
           style="fill:#f7f7f7;stroke:none"
           id="polygon3992"
           points="109.5,-193.2 67.5,-193.2 67.5,-193.2 67.5,-212.2 109.5,-212.2 " />
        <polygon
           style="fill:none;stroke:#000000"
           id="polygon3994"
           points="109.5,-193.2 67.5,-193.2 67.5,-193.2 67.5,-212.2 109.5,-212.2 " />
        <text
           style="font-size:11px;font-family:Helvetica, sans-Serif;text-anchor:start"
           id="text3996"
           font-size="11.00"
           y="-199.3"
           x="74.110497">0 rows</text>
        <polygon
           style="fill:#f7f7f7;stroke:none"
           id="polygon3998"
           points="134.5,-193.2 109.5,-193.2 109.5,-193.2 109.5,-212.2 134.5,-212.2 " />
        <polygon
           style="fill:none;stroke:#000000"
           id="polygon4000"
           points="134.5,-193.2 109.5,-193.2 109.5,-193.2 109.5,-212.2 134.5,-212.2 " />
        <text
           style="font-size:11px;font-family:Helvetica, sans-Serif;text-anchor:start"
           id="text4002"
           font-size="11.00"
           y="-199.3"
           x="115.905">3 &gt;</text>
      </a>
    </g>
  </g>
  <g
     class="edge"
     id="edge1"
     transform="translate(186.4,601.7)">
    <title
       id="title4005">location:parent_location_id:w-&gt;location:location_id:e</title>
    <path
       style="fill:none;stroke:#000000"
       inkscape:connector-curvature="0"
       id="path4007"
       d="M 28.5896,-231.076 C -5.2816,-270.686 2.17383,-362.2 87,-362.2 c 93,0 93,14 47.5,45" />
    <polygon
       style="fill:#000000;stroke:#000000"
       id="polygon4009"
       points="39.5,-221.2 39.5,-221.2 39.5,-221.2 36.5345,-223.884 37.084,-218.531 33.569,-226.569 33.569,-226.569 33.569,-226.569 41.916,-223.869 36.5345,-223.884 " />
    <circle
       style="fill:none;stroke:#000000"
       r="3.2000101"
       id="ellipse4011"
       cy="-228.716"
       cx="31.196699" />
  </g>
  <g
     class="node"
     id="node3"
     transform="translate(186.4,601.7)">
    <title
       id="title4014">location_ancillary</title>
    <g
       id="a_node3">
      <a
         xlink:href="tables/location_ancillary.html"
         xlink:title="location_ancillary"
         id="a4017">
        <polygon
           style="fill:#ffffff;stroke:none"
           id="polygon4019"
           points="322,-211.2 217,-211.2 217,-211.2 217,-363.2 322,-363.2 " />
        <polygon
           style="fill:#9bab96;stroke:none"
           id="polygon4021"
           points="322.5,-344.2 217.5,-344.2 217.5,-344.2 217.5,-363.2 322.5,-363.2 " />
        <polygon
           style="fill:none;stroke:#000000"
           id="polygon4023"
           points="322.5,-344.2 217.5,-344.2 217.5,-344.2 217.5,-363.2 322.5,-363.2 " />
        <text
           style="font-size:11px;font-family:Helvetica, sans-Serif;text-anchor:start"
           id="text4025"
           font-size="11.00"
           y="-350.29999"
           x="227.82899">location_ancillary</text>
        <polygon
           style="fill:#bed1b8;stroke:none"
           id="polygon4027"
           points="322.5,-325.2 217.5,-325.2 217.5,-325.2 217.5,-344.2 322.5,-344.2 " />
        <polygon
           style="fill:none;stroke:#000000"
           id="polygon4029"
           points="322.5,-325.2 217.5,-325.2 217.5,-325.2 217.5,-344.2 322.5,-344.2 " />
        <text
           style="font-size:11px;font-family:Helvetica, sans-Serif;text-anchor:start"
           id="text4031"
           font-size="11.00"
           y="-331.29999"
           x="220.493">location_ancillary_id</text>
        <polygon
           style="fill:#f4f7da;stroke:none"
           id="polygon4033"
           points="322.5,-306.2 217.5,-306.2 217.5,-306.2 217.5,-325.2 322.5,-325.2 " />
        <polygon
           style="fill:none;stroke:#000000"
           id="polygon4035"
           points="322.5,-306.2 217.5,-306.2 217.5,-306.2 217.5,-325.2 322.5,-325.2 " />
        <text
           style="font-size:11px;font-family:Helvetica, sans-Serif;text-anchor:start"
           id="text4037"
           font-size="11.00"
           y="-312.29999"
           x="220.5">location_id</text>
        <polygon
           style="fill:#f4f7da;stroke:none"
           id="polygon4039"
           points="322.5,-287.2 217.5,-287.2 217.5,-287.2 217.5,-306.2 322.5,-306.2 " />
        <polygon
           style="fill:none;stroke:#000000"
           id="polygon4041"
           points="322.5,-287.2 217.5,-287.2 217.5,-287.2 217.5,-306.2 322.5,-306.2 " />
        <text
           style="font-size:11px;font-family:Helvetica, sans-Serif;text-anchor:start"
           id="text4043"
           font-size="11.00"
           y="-293.29999"
           x="220.5">datetime</text>
        <polygon
           style="fill:#f4f7da;stroke:none"
           id="polygon4045"
           points="322.5,-268.2 217.5,-268.2 217.5,-268.2 217.5,-287.2 322.5,-287.2 " />
        <polygon
           style="fill:none;stroke:#000000"
           id="polygon4047"
           points="322.5,-268.2 217.5,-268.2 217.5,-268.2 217.5,-287.2 322.5,-287.2 " />
        <text
           style="font-size:11px;font-family:Helvetica, sans-Serif;text-anchor:start"
           id="text4049"
           font-size="11.00"
           y="-274.29999"
           x="220.5">variable_name</text>
        <polygon
           style="fill:none;stroke:#000000"
           id="polygon4051"
           points="322.5,-249.2 217.5,-249.2 217.5,-249.2 217.5,-268.2 322.5,-268.2 " />
        <text
           style="font-size:11px;font-family:Helvetica, sans-Serif;text-anchor:start"
           id="text4053"
           font-size="11.00"
           y="-255.3"
           x="220.5">value</text>
        <polygon
           style="fill:none;stroke:#000000"
           id="polygon4055"
           points="322.5,-230.2 217.5,-230.2 217.5,-230.2 217.5,-249.2 322.5,-249.2 " />
        <text
           style="font-size:11px;font-family:Helvetica, sans-Serif;text-anchor:start"
           id="text4057"
           font-size="11.00"
           y="-236.3"
           x="220.5">unit</text>
        <polygon
           style="fill:#f7f7f7;stroke:none"
           id="polygon4059"
           points="255.5,-211.2 217.5,-211.2 217.5,-211.2 217.5,-230.2 255.5,-230.2 " />
        <polygon
           style="fill:none;stroke:#000000"
           id="polygon4061"
           points="255.5,-211.2 217.5,-211.2 217.5,-211.2 217.5,-230.2 255.5,-230.2 " />
        <text
           style="font-size:11px;font-family:Helvetica, sans-Serif;text-anchor:start"
           id="text4063"
           font-size="11.00"
           y="-217.3"
           x="220.5">&lt; 1</text>
        <polygon
           style="fill:#f7f7f7;stroke:none"
           id="polygon4065"
           points="301.5,-211.2 255.5,-211.2 255.5,-211.2 255.5,-230.2 301.5,-230.2 " />
        <polygon
           style="fill:none;stroke:#000000"
           id="polygon4067"
           points="301.5,-211.2 255.5,-211.2 255.5,-211.2 255.5,-230.2 301.5,-230.2 " />
        <text
           style="font-size:11px;font-family:Helvetica, sans-Serif;text-anchor:start"
           id="text4069"
           font-size="11.00"
           y="-217.3"
           x="266.11099">0 rows</text>
        <polygon
           style="fill:#f7f7f7;stroke:none"
           id="polygon4071"
           points="322.5,-211.2 301.5,-211.2 301.5,-211.2 301.5,-230.2 322.5,-230.2 " />
        <polygon
           style="fill:none;stroke:#000000"
           id="polygon4073"
           points="322.5,-211.2 301.5,-211.2 301.5,-211.2 301.5,-230.2 322.5,-230.2 " />
        <text
           style="font-size:11px;font-family:Helvetica, sans-Serif;text-anchor:start"
           id="text4075"
           font-size="11.00"
           y="-217.3"
           x="313.38599"> </text>
      </a>
    </g>
  </g>
  <g
     class="edge"
     id="edge2"
     transform="translate(186.4,601.7)">
    <title
       id="title4078">location_ancillary:location_id:w-&gt;location:location_id:e</title>
    <path
       style="fill:none;stroke:#000000"
       inkscape:connector-curvature="0"
       id="path4080"
       d="m 202.076,-316.26 c -24.844,-0.215 -35.917,-0.94 -66.576,-0.94" />
    <polygon
       style="fill:#000000;stroke:#000000"
       id="polygon4082"
       points="216.5,-316.2 216.5,-316.2 216.5,-316.2 212.5,-316.217 216.485,-312.6 208.5,-316.233 208.5,-316.233 208.5,-316.233 216.515,-319.8 212.5,-316.217 " />
    <circle
       style="fill:none;stroke:#000000"
       r="3.2"
       id="ellipse4084"
       cy="-316.246"
       cx="205.3" />
  </g>
  <g
     class="node"
     id="node4"
     transform="translate(4,601.7)">
    <title
       id="title4087">observation</title>
    <g
       id="a_node4">
      <a
         xlink:href="tables/observation.html"
         xlink:title="observation"
         id="a4090">
        <polygon
           style="fill:#ffffff;stroke:none"
           id="polygon4092"
           points="325,-574.2 325,-384.2 214,-384.2 214,-384.2 214,-574.2 " />
        <polygon
           style="fill:#9bab96;stroke:none"
           id="polygon4094"
           points="325.5,-574.2 325.5,-555.2 214.5,-555.2 214.5,-555.2 214.5,-574.2 " />
        <polygon
           style="fill:none;stroke:#000000"
           id="polygon4096"
           points="325.5,-574.2 325.5,-555.2 214.5,-555.2 214.5,-555.2 214.5,-574.2 " />
        <text
           style="font-size:11px;font-family:Helvetica, sans-Serif;text-anchor:start"
           id="text4098"
           font-size="11.00"
           y="-561.29999"
           x="241.575">observation</text>
        <polygon
           style="fill:#bed1b8;stroke:none"
           id="polygon4100"
           points="325.5,-555.2 325.5,-536.2 214.5,-536.2 214.5,-536.2 214.5,-555.2 " />
        <polygon
           style="fill:none;stroke:#000000"
           id="polygon4102"
           points="325.5,-555.2 325.5,-536.2 214.5,-536.2 214.5,-536.2 214.5,-555.2 " />
        <text
           style="font-size:11px;font-family:Helvetica, sans-Serif;text-anchor:start"
           id="text4104"
           font-size="11.00"
           y="-542.29999"
           x="217.5">observation_id</text>
        <polygon
           style="fill:none;stroke:#000000"
           id="polygon4106"
           points="325.5,-536.2 325.5,-517.2 214.5,-517.2 214.5,-517.2 214.5,-536.2 " />
        <text
           style="font-size:11px;font-family:Helvetica, sans-Serif;text-anchor:start"
           id="text4108"
           font-size="11.00"
           y="-523.29999"
           x="217.5">package_id</text>
        <polygon
           style="fill:none;stroke:#000000"
           id="polygon4110"
           points="325.5,-517.2 325.5,-498.2 214.5,-498.2 214.5,-498.2 214.5,-517.2 " />
        <text
           style="font-size:11px;font-family:Helvetica, sans-Serif;text-anchor:start"
           id="text4112"
           font-size="11.00"
           y="-504.29999"
           x="217.5">location_id</text>
        <polygon
           style="fill:none;stroke:#000000"
           id="polygon4114"
           points="325.5,-498.2 325.5,-479.2 214.5,-479.2 214.5,-479.2 214.5,-498.2 " />
        <text
           style="font-size:11px;font-family:Helvetica, sans-Serif;text-anchor:start"
           id="text4116"
           font-size="11.00"
           y="-485.29999"
           x="217.42999">observation_datetime</text>
        <polygon
           style="fill:none;stroke:#000000"
           id="polygon4118"
           points="325.5,-479.2 325.5,-460.2 214.5,-460.2 214.5,-460.2 214.5,-479.2 " />
        <text
           style="font-size:11px;font-family:Helvetica, sans-Serif;text-anchor:start"
           id="text4120"
           font-size="11.00"
           y="-466.29999"
           x="217.5">taxon_id</text>
        <polygon
           style="fill:none;stroke:#000000"
           id="polygon4122"
           points="325.5,-460.2 325.5,-441.2 214.5,-441.2 214.5,-441.2 214.5,-460.2 " />
        <text
           style="font-size:11px;font-family:Helvetica, sans-Serif;text-anchor:start"
           id="text4124"
           font-size="11.00"
           y="-447.29999"
           x="217.5">variable_name</text>
        <polygon
           style="fill:none;stroke:#000000"
           id="polygon4126"
           points="325.5,-441.2 325.5,-422.2 214.5,-422.2 214.5,-422.2 214.5,-441.2 " />
        <text
           style="font-size:11px;font-family:Helvetica, sans-Serif;text-anchor:start"
           id="text4128"
           font-size="11.00"
           y="-428.29999"
           x="217.5">value</text>
        <polygon
           style="fill:none;stroke:#000000"
           id="polygon4130"
           points="325.5,-422.2 325.5,-403.2 214.5,-403.2 214.5,-403.2 214.5,-422.2 " />
        <text
           style="font-size:11px;font-family:Helvetica, sans-Serif;text-anchor:start"
           id="text4132"
           font-size="11.00"
           y="-409.29999"
           x="217.5">unit</text>
        <polygon
           style="fill:#f7f7f7;stroke:none"
           id="polygon4134"
           points="250.5,-403.2 250.5,-384.2 214.5,-384.2 214.5,-384.2 214.5,-403.2 " />
        <polygon
           style="fill:none;stroke:#000000"
           id="polygon4136"
           points="250.5,-403.2 250.5,-384.2 214.5,-384.2 214.5,-384.2 214.5,-403.2 " />
        <text
           style="font-size:11px;font-family:Helvetica, sans-Serif;text-anchor:start"
           id="text4138"
           font-size="11.00"
           y="-390.29999"
           x="217.5">&lt; 3</text>
        <polygon
           style="fill:#f7f7f7;stroke:none"
           id="polygon4140"
           points="296.5,-403.2 296.5,-384.2 250.5,-384.2 250.5,-384.2 250.5,-403.2 " />
        <polygon
           style="fill:none;stroke:#000000"
           id="polygon4142"
           points="296.5,-403.2 296.5,-384.2 250.5,-384.2 250.5,-384.2 250.5,-403.2 " />
        <text
           style="font-size:11px;font-family:Helvetica, sans-Serif;text-anchor:start"
           id="text4144"
           font-size="11.00"
           y="-390.29999"
           x="261.11099">0 rows</text>
        <polygon
           style="fill:#f7f7f7;stroke:none"
           id="polygon4146"
           points="325.5,-403.2 325.5,-384.2 296.5,-384.2 296.5,-384.2 296.5,-403.2 " />
        <polygon
           style="fill:none;stroke:#000000"
           id="polygon4148"
           points="325.5,-403.2 325.5,-384.2 296.5,-384.2 296.5,-384.2 296.5,-403.2 " />
        <text
           style="font-size:11px;font-family:Helvetica, sans-Serif;text-anchor:start"
           id="text4150"
           font-size="11.00"
           y="-390.29999"
           x="306.905">1 &gt;</text>
      </a>
    </g>
  </g>
  <g
     class="edge"
     id="edge4"
     transform="translate(4,601.7)">
    <title
       id="title4153">observation:package_id:w-&gt;dataset_summary:package_id:e</title>
    <path
       style="fill:none;stroke:#000000"
       inkscape:connector-curvature="0"
       id="path4155"
       d="m 198.896,-527.2 c -10.462,0 -17.382,0 -32.396,0" />
    <polygon
       style="fill:#000000;stroke:#000000"
       id="polygon4157"
       points="209.5,-527.2 213.5,-527.2 213.5,-527.2 213.5,-527.2 209.5,-527.2 213.5,-523.6 205.5,-527.2 205.5,-527.2 205.5,-527.2 213.5,-530.8 " />
    <circle
       style="fill:none;stroke:#000000"
       r="3.2"
       id="ellipse4159"
       cy="-527.20001"
       cx="202.3" />
  </g>
  <g
     class="edge"
     id="edge3"
     transform="translate(4,601.7)">
    <title
       id="title4162">observation:location_id:w-&gt;location:location_id:e</title>
    <path
       style="fill:none;stroke:#000000"
       inkscape:connector-curvature="0"
       id="path4164"
       d="m 199.012,-506.314 c -39.527,12.19 -22.41291,75.72396 -26.012,132.114 -2.00473,31.40983 -0.27255,54.04138 47.31376,57.98621"
       sodipodi:nodetypes="csc" />
    <polygon
       style="fill:#000000;stroke:#000000"
       id="polygon4166"
       points="209.533,-507.684 213.5,-508.2 213.5,-508.2 213.5,-508.2 209.533,-507.684 213.965,-504.63 205.567,-507.167 205.567,-507.167 205.567,-507.167 213.035,-511.77 " />
    <circle
       style="fill:none;stroke:#000000"
       r="3.2"
       id="ellipse4168"
       cy="-506.754"
       cx="202.394" />
  </g>
  <g
     class="node"
     id="node6"
     transform="translate(184.8,601.7)">
    <title
       id="title4171">taxon</title>
    <g
       id="a_node6">
      <a
         xlink:href="tables/taxon.html"
         xlink:title="taxon"
         id="a4174">
        <polygon
           style="fill:#ffffff;stroke:none"
           id="polygon4176"
           points="39,-171.7 134,-171.7 134,-38.7 39,-38.7 39,-38.7 " />
        <polygon
           style="fill:#9bab96;stroke:none"
           id="polygon4178"
           points="39.5,-171.2 134.5,-171.2 134.5,-152.2 39.5,-152.2 39.5,-152.2 " />
        <polygon
           style="fill:none;stroke:#000000"
           id="polygon4180"
           points="39.5,-171.2 134.5,-171.2 134.5,-152.2 39.5,-152.2 39.5,-152.2 " />
        <text
           style="font-size:11px;font-family:Helvetica, sans-Serif;text-anchor:start"
           id="text4182"
           font-size="11.00"
           y="-158.3"
           x="73.549202">taxon</text>
        <polygon
           style="fill:#bed1b8;stroke:none"
           id="polygon4184"
           points="39.5,-152.2 134.5,-152.2 134.5,-133.2 39.5,-133.2 39.5,-133.2 " />
        <polygon
           style="fill:none;stroke:#000000"
           id="polygon4186"
           points="39.5,-152.2 134.5,-152.2 134.5,-133.2 39.5,-133.2 39.5,-133.2 " />
        <text
           style="font-size:11px;font-family:Helvetica, sans-Serif;text-anchor:start"
           id="text4188"
           font-size="11.00"
           y="-139.3"
           x="42.5">taxon_id</text>
        <polygon
           style="fill:none;stroke:#000000"
           id="polygon4190"
           points="39.5,-133.2 134.5,-133.2 134.5,-114.2 39.5,-114.2 39.5,-114.2 " />
        <text
           style="font-size:11px;font-family:Helvetica, sans-Serif;text-anchor:start"
           id="text4192"
           font-size="11.00"
           y="-120.3"
           x="42.5">taxon_rank</text>
        <polygon
           style="fill:none;stroke:#000000"
           id="polygon4194"
           points="39.5,-114.2 134.5,-114.2 134.5,-95.2 39.5,-95.2 39.5,-95.2 " />
        <text
           style="font-size:11px;font-family:Helvetica, sans-Serif;text-anchor:start"
           id="text4196"
           font-size="11.00"
           y="-101.3"
           x="42.5">taxon_name</text>
        <polygon
           style="fill:none;stroke:#000000"
           id="polygon4198"
           points="39.5,-95.2 134.5,-95.2 134.5,-76.2 39.5,-76.2 39.5,-76.2 " />
        <text
           style="font-size:11px;font-family:Helvetica, sans-Serif;text-anchor:start"
           id="text4200"
           font-size="11.00"
           y="-82.300003"
           x="42.5">authority_system</text>
        <polygon
           style="fill:none;stroke:#000000"
           id="polygon4202"
           points="39.5,-76.2 134.5,-76.2 134.5,-57.2 39.5,-57.2 39.5,-57.2 " />
        <text
           style="font-size:11px;font-family:Helvetica, sans-Serif;text-anchor:start"
           id="text4204"
           font-size="11.00"
           y="-63.299999"
           x="42.068298">authority_taxon_id</text>
        <polygon
           style="fill:#f7f7f7;stroke:none"
           id="polygon4206"
           points="39.5,-57.2 63.5,-57.2 63.5,-38.2 39.5,-38.2 39.5,-38.2 " />
        <polygon
           style="fill:none;stroke:#000000"
           id="polygon4208"
           points="39.5,-57.2 63.5,-57.2 63.5,-38.2 39.5,-38.2 39.5,-38.2 " />
        <text
           style="font-size:11px;font-family:Helvetica, sans-Serif;text-anchor:start"
           id="text4210"
           font-size="11.00"
           y="-44.299999"
           x="42.5"> </text>
        <polygon
           style="fill:#f7f7f7;stroke:none"
           id="polygon4212"
           points="63.5,-57.2 107.5,-57.2 107.5,-38.2 63.5,-38.2 63.5,-38.2 " />
        <polygon
           style="fill:none;stroke:#000000"
           id="polygon4214"
           points="63.5,-57.2 107.5,-57.2 107.5,-38.2 63.5,-38.2 63.5,-38.2 " />
        <text
           style="font-size:11px;font-family:Helvetica, sans-Serif;text-anchor:start"
           id="text4216"
           font-size="11.00"
           y="-44.299999"
           x="72.110497">0 rows</text>
        <polygon
           style="fill:#f7f7f7;stroke:none"
           id="polygon4218"
           points="107.5,-57.2 134.5,-57.2 134.5,-38.2 107.5,-38.2 107.5,-38.2 " />
        <polygon
           style="fill:none;stroke:#000000"
           id="polygon4220"
           points="107.5,-57.2 134.5,-57.2 134.5,-38.2 107.5,-38.2 107.5,-38.2 " />
        <text
           style="font-size:11px;font-family:Helvetica, sans-Serif;text-anchor:start"
           id="text4222"
           font-size="11.00"
           y="-44.299999"
           x="115.905">2 &gt;</text>
      </a>
    </g>
  </g>
  <g
     class="edge"
     id="edge5"
     transform="translate(4,601.7)">
    <title
       id="title4225">observation:taxon_id:w-&gt;taxon:taxon_id:e</title>
    <path
       style="fill:none;stroke:#000000"
       inkscape:connector-curvature="0"
       id="path4227"
       d="m 199.621,-464.59 c -37.41497,8.00684 4.13203,25.76749 -21.68997,179.82453 -3.97502,23.71542 16.1322,138.60685 40.41031,141.56547"
       sodipodi:nodetypes="csc" />
    <polygon
       style="fill:#000000;stroke:#000000"
       id="polygon4229"
       points="209.704,-467.939 213.5,-469.2 213.5,-469.2 213.5,-469.2 209.704,-467.939 214.635,-465.784 205.908,-466.678 205.908,-466.678 205.908,-466.678 212.365,-472.616 " />
    <circle
       style="fill:none;stroke:#000000"
       r="3.2000101"
       id="ellipse4231"
       cy="-465.66901"
       cx="202.871" />
  </g>
  <g
     class="node"
     id="node5"
     transform="translate(4,601.7)">
    <title
       id="title4234">observation_ancillary</title>
    <g
       id="a_node5">
      <a
         xlink:href="tables/observation_ancillary.html"
         xlink:title="observation_ancillary"
         id="a4237">
        <polygon
           style="fill:#ffffff;stroke:none"
           id="polygon4239"
           points="497,-593.7 497,-460.7 374,-460.7 374,-460.7 374,-593.7 " />
        <polygon
           style="fill:#9bab96;stroke:none"
           id="polygon4241"
           points="497.5,-593.2 497.5,-574.2 374.5,-574.2 374.5,-574.2 374.5,-593.2 " />
        <polygon
           style="fill:none;stroke:#000000"
           id="polygon4243"
           points="497.5,-593.2 497.5,-574.2 374.5,-574.2 374.5,-574.2 374.5,-593.2 " />
        <text
           style="font-size:11px;font-family:Helvetica, sans-Serif;text-anchor:start"
           id="text4245"
           font-size="11.00"
           y="-580.29999"
           x="384.353">observation_ancillary</text>
        <polygon
           style="fill:#bed1b8;stroke:none"
           id="polygon4247"
           points="497.5,-574.2 497.5,-555.2 374.5,-555.2 374.5,-555.2 374.5,-574.2 " />
        <polygon
           style="fill:none;stroke:#000000"
           id="polygon4249"
           points="497.5,-574.2 497.5,-555.2 374.5,-555.2 374.5,-555.2 374.5,-574.2 " />
        <text
           style="font-size:11px;font-family:Helvetica, sans-Serif;text-anchor:start"
           id="text4251"
           font-size="11.00"
           y="-561.29999"
           x="377.01801">observation_ancillary_id</text>
        <polygon
           style="fill:#f4f7da;stroke:none"
           id="polygon4253"
           points="497.5,-555.2 497.5,-536.2 374.5,-536.2 374.5,-536.2 374.5,-555.2 " />
        <polygon
           style="fill:none;stroke:#000000"
           id="polygon4255"
           points="497.5,-555.2 497.5,-536.2 374.5,-536.2 374.5,-536.2 374.5,-555.2 " />
        <text
           style="font-size:11px;font-family:Helvetica, sans-Serif;text-anchor:start"
           id="text4257"
           font-size="11.00"
           y="-542.29999"
           x="377.5">observation_id</text>
        <polygon
           style="fill:#f4f7da;stroke:none"
           id="polygon4259"
           points="497.5,-536.2 497.5,-517.2 374.5,-517.2 374.5,-517.2 374.5,-536.2 " />
        <polygon
           style="fill:none;stroke:#000000"
           id="polygon4261"
           points="497.5,-536.2 497.5,-517.2 374.5,-517.2 374.5,-517.2 374.5,-536.2 " />
        <text
           style="font-size:11px;font-family:Helvetica, sans-Serif;text-anchor:start"
           id="text4263"
           font-size="11.00"
           y="-523.29999"
           x="377.5">variable_name</text>
        <polygon
           style="fill:none;stroke:#000000"
           id="polygon4265"
           points="497.5,-517.2 497.5,-498.2 374.5,-498.2 374.5,-498.2 374.5,-517.2 " />
        <text
           style="font-size:11px;font-family:Helvetica, sans-Serif;text-anchor:start"
           id="text4267"
           font-size="11.00"
           y="-504.29999"
           x="377.5">value</text>
        <polygon
           style="fill:none;stroke:#000000"
           id="polygon4269"
           points="497.5,-498.2 497.5,-479.2 374.5,-479.2 374.5,-479.2 374.5,-498.2 " />
        <text
           style="font-size:11px;font-family:Helvetica, sans-Serif;text-anchor:start"
           id="text4271"
           font-size="11.00"
           y="-485.29999"
           x="377.5">unit</text>
        <polygon
           style="fill:#f7f7f7;stroke:none"
           id="polygon4273"
           points="421.5,-479.2 421.5,-460.2 374.5,-460.2 374.5,-460.2 374.5,-479.2 " />
        <polygon
           style="fill:none;stroke:#000000"
           id="polygon4275"
           points="421.5,-479.2 421.5,-460.2 374.5,-460.2 374.5,-460.2 374.5,-479.2 " />
        <text
           style="font-size:11px;font-family:Helvetica, sans-Serif;text-anchor:start"
           id="text4277"
           font-size="11.00"
           y="-466.29999"
           x="377.5">&lt; 1</text>
        <polygon
           style="fill:#f7f7f7;stroke:none"
           id="polygon4279"
           points="472.5,-479.2 472.5,-460.2 421.5,-460.2 421.5,-460.2 421.5,-479.2 " />
        <polygon
           style="fill:none;stroke:#000000"
           id="polygon4281"
           points="472.5,-479.2 472.5,-460.2 421.5,-460.2 421.5,-460.2 421.5,-479.2 " />
        <text
           style="font-size:11px;font-family:Helvetica, sans-Serif;text-anchor:start"
           id="text4283"
           font-size="11.00"
           y="-466.29999"
           x="437.11099">0 rows</text>
        <polygon
           style="fill:#f7f7f7;stroke:none"
           id="polygon4285"
           points="497.5,-479.2 497.5,-460.2 472.5,-460.2 472.5,-460.2 472.5,-479.2 " />
        <polygon
           style="fill:none;stroke:#000000"
           id="polygon4287"
           points="497.5,-479.2 497.5,-460.2 472.5,-460.2 472.5,-460.2 472.5,-479.2 " />
        <text
           style="font-size:11px;font-family:Helvetica, sans-Serif;text-anchor:start"
           id="text4289"
           font-size="11.00"
           y="-466.29999"
           x="488.38599"> </text>
      </a>
    </g>
  </g>
  <g
     class="edge"
     id="edge6"
     transform="translate(4,601.7)">
    <title
       id="title4292">observation_ancillary:observation_id:w-&gt;observation:observation_id:e</title>
    <path
       style="fill:none;stroke:#000000"
       inkscape:connector-curvature="0"
       id="path4294"
       d="m 358.896,-546.2 c -10.462,0 -17.382,0 -32.396,0" />
    <polygon
       style="fill:#000000;stroke:#000000"
       id="polygon4296"
       points="369.5,-546.2 373.5,-546.2 373.5,-546.2 373.5,-546.2 369.5,-546.2 373.5,-542.6 365.5,-546.2 365.5,-546.2 365.5,-546.2 373.5,-549.8 " />
    <circle
       style="fill:none;stroke:#000000"
       r="3.2"
       id="ellipse4298"
       cy="-546.20001"
       cx="362.29999" />
  </g>
  <g
     class="node"
     id="node7"
     transform="translate(184.8,601.7)">
    <title
       id="title4301">taxon_ancillary</title>
    <g
       id="a_node7">
      <a
         xlink:href="tables/taxon_ancillary.html"
         xlink:title="taxon_ancillary"
         id="a4304">
        <polygon
           style="fill:#ffffff;stroke:none"
           id="polygon4306"
           points="222.5,-190.2 316.5,-190.2 316.5,-38.2 222.5,-38.2 222.5,-38.2 " />
        <polygon
           style="fill:#9bab96;stroke:none"
           id="polygon4308"
           points="222.5,-190.2 316.5,-190.2 316.5,-171.2 222.5,-171.2 222.5,-171.2 " />
        <polygon
           style="fill:none;stroke:#000000"
           id="polygon4310"
           points="222.5,-190.2 316.5,-190.2 316.5,-171.2 222.5,-171.2 222.5,-171.2 " />
        <text
           style="font-size:11px;font-family:Helvetica, sans-Serif;text-anchor:start"
           id="text4312"
           font-size="11.00"
           y="-177.3"
           x="232.827">taxon_ancillary</text>
        <polygon
           style="fill:#bed1b8;stroke:none"
           id="polygon4314"
           points="222.5,-171.2 316.5,-171.2 316.5,-152.2 222.5,-152.2 222.5,-152.2 " />
        <polygon
           style="fill:none;stroke:#000000"
           id="polygon4316"
           points="222.5,-171.2 316.5,-171.2 316.5,-152.2 222.5,-152.2 222.5,-152.2 " />
        <text
           style="font-size:11px;font-family:Helvetica, sans-Serif;text-anchor:start"
           id="text4318"
           font-size="11.00"
           y="-158.3"
           x="225.492">taxon_ancillary_id</text>
        <polygon
           style="fill:#f4f7da;stroke:none"
           id="polygon4320"
           points="222.5,-152.2 316.5,-152.2 316.5,-133.2 222.5,-133.2 222.5,-133.2 " />
        <polygon
           style="fill:none;stroke:#000000"
           id="polygon4322"
           points="222.5,-152.2 316.5,-152.2 316.5,-133.2 222.5,-133.2 222.5,-133.2 " />
        <text
           style="font-size:11px;font-family:Helvetica, sans-Serif;text-anchor:start"
           id="text4324"
           font-size="11.00"
           y="-139.3"
           x="225.5">taxon_id</text>
        <polygon
           style="fill:#f4f7da;stroke:none"
           id="polygon4326"
           points="222.5,-133.2 316.5,-133.2 316.5,-114.2 222.5,-114.2 222.5,-114.2 " />
        <polygon
           style="fill:none;stroke:#000000"
           id="polygon4328"
           points="222.5,-133.2 316.5,-133.2 316.5,-114.2 222.5,-114.2 222.5,-114.2 " />
        <text
           style="font-size:11px;font-family:Helvetica, sans-Serif;text-anchor:start"
           id="text4330"
           font-size="11.00"
           y="-120.3"
           x="225.5">datetime</text>
        <polygon
           style="fill:#f4f7da;stroke:none"
           id="polygon4332"
           points="222.5,-114.2 316.5,-114.2 316.5,-95.2 222.5,-95.2 222.5,-95.2 " />
        <polygon
           style="fill:none;stroke:#000000"
           id="polygon4334"
           points="222.5,-114.2 316.5,-114.2 316.5,-95.2 222.5,-95.2 222.5,-95.2 " />
        <text
           style="font-size:11px;font-family:Helvetica, sans-Serif;text-anchor:start"
           id="text4336"
           font-size="11.00"
           y="-101.3"
           x="225.5">variable_name</text>
        <polygon
           style="fill:none;stroke:#000000"
           id="polygon4338"
           points="222.5,-95.2 316.5,-95.2 316.5,-76.2 222.5,-76.2 222.5,-76.2 " />
        <text
           style="font-size:11px;font-family:Helvetica, sans-Serif;text-anchor:start"
           id="text4340"
           font-size="11.00"
           y="-82.300003"
           x="225.5">value</text>
        <polygon
           style="fill:none;stroke:#000000"
           id="polygon4342"
           points="222.5,-76.2 316.5,-76.2 316.5,-57.2 222.5,-57.2 222.5,-57.2 " />
        <text
           style="font-size:11px;font-family:Helvetica, sans-Serif;text-anchor:start"
           id="text4344"
           font-size="11.00"
           y="-63.299999"
           x="225.5">author</text>
        <polygon
           style="fill:#f7f7f7;stroke:none"
           id="polygon4346"
           points="222.5,-57.2 254.5,-57.2 254.5,-38.2 222.5,-38.2 222.5,-38.2 " />
        <polygon
           style="fill:none;stroke:#000000"
           id="polygon4348"
           points="222.5,-57.2 254.5,-57.2 254.5,-38.2 222.5,-38.2 222.5,-38.2 " />
        <text
           style="font-size:11px;font-family:Helvetica, sans-Serif;text-anchor:start"
           id="text4350"
           font-size="11.00"
           y="-44.299999"
           x="225.5">&lt; 1</text>
        <polygon
           style="fill:#f7f7f7;stroke:none"
           id="polygon4352"
           points="254.5,-57.2 298.5,-57.2 298.5,-38.2 254.5,-38.2 254.5,-38.2 " />
        <polygon
           style="fill:none;stroke:#000000"
           id="polygon4354"
           points="254.5,-57.2 298.5,-57.2 298.5,-38.2 254.5,-38.2 254.5,-38.2 " />
        <text
           style="font-size:11px;font-family:Helvetica, sans-Serif;text-anchor:start"
           id="text4356"
           font-size="11.00"
           y="-44.299999"
           x="263.11099">0 rows</text>
        <polygon
           style="fill:#f7f7f7;stroke:none"
           id="polygon4358"
           points="298.5,-57.2 316.5,-57.2 316.5,-38.2 298.5,-38.2 298.5,-38.2 " />
        <polygon
           style="fill:none;stroke:#000000"
           id="polygon4360"
           points="298.5,-57.2 316.5,-57.2 316.5,-38.2 298.5,-38.2 298.5,-38.2 " />
        <text
           style="font-size:11px;font-family:Helvetica, sans-Serif;text-anchor:start"
           id="text4362"
           font-size="11.00"
           y="-44.299999"
           x="307.38599"> </text>
      </a>
    </g>
  </g>
  <g
     class="edge"
     id="edge7"
     transform="translate(184.8,601.7)">
    <title
       id="title4365">taxon_ancillary:taxon_id:w-&gt;taxon:taxon_id:e</title>
    <path
       style="fill:none;stroke:#000000"
       inkscape:connector-curvature="0"
       id="path4367"
       d="m 206.916,-143.2 c -26.893,0 -38.569,0 -71.416,0" />
    <polygon
       style="fill:#000000;stroke:#000000"
       id="polygon4369"
       points="217.5,-143.2 221.5,-139.6 213.5,-143.2 213.5,-143.2 213.5,-143.2 221.5,-146.8 217.5,-143.2 221.5,-143.2 221.5,-143.2 221.5,-143.2 " />
    <circle
       style="fill:none;stroke:#000000"
       r="3.2"
       id="ellipse4371"
       cy="-143.2"
       cx="210.3" />
  </g>
</svg>
