<?xml version="1.0" encoding="UTF-8" standalone="no"?>
<!DOCTYPE svg PUBLIC "-//W3C//DTD SVG 1.1//EN"
 "http://www.w3.org/Graphics/SVG/1.1/DTD/svg11.dtd">
<!-- Generated by graphviz version 2.38.0 (20140413.2041)
 -->
<!-- Title: largeRelationshipsDiagram Pages: 1 -->
<svg width="403pt" height="722pt"
 viewBox="0.00 0.00 402.95 721.70" xmlns="http://www.w3.org/2000/svg" xmlns:xlink="http://www.w3.org/1999/xlink">
<g id="graph0" class="graph" transform="scale(1 1) rotate(0) translate(4 717.7)">
<title>largeRelationshipsDiagram</title>
<polygon fill="#f7f7f7" stroke="none" points="-4,4 -4,-717.7 398.951,-717.7 398.951,4 -4,4"/>
<text text-anchor="middle" x="72.4935" y="-7.3" font-family="Helvetica,sans-Serif" font-size="11.00">Generated by SchemaSpy</text>
<!-- dataset_summary -->
<g id="node1" class="node"><title>dataset_summary</title>
<g id="a_node1"><a xlink:href="tables/dataset_summary.html" xlink:title="dataset_summary">
<polygon fill="#ffffff" stroke="none" points="25.9514,-384.7 25.9514,-555.7 182.951,-555.7 182.951,-384.7 25.9514,-384.7"/>
<polygon fill="#9bab96" stroke="none" points="26.4514,-536.2 26.4514,-555.2 183.451,-555.2 183.451,-536.2 26.4514,-536.2"/>
<polygon fill="none" stroke="black" points="26.4514,-536.2 26.4514,-555.2 183.451,-555.2 183.451,-536.2 26.4514,-536.2"/>
<text text-anchor="start" x="61.2495" y="-542.3" font-family="Helvetica,sans-Serif" font-size="11.00">dataset_summary</text>
<polygon fill="#bed1b8" stroke="none" points="26.4514,-517.2 26.4514,-536.2 183.451,-536.2 183.451,-517.2 26.4514,-517.2"/>
<polygon fill="none" stroke="black" points="26.4514,-517.2 26.4514,-536.2 183.451,-536.2 183.451,-517.2 26.4514,-517.2"/>
<text text-anchor="start" x="29.4514" y="-523.3" font-family="Helvetica,sans-Serif" font-size="11.00">package_id</text>
<polygon fill="none" stroke="black" points="26.4514,-498.2 26.4514,-517.2 183.451,-517.2 183.451,-498.2 26.4514,-498.2"/>
<text text-anchor="start" x="29.4514" y="-504.3" font-family="Helvetica,sans-Serif" font-size="11.00">original_package_id</text>
<polygon fill="none" stroke="black" points="26.4514,-479.2 26.4514,-498.2 183.451,-498.2 183.451,-479.2 26.4514,-479.2"/>
<text text-anchor="start" x="29.4514" y="-485.3" font-family="Helvetica,sans-Serif" font-size="11.00">length_of_survey_years</text>
<polygon fill="none" stroke="black" points="26.4514,-460.2 26.4514,-479.2 183.451,-479.2 183.451,-460.2 26.4514,-460.2"/>
<text text-anchor="start" x="29.4514" y="-466.3" font-family="Helvetica,sans-Serif" font-size="11.00">number_of_years_sampled</text>
<polygon fill="none" stroke="black" points="26.4514,-441.2 26.4514,-460.2 183.451,-460.2 183.451,-441.2 26.4514,-441.2"/>
<text text-anchor="start" x="29.4514" y="-447.3" font-family="Helvetica,sans-Serif" font-size="11.00">std_dev_interval_betw_years</text>
<polygon fill="none" stroke="black" points="26.4514,-422.2 26.4514,-441.2 183.451,-441.2 183.451,-422.2 26.4514,-422.2"/>
<text text-anchor="start" x="29.4514" y="-428.3" font-family="Helvetica,sans-Serif" font-size="11.00">max_num_taxa</text>
<polygon fill="none" stroke="black" points="26.4514,-403.2 26.4514,-422.2 183.451,-422.2 183.451,-403.2 26.4514,-403.2"/>
<text text-anchor="start" x="29.4441" y="-409.3" font-family="Helvetica,sans-Serif" font-size="11.00">geo_extent_bounding_box_m2</text>
<polygon fill="#f7f7f7" stroke="none" points="26.4514,-384.2 26.4514,-403.2 81.4514,-403.2 81.4514,-384.2 26.4514,-384.2"/>
<polygon fill="none" stroke="black" points="26.4514,-384.2 26.4514,-403.2 81.4514,-403.2 81.4514,-384.2 26.4514,-384.2"/>
<text text-anchor="start" x="29.4514" y="-390.3" font-family="Helvetica,sans-Serif" font-size="11.00"> &#160;</text>
<polygon fill="#f7f7f7" stroke="none" points="81.4514,-384.2 81.4514,-403.2 140.451,-403.2 140.451,-384.2 81.4514,-384.2"/>
<polygon fill="none" stroke="black" points="81.4514,-384.2 81.4514,-403.2 140.451,-403.2 140.451,-384.2 81.4514,-384.2"/>
<text text-anchor="start" x="105.062" y="-390.3" font-family="Helvetica,sans-Serif" font-size="11.00">0 rows</text>
<polygon fill="#f7f7f7" stroke="none" points="140.451,-384.2 140.451,-403.2 183.451,-403.2 183.451,-384.2 140.451,-384.2"/>
<polygon fill="none" stroke="black" points="140.451,-384.2 140.451,-403.2 183.451,-403.2 183.451,-384.2 140.451,-384.2"/>
<text text-anchor="start" x="164.857" y="-390.3" font-family="Helvetica,sans-Serif" font-size="11.00">1 &gt;</text>
</a>
</g>
</g>
<!-- event -->
<g id="node2" class="node"><title>event</title>
<g id="a_node2"><a xlink:href="tables/event.html" xlink:title="event">
<polygon fill="#ffffff" stroke="none" points="62.4514,-576.7 62.4514,-709.7 146.451,-709.7 146.451,-576.7 62.4514,-576.7"/>
<polygon fill="#9bab96" stroke="none" points="62.4514,-690.2 62.4514,-709.2 146.451,-709.2 146.451,-690.2 62.4514,-690.2"/>
<polygon fill="none" stroke="black" points="62.4514,-690.2 62.4514,-709.2 146.451,-709.2 146.451,-690.2 62.4514,-690.2"/>
<text text-anchor="start" x="91.0006" y="-696.3" font-family="Helvetica,sans-Serif" font-size="11.00">event</text>
<polygon fill="#bed1b8" stroke="none" points="62.4514,-671.2 62.4514,-690.2 146.451,-690.2 146.451,-671.2 62.4514,-671.2"/>
<polygon fill="none" stroke="black" points="62.4514,-671.2 62.4514,-690.2 146.451,-690.2 146.451,-671.2 62.4514,-671.2"/>
<text text-anchor="start" x="65.0236" y="-677.3" font-family="Helvetica,sans-Serif" font-size="11.00">event_record_id</text>
<polygon fill="none" stroke="black" points="62.4514,-652.2 62.4514,-671.2 146.451,-671.2 146.451,-652.2 62.4514,-652.2"/>
<text text-anchor="start" x="65.4514" y="-658.3" font-family="Helvetica,sans-Serif" font-size="11.00">event_id</text>
<polygon fill="none" stroke="black" points="62.4514,-633.2 62.4514,-652.2 146.451,-652.2 146.451,-633.2 62.4514,-633.2"/>
<text text-anchor="start" x="65.4514" y="-639.3" font-family="Helvetica,sans-Serif" font-size="11.00">variable_name</text>
<polygon fill="none" stroke="black" points="62.4514,-614.2 62.4514,-633.2 146.451,-633.2 146.451,-614.2 62.4514,-614.2"/>
<text text-anchor="start" x="65.4514" y="-620.3" font-family="Helvetica,sans-Serif" font-size="11.00">value</text>
<polygon fill="none" stroke="black" points="62.4514,-595.2 62.4514,-614.2 146.451,-614.2 146.451,-595.2 62.4514,-595.2"/>
<text text-anchor="start" x="65.4514" y="-601.3" font-family="Helvetica,sans-Serif" font-size="11.00">unit</text>
<polygon fill="#f7f7f7" stroke="none" points="62.4514,-576.2 62.4514,-595.2 80.4514,-595.2 80.4514,-576.2 62.4514,-576.2"/>
<polygon fill="none" stroke="black" points="62.4514,-576.2 62.4514,-595.2 80.4514,-595.2 80.4514,-576.2 62.4514,-576.2"/>
<text text-anchor="start" x="65.4514" y="-582.3" font-family="Helvetica,sans-Serif" font-size="11.00"> &#160;</text>
<polygon fill="#f7f7f7" stroke="none" points="80.4514,-576.2 80.4514,-595.2 121.451,-595.2 121.451,-576.2 80.4514,-576.2"/>
<polygon fill="none" stroke="black" points="80.4514,-576.2 80.4514,-595.2 121.451,-595.2 121.451,-576.2 80.4514,-576.2"/>
<text text-anchor="start" x="86.0619" y="-582.3" font-family="Helvetica,sans-Serif" font-size="11.00">0 rows</text>
<polygon fill="#f7f7f7" stroke="none" points="121.451,-576.2 121.451,-595.2 146.451,-595.2 146.451,-576.2 121.451,-576.2"/>
<polygon fill="none" stroke="black" points="121.451,-576.2 121.451,-595.2 146.451,-595.2 146.451,-576.2 121.451,-576.2"/>
<text text-anchor="start" x="127.857" y="-582.3" font-family="Helvetica,sans-Serif" font-size="11.00">1 &gt;</text>
</a>
</g>
</g>
<!-- observation -->
<g id="node3" class="node"><title>observation</title>
<g id="a_node3"><a xlink:href="tables/observation.html" xlink:title="observation">
<polygon fill="#ffffff" stroke="none" points="253.951,-384.7 253.951,-593.7 364.951,-593.7 364.951,-384.7 253.951,-384.7"/>
<polygon fill="#9bab96" stroke="none" points="254.451,-574.2 254.451,-593.2 365.451,-593.2 365.451,-574.2 254.451,-574.2"/>
<polygon fill="none" stroke="black" points="254.451,-574.2 254.451,-593.2 365.451,-593.2 365.451,-574.2 254.451,-574.2"/>
<text text-anchor="start" x="281.527" y="-580.3" font-family="Helvetica,sans-Serif" font-size="11.00">observation</text>
<polygon fill="#bed1b8" stroke="none" points="254.451,-555.2 254.451,-574.2 365.451,-574.2 365.451,-555.2 254.451,-555.2"/>
<polygon fill="none" stroke="black" points="254.451,-555.2 254.451,-574.2 365.451,-574.2 365.451,-555.2 254.451,-555.2"/>
<text text-anchor="start" x="257.451" y="-561.3" font-family="Helvetica,sans-Serif" font-size="11.00">observation_id</text>
<polygon fill="none" stroke="black" points="254.451,-536.2 254.451,-555.2 365.451,-555.2 365.451,-536.2 254.451,-536.2"/>
<text text-anchor="start" x="257.451" y="-542.3" font-family="Helvetica,sans-Serif" font-size="11.00">event_record_id</text>
<polygon fill="none" stroke="black" points="254.451,-517.2 254.451,-536.2 365.451,-536.2 365.451,-517.2 254.451,-517.2"/>
<text text-anchor="start" x="257.451" y="-523.3" font-family="Helvetica,sans-Serif" font-size="11.00">package_id</text>
<polygon fill="none" stroke="black" points="254.451,-498.2 254.451,-517.2 365.451,-517.2 365.451,-498.2 254.451,-498.2"/>
<text text-anchor="start" x="257.451" y="-504.3" font-family="Helvetica,sans-Serif" font-size="11.00">sampling_location_id</text>
<polygon fill="none" stroke="black" points="254.451,-479.2 254.451,-498.2 365.451,-498.2 365.451,-479.2 254.451,-479.2"/>
<text text-anchor="start" x="257.381" y="-485.3" font-family="Helvetica,sans-Serif" font-size="11.00">observation_datetime</text>
<polygon fill="none" stroke="black" points="254.451,-460.2 254.451,-479.2 365.451,-479.2 365.451,-460.2 254.451,-460.2"/>
<text text-anchor="start" x="257.451" y="-466.3" font-family="Helvetica,sans-Serif" font-size="11.00">taxon_id</text>
<polygon fill="none" stroke="black" points="254.451,-441.2 254.451,-460.2 365.451,-460.2 365.451,-441.2 254.451,-441.2"/>
<text text-anchor="start" x="257.451" y="-447.3" font-family="Helvetica,sans-Serif" font-size="11.00">variable_name</text>
<polygon fill="none" stroke="black" points="254.451,-422.2 254.451,-441.2 365.451,-441.2 365.451,-422.2 254.451,-422.2"/>
<text text-anchor="start" x="257.451" y="-428.3" font-family="Helvetica,sans-Serif" font-size="11.00">value</text>
<polygon fill="none" stroke="black" points="254.451,-403.2 254.451,-422.2 365.451,-422.2 365.451,-403.2 254.451,-403.2"/>
<text text-anchor="start" x="257.451" y="-409.3" font-family="Helvetica,sans-Serif" font-size="11.00">unit</text>
<polygon fill="#f7f7f7" stroke="none" points="254.451,-384.2 254.451,-403.2 295.451,-403.2 295.451,-384.2 254.451,-384.2"/>
<polygon fill="none" stroke="black" points="254.451,-384.2 254.451,-403.2 295.451,-403.2 295.451,-384.2 254.451,-384.2"/>
<text text-anchor="start" x="257.451" y="-390.3" font-family="Helvetica,sans-Serif" font-size="11.00">&lt; 4</text>
<polygon fill="#f7f7f7" stroke="none" points="295.451,-384.2 295.451,-403.2 343.451,-403.2 343.451,-384.2 295.451,-384.2"/>
<polygon fill="none" stroke="black" points="295.451,-384.2 295.451,-403.2 343.451,-403.2 343.451,-384.2 295.451,-384.2"/>
<text text-anchor="start" x="308.062" y="-390.3" font-family="Helvetica,sans-Serif" font-size="11.00">0 rows</text>
<polygon fill="#f7f7f7" stroke="none" points="343.451,-384.2 343.451,-403.2 365.451,-403.2 365.451,-384.2 343.451,-384.2"/>
<polygon fill="none" stroke="black" points="343.451,-384.2 343.451,-403.2 365.451,-403.2 365.451,-384.2 343.451,-384.2"/>
<text text-anchor="start" x="356.338" y="-390.3" font-family="Helvetica,sans-Serif" font-size="11.00"> &#160;</text>
</a>
</g>
</g>
<!-- observation&#45;&gt;dataset_summary -->
<g id="edge2" class="edge"><title>observation:package_id:w&#45;&gt;dataset_summary:package_id:e</title>
<path fill="none" stroke="black" d="M238.881,-527.2C219.287,-527.2 209.608,-527.2 184.451,-527.2"/>
<polygon fill="black" stroke="black" points="245.451,-527.2 253.451,-530.8 249.451,-527.2 253.451,-527.2 253.451,-527.2 253.451,-527.2 249.451,-527.2 253.451,-523.6 245.451,-527.2 245.451,-527.2"/>
<ellipse fill="none" stroke="black" cx="242.251" cy="-527.2" rx="3.2" ry="3.2"/>
</g>
<!-- observation&#45;&gt;event -->
<g id="edge1" class="edge"><title>observation:event_record_id:w&#45;&gt;event:event_record_id:e</title>
<path fill="none" stroke="black" d="M239.097,-548.108C183.108,-564.517 218.373,-681.2 147.451,-681.2"/>
<polygon fill="black" stroke="black" points="245.521,-547.254 253.926,-549.769 249.486,-546.727 253.451,-546.2 253.451,-546.2 253.451,-546.2 249.486,-546.727 252.977,-542.631 245.521,-547.254 245.521,-547.254"/>
<ellipse fill="none" stroke="black" cx="242.349" cy="-547.676" rx="3.2" ry="3.2"/>
</g>
<!-- sampling_location -->
<g id="node4" class="node"><title>sampling_location</title>
<g id="a_node4"><a xlink:href="tables/sampling_location.html" xlink:title="sampling_location">
<polygon fill="#ffffff" stroke="none" points="31.9514,-193.2 31.9514,-345.2 176.951,-345.2 176.951,-193.2 31.9514,-193.2"/>
<polygon fill="#9bab96" stroke="none" points="32.4514,-326.2 32.4514,-345.2 177.451,-345.2 177.451,-326.2 32.4514,-326.2"/>
<polygon fill="none" stroke="black" points="32.4514,-326.2 32.4514,-345.2 177.451,-345.2 177.451,-326.2 32.4514,-326.2"/>
<text text-anchor="start" x="60.9432" y="-332.3" font-family="Helvetica,sans-Serif" font-size="11.00">sampling_location</text>
<polygon fill="#bed1b8" stroke="none" points="32.4514,-307.2 32.4514,-326.2 177.451,-326.2 177.451,-307.2 32.4514,-307.2"/>
<polygon fill="none" stroke="black" points="32.4514,-307.2 32.4514,-326.2 177.451,-326.2 177.451,-307.2 32.4514,-307.2"/>
<text text-anchor="start" x="35.4514" y="-313.3" font-family="Helvetica,sans-Serif" font-size="11.00">sampling_location_id</text>
<polygon fill="none" stroke="black" points="32.4514,-288.2 32.4514,-307.2 177.451,-307.2 177.451,-288.2 32.4514,-288.2"/>
<text text-anchor="start" x="35.4514" y="-294.3" font-family="Helvetica,sans-Serif" font-size="11.00">sampling_location_name</text>
<polygon fill="none" stroke="black" points="32.4514,-269.2 32.4514,-288.2 177.451,-288.2 177.451,-269.2 32.4514,-269.2"/>
<text text-anchor="start" x="35.4514" y="-275.3" font-family="Helvetica,sans-Serif" font-size="11.00">latitude</text>
<polygon fill="none" stroke="black" points="32.4514,-250.2 32.4514,-269.2 177.451,-269.2 177.451,-250.2 32.4514,-250.2"/>
<text text-anchor="start" x="35.4514" y="-256.3" font-family="Helvetica,sans-Serif" font-size="11.00">longitude</text>
<polygon fill="none" stroke="black" points="32.4514,-231.2 32.4514,-250.2 177.451,-250.2 177.451,-231.2 32.4514,-231.2"/>
<text text-anchor="start" x="35.4514" y="-237.3" font-family="Helvetica,sans-Serif" font-size="11.00">elevation</text>
<polygon fill="none" stroke="black" points="32.4514,-212.2 32.4514,-231.2 177.451,-231.2 177.451,-212.2 32.4514,-212.2"/>
<text text-anchor="start" x="34.9612" y="-218.3" font-family="Helvetica,sans-Serif" font-size="11.00">parent_sampling_location_id</text>
<polygon fill="#f7f7f7" stroke="none" points="32.4514,-193.2 32.4514,-212.2 85.4514,-212.2 85.4514,-193.2 32.4514,-193.2"/>
<polygon fill="none" stroke="black" points="32.4514,-193.2 32.4514,-212.2 85.4514,-212.2 85.4514,-193.2 32.4514,-193.2"/>
<text text-anchor="start" x="35.4514" y="-199.3" font-family="Helvetica,sans-Serif" font-size="11.00">&lt; 1</text>
<polygon fill="#f7f7f7" stroke="none" points="85.4514,-193.2 85.4514,-212.2 139.451,-212.2 139.451,-193.2 85.4514,-193.2"/>
<polygon fill="none" stroke="black" points="85.4514,-193.2 85.4514,-212.2 139.451,-212.2 139.451,-193.2 85.4514,-193.2"/>
<text text-anchor="start" x="104.062" y="-199.3" font-family="Helvetica,sans-Serif" font-size="11.00">0 rows</text>
<polygon fill="#f7f7f7" stroke="none" points="139.451,-193.2 139.451,-212.2 177.451,-212.2 177.451,-193.2 139.451,-193.2"/>
<polygon fill="none" stroke="black" points="139.451,-193.2 139.451,-212.2 177.451,-212.2 177.451,-193.2 139.451,-193.2"/>
<text text-anchor="start" x="158.857" y="-199.3" font-family="Helvetica,sans-Serif" font-size="11.00">3 &gt;</text>
</a>
</g>
</g>
<!-- observation&#45;&gt;sampling_location -->
<g id="edge3" class="edge"><title>observation:sampling_location_id:w&#45;&gt;sampling_location:sampling_location_id:e</title>
<path fill="none" stroke="black" d="M238.982,-506.184C174.53,-485.771 264.128,-317.2 178.451,-317.2"/>
<polygon fill="black" stroke="black" points="245.528,-507.096 252.955,-511.766 249.49,-507.648 253.451,-508.2 253.451,-508.2 253.451,-508.2 249.49,-507.648 253.948,-504.634 245.528,-507.096 245.528,-507.096"/>
<ellipse fill="none" stroke="black" cx="242.359" cy="-506.655" rx="3.2" ry="3.2"/>
</g>
<!-- taxon -->
<g id="node6" class="node"><title>taxon</title>
<g id="a_node6"><a xlink:href="tables/taxon.html" xlink:title="taxon">
<polygon fill="#ffffff" stroke="none" points="56.9514,-38.7 56.9514,-171.7 151.951,-171.7 151.951,-38.7 56.9514,-38.7"/>
<polygon fill="#9bab96" stroke="none" points="57.4514,-152.2 57.4514,-171.2 152.451,-171.2 152.451,-152.2 57.4514,-152.2"/>
<polygon fill="none" stroke="black" points="57.4514,-152.2 57.4514,-171.2 152.451,-171.2 152.451,-152.2 57.4514,-152.2"/>
<text text-anchor="start" x="91.5006" y="-158.3" font-family="Helvetica,sans-Serif" font-size="11.00">taxon</text>
<polygon fill="#bed1b8" stroke="none" points="57.4514,-133.2 57.4514,-152.2 152.451,-152.2 152.451,-133.2 57.4514,-133.2"/>
<polygon fill="none" stroke="black" points="57.4514,-133.2 57.4514,-152.2 152.451,-152.2 152.451,-133.2 57.4514,-133.2"/>
<text text-anchor="start" x="60.4514" y="-139.3" font-family="Helvetica,sans-Serif" font-size="11.00">taxon_id</text>
<polygon fill="none" stroke="black" points="57.4514,-114.2 57.4514,-133.2 152.451,-133.2 152.451,-114.2 57.4514,-114.2"/>
<text text-anchor="start" x="60.4514" y="-120.3" font-family="Helvetica,sans-Serif" font-size="11.00">taxon_rank</text>
<polygon fill="none" stroke="black" points="57.4514,-95.2 57.4514,-114.2 152.451,-114.2 152.451,-95.2 57.4514,-95.2"/>
<text text-anchor="start" x="60.4514" y="-101.3" font-family="Helvetica,sans-Serif" font-size="11.00">taxon_name</text>
<polygon fill="none" stroke="black" points="57.4514,-76.2 57.4514,-95.2 152.451,-95.2 152.451,-76.2 57.4514,-76.2"/>
<text text-anchor="start" x="60.4514" y="-82.3" font-family="Helvetica,sans-Serif" font-size="11.00">authority_system</text>
<polygon fill="none" stroke="black" points="57.4514,-57.2 57.4514,-76.2 152.451,-76.2 152.451,-57.2 57.4514,-57.2"/>
<text text-anchor="start" x="60.0197" y="-63.3" font-family="Helvetica,sans-Serif" font-size="11.00">authority_taxon_id</text>
<polygon fill="#f7f7f7" stroke="none" points="57.4514,-38.2 57.4514,-57.2 81.4514,-57.2 81.4514,-38.2 57.4514,-38.2"/>
<polygon fill="none" stroke="black" points="57.4514,-38.2 57.4514,-57.2 81.4514,-57.2 81.4514,-38.2 57.4514,-38.2"/>
<text text-anchor="start" x="60.4514" y="-44.3" font-family="Helvetica,sans-Serif" font-size="11.00"> &#160;</text>
<polygon fill="#f7f7f7" stroke="none" points="81.4514,-38.2 81.4514,-57.2 125.451,-57.2 125.451,-38.2 81.4514,-38.2"/>
<polygon fill="none" stroke="black" points="81.4514,-38.2 81.4514,-57.2 125.451,-57.2 125.451,-38.2 81.4514,-38.2"/>
<text text-anchor="start" x="90.0619" y="-44.3" font-family="Helvetica,sans-Serif" font-size="11.00">0 rows</text>
<polygon fill="#f7f7f7" stroke="none" points="125.451,-38.2 125.451,-57.2 152.451,-57.2 152.451,-38.2 125.451,-38.2"/>
<polygon fill="none" stroke="black" points="125.451,-38.2 125.451,-57.2 152.451,-57.2 152.451,-38.2 125.451,-38.2"/>
<text text-anchor="start" x="133.857" y="-44.3" font-family="Helvetica,sans-Serif" font-size="11.00">2 &gt;</text>
</a>
</g>
</g>
<!-- observation&#45;&gt;taxon -->
<g id="edge4" class="edge"><title>observation:taxon_id:w&#45;&gt;taxon:taxon_id:e</title>
<path fill="none" stroke="black" d="M238.752,-468.02C115.742,-446.681 299.676,-143.2 153.451,-143.2"/>
<polygon fill="black" stroke="black" points="245.477,-468.56 253.163,-472.788 249.464,-468.88 253.451,-469.2 253.451,-469.2 253.451,-469.2 249.464,-468.88 253.74,-465.612 245.477,-468.56 245.477,-468.56"/>
<ellipse fill="none" stroke="black" cx="242.287" cy="-468.303" rx="3.2" ry="3.2"/>
</g>
<!-- sampling_location&#45;&gt;sampling_location -->
<g id="edge5" class="edge"><title>sampling_location:parent_sampling_location_id:w&#45;&gt;sampling_location:sampling_location_id:e</title>
<path fill="none" stroke="black" d="M20.9702,-230.319C-17.7175,-269.507 -8.41773,-362.2 104.951,-362.2 228.451,-362.2 228.451,-348.2 177.451,-317.2"/>
<polygon fill="black" stroke="black" points="26.187,-226.176 34.6905,-224.019 29.3192,-223.688 32.4514,-221.2 32.4514,-221.2 32.4514,-221.2 29.3192,-223.688 30.2123,-218.381 26.187,-226.176 26.187,-226.176"/>
<ellipse fill="none" stroke="black" cx="23.6813" cy="-228.166" rx="3.20001" ry="3.20001"/>
</g>
<!-- sampling_location_ancillary -->
<g id="node5" class="node"><title>sampling_location_ancillary</title>
<g id="a_node5"><a xlink:href="tables/sampling_location_ancillary.html" xlink:title="sampling_location_ancillary">
<polygon fill="#ffffff" stroke="none" points="231.951,-211.2 231.951,-363.2 386.951,-363.2 386.951,-211.2 231.951,-211.2"/>
<polygon fill="#9bab96" stroke="none" points="232.451,-344.2 232.451,-363.2 387.451,-363.2 387.451,-344.2 232.451,-344.2"/>
<polygon fill="none" stroke="black" points="232.451,-344.2 232.451,-363.2 387.451,-363.2 387.451,-344.2 232.451,-344.2"/>
<text text-anchor="start" x="242.721" y="-350.3" font-family="Helvetica,sans-Serif" font-size="11.00">sampling_location_ancillary</text>
<polygon fill="#bed1b8" stroke="none" points="232.451,-325.2 232.451,-344.2 387.451,-344.2 387.451,-325.2 232.451,-325.2"/>
<polygon fill="none" stroke="black" points="232.451,-325.2 232.451,-344.2 387.451,-344.2 387.451,-325.2 232.451,-325.2"/>
<text text-anchor="start" x="235.386" y="-331.3" font-family="Helvetica,sans-Serif" font-size="11.00">sampling_location_ancillary_id</text>
<polygon fill="none" stroke="black" points="232.451,-306.2 232.451,-325.2 387.451,-325.2 387.451,-306.2 232.451,-306.2"/>
<text text-anchor="start" x="235.451" y="-312.3" font-family="Helvetica,sans-Serif" font-size="11.00">sampling_location_id</text>
<polygon fill="none" stroke="black" points="232.451,-287.2 232.451,-306.2 387.451,-306.2 387.451,-287.2 232.451,-287.2"/>
<text text-anchor="start" x="235.451" y="-293.3" font-family="Helvetica,sans-Serif" font-size="11.00">datetime</text>
<polygon fill="none" stroke="black" points="232.451,-268.2 232.451,-287.2 387.451,-287.2 387.451,-268.2 232.451,-268.2"/>
<text text-anchor="start" x="235.451" y="-274.3" font-family="Helvetica,sans-Serif" font-size="11.00">variable_name</text>
<polygon fill="none" stroke="black" points="232.451,-249.2 232.451,-268.2 387.451,-268.2 387.451,-249.2 232.451,-249.2"/>
<text text-anchor="start" x="235.451" y="-255.3" font-family="Helvetica,sans-Serif" font-size="11.00">value</text>
<polygon fill="none" stroke="black" points="232.451,-230.2 232.451,-249.2 387.451,-249.2 387.451,-230.2 232.451,-230.2"/>
<text text-anchor="start" x="235.451" y="-236.3" font-family="Helvetica,sans-Serif" font-size="11.00">unit</text>
<polygon fill="#f7f7f7" stroke="none" points="232.451,-211.2 232.451,-230.2 295.451,-230.2 295.451,-211.2 232.451,-211.2"/>
<polygon fill="none" stroke="black" points="232.451,-211.2 232.451,-230.2 295.451,-230.2 295.451,-211.2 232.451,-211.2"/>
<text text-anchor="start" x="235.451" y="-217.3" font-family="Helvetica,sans-Serif" font-size="11.00">&lt; 1</text>
<polygon fill="#f7f7f7" stroke="none" points="295.451,-211.2 295.451,-230.2 354.451,-230.2 354.451,-211.2 295.451,-211.2"/>
<polygon fill="none" stroke="black" points="295.451,-211.2 295.451,-230.2 354.451,-230.2 354.451,-211.2 295.451,-211.2"/>
<text text-anchor="start" x="319.062" y="-217.3" font-family="Helvetica,sans-Serif" font-size="11.00">0 rows</text>
<polygon fill="#f7f7f7" stroke="none" points="354.451,-211.2 354.451,-230.2 387.451,-230.2 387.451,-211.2 354.451,-211.2"/>
<polygon fill="none" stroke="black" points="354.451,-211.2 354.451,-230.2 387.451,-230.2 387.451,-211.2 354.451,-211.2"/>
<text text-anchor="start" x="378.338" y="-217.3" font-family="Helvetica,sans-Serif" font-size="11.00"> &#160;</text>
</a>
</g>
</g>
<!-- sampling_location_ancillary&#45;&gt;sampling_location -->
<g id="edge6" class="edge"><title>sampling_location_ancillary:sampling_location_id:w&#45;&gt;sampling_location:sampling_location_id:e</title>
<path fill="none" stroke="black" d="M216.942,-316.348C204.006,-316.626 196.305,-317.2 178.451,-317.2"/>
<polygon fill="black" stroke="black" points="223.452,-316.281 231.488,-319.8 227.452,-316.241 231.451,-316.2 231.451,-316.2 231.451,-316.2 227.452,-316.241 231.415,-312.6 223.452,-316.281 223.452,-316.281"/>
<ellipse fill="none" stroke="black" cx="220.252" cy="-316.314" rx="3.2" ry="3.2"/>
</g>
<!-- taxon_ancillary -->
<g id="node7" class="node"><title>taxon_ancillary</title>
<g id="a_node7"><a xlink:href="tables/taxon_ancillary.html" xlink:title="taxon_ancillary">
<polygon fill="#ffffff" stroke="none" points="262.451,-38.2 262.451,-190.2 356.451,-190.2 356.451,-38.2 262.451,-38.2"/>
<polygon fill="#9bab96" stroke="none" points="262.451,-171.2 262.451,-190.2 356.451,-190.2 356.451,-171.2 262.451,-171.2"/>
<polygon fill="none" stroke="black" points="262.451,-171.2 262.451,-190.2 356.451,-190.2 356.451,-171.2 262.451,-171.2"/>
<text text-anchor="start" x="272.779" y="-177.3" font-family="Helvetica,sans-Serif" font-size="11.00">taxon_ancillary</text>
<polygon fill="#bed1b8" stroke="none" points="262.451,-152.2 262.451,-171.2 356.451,-171.2 356.451,-152.2 262.451,-152.2"/>
<polygon fill="none" stroke="black" points="262.451,-152.2 262.451,-171.2 356.451,-171.2 356.451,-152.2 262.451,-152.2"/>
<text text-anchor="start" x="265.443" y="-158.3" font-family="Helvetica,sans-Serif" font-size="11.00">taxon_ancillary_id</text>
<polygon fill="none" stroke="black" points="262.451,-133.2 262.451,-152.2 356.451,-152.2 356.451,-133.2 262.451,-133.2"/>
<text text-anchor="start" x="265.451" y="-139.3" font-family="Helvetica,sans-Serif" font-size="11.00">taxon_id</text>
<polygon fill="none" stroke="black" points="262.451,-114.2 262.451,-133.2 356.451,-133.2 356.451,-114.2 262.451,-114.2"/>
<text text-anchor="start" x="265.451" y="-120.3" font-family="Helvetica,sans-Serif" font-size="11.00">datetime</text>
<polygon fill="none" stroke="black" points="262.451,-95.2 262.451,-114.2 356.451,-114.2 356.451,-95.2 262.451,-95.2"/>
<text text-anchor="start" x="265.451" y="-101.3" font-family="Helvetica,sans-Serif" font-size="11.00">variable_name</text>
<polygon fill="none" stroke="black" points="262.451,-76.2 262.451,-95.2 356.451,-95.2 356.451,-76.2 262.451,-76.2"/>
<text text-anchor="start" x="265.451" y="-82.3" font-family="Helvetica,sans-Serif" font-size="11.00">value</text>
<polygon fill="none" stroke="black" points="262.451,-57.2 262.451,-76.2 356.451,-76.2 356.451,-57.2 262.451,-57.2"/>
<text text-anchor="start" x="265.451" y="-63.3" font-family="Helvetica,sans-Serif" font-size="11.00">author</text>
<polygon fill="#f7f7f7" stroke="none" points="262.451,-38.2 262.451,-57.2 294.451,-57.2 294.451,-38.2 262.451,-38.2"/>
<polygon fill="none" stroke="black" points="262.451,-38.2 262.451,-57.2 294.451,-57.2 294.451,-38.2 262.451,-38.2"/>
<text text-anchor="start" x="265.451" y="-44.3" font-family="Helvetica,sans-Serif" font-size="11.00">&lt; 1</text>
<polygon fill="#f7f7f7" stroke="none" points="294.451,-38.2 294.451,-57.2 338.451,-57.2 338.451,-38.2 294.451,-38.2"/>
<polygon fill="none" stroke="black" points="294.451,-38.2 294.451,-57.2 338.451,-57.2 338.451,-38.2 294.451,-38.2"/>
<text text-anchor="start" x="303.062" y="-44.3" font-family="Helvetica,sans-Serif" font-size="11.00">0 rows</text>
<polygon fill="#f7f7f7" stroke="none" points="338.451,-38.2 338.451,-57.2 356.451,-57.2 356.451,-38.2 338.451,-38.2"/>
<polygon fill="none" stroke="black" points="338.451,-38.2 338.451,-57.2 356.451,-57.2 356.451,-38.2 338.451,-38.2"/>
<text text-anchor="start" x="347.338" y="-44.3" font-family="Helvetica,sans-Serif" font-size="11.00"> &#160;</text>
</a>
</g>
</g>
<!-- taxon_ancillary&#45;&gt;taxon -->
<g id="edge7" class="edge"><title>taxon_ancillary:taxon_id:w&#45;&gt;taxon:taxon_id:e</title>
<path fill="none" stroke="black" d="M246.899,-143.2C210.396,-143.2 196.201,-143.2 153.451,-143.2"/>
<polygon fill="black" stroke="black" points="253.451,-143.2 261.451,-146.8 257.451,-143.2 261.451,-143.2 261.451,-143.2 261.451,-143.2 257.451,-143.2 261.451,-139.6 253.451,-143.2 253.451,-143.2"/>
<ellipse fill="none" stroke="black" cx="250.251" cy="-143.2" rx="3.2" ry="3.2"/>
</g>
</g>
</svg>
