<?xml version="1.0" encoding="UTF-8" standalone="no"?>
<!-- Generated by graphviz version 2.38.0 (20140413.2041)
 -->

<!-- Title: largeRelationshipsDiagram Pages: 1 -->

<svg
   xmlns:dc="http://purl.org/dc/elements/1.1/"
   xmlns:cc="http://creativecommons.org/ns#"
   xmlns:rdf="http://www.w3.org/1999/02/22-rdf-syntax-ns#"
   xmlns:svg="http://www.w3.org/2000/svg"
   xmlns="http://www.w3.org/2000/svg"
   xmlns:xlink="http://www.w3.org/1999/xlink"
   xmlns:sodipodi="http://sodipodi.sourceforge.net/DTD/sodipodi-0.dtd"
   xmlns:inkscape="http://www.inkscape.org/namespaces/inkscape"
   width="513pt"
   height="625pt"
   viewBox="0.00 0.00 513.00 624.70"
   id="svg3621"
   version="1.1"
   inkscape:version="0.91 r13725"
   sodipodi:docname="relationships.real.large_temp1.svg"
   inkscape:export-filename="/Users/mob/schemaSpy/edi/ecocom_dp/diagrams/summary/7_tables.png"
   inkscape:export-xdpi="90"
   inkscape:export-ydpi="90">
  <metadata
     id="metadata4127">
    <rdf:RDF>
      <cc:Work
         rdf:about="">
        <dc:format>image/svg+xml</dc:format>
        <dc:type
           rdf:resource="http://purl.org/dc/dcmitype/StillImage" />
        <dc:title></dc:title>
      </cc:Work>
    </rdf:RDF>
  </metadata>
  <defs
     id="defs4125" />
  <sodipodi:namedview
     pagecolor="#ffffff"
     bordercolor="#666666"
     borderopacity="1"
     objecttolerance="10"
     gridtolerance="10"
     guidetolerance="10"
     inkscape:pageopacity="0"
     inkscape:pageshadow="2"
     inkscape:window-width="1612"
     inkscape:window-height="996"
     id="namedview4123"
     showgrid="false"
     inkscape:zoom="1.11232"
     inkscape:cx="316.21098"
     inkscape:cy="345.90476"
     inkscape:window-x="132"
     inkscape:window-y="44"
     inkscape:window-maximized="0"
     inkscape:current-layer="svg3621" />
  <g
     class="node"
     id="node1"
     transform="translate(451.52434,679.51215)">
    <title
       id="title3631">dataset_summary</title>
    <g
       id="a_node1">
      <a
         xlink:href="tables/dataset_summary.html"
         xlink:title="dataset_summary"
         id="a3634">
        <polygon
           style="fill:#ffffff;stroke:none"
           id="polygon3636"
           points="165,-384.7 8,-384.7 8,-384.7 8,-555.7 165,-555.7 " />
        <polygon
           style="fill:#9bab96;stroke:none"
           id="polygon3638"
           points="165.5,-536.2 8.5,-536.2 8.5,-536.2 8.5,-555.2 165.5,-555.2 " />
        <polygon
           style="fill:none;stroke:#000000"
           id="polygon3640"
           points="165.5,-536.2 8.5,-536.2 8.5,-536.2 8.5,-555.2 165.5,-555.2 " />
        <text
           style="font-size:11px;font-family:Helvetica, sans-Serif;text-anchor:start"
           id="text3642"
           font-size="11.00"
           y="-542.29999"
           x="43.2981">dataset_summary</text>
        <polygon
           style="fill:#bed1b8;stroke:none"
           id="polygon3644"
           points="165.5,-517.2 8.5,-517.2 8.5,-517.2 8.5,-536.2 165.5,-536.2 " />
        <polygon
           style="fill:none;stroke:#000000"
           id="polygon3646"
           points="165.5,-517.2 8.5,-517.2 8.5,-517.2 8.5,-536.2 165.5,-536.2 " />
        <text
           style="font-size:11px;font-family:Helvetica, sans-Serif;text-anchor:start"
           id="text3648"
           font-size="11.00"
           y="-523.29999"
           x="11.5">package_id</text>
        <polygon
           style="fill:none;stroke:#000000"
           id="polygon3650"
           points="165.5,-498.2 8.5,-498.2 8.5,-498.2 8.5,-517.2 165.5,-517.2 " />
        <text
           style="font-size:11px;font-family:Helvetica, sans-Serif;text-anchor:start"
           id="text3652"
           font-size="11.00"
           y="-504.29999"
           x="11.5">original_package_id</text>
        <polygon
           style="fill:none;stroke:#000000"
           id="polygon3654"
           points="165.5,-479.2 8.5,-479.2 8.5,-479.2 8.5,-498.2 165.5,-498.2 " />
        <text
           style="font-size:11px;font-family:Helvetica, sans-Serif;text-anchor:start"
           id="text3656"
           font-size="11.00"
           y="-485.29999"
           x="11.5">length_of_survey_years</text>
        <polygon
           style="fill:none;stroke:#000000"
           id="polygon3658"
           points="165.5,-460.2 8.5,-460.2 8.5,-460.2 8.5,-479.2 165.5,-479.2 " />
        <text
           style="font-size:11px;font-family:Helvetica, sans-Serif;text-anchor:start"
           id="text3660"
           font-size="11.00"
           y="-466.29999"
           x="11.5">number_of_years_sampled</text>
        <polygon
           style="fill:none;stroke:#000000"
           id="polygon3662"
           points="165.5,-441.2 8.5,-441.2 8.5,-441.2 8.5,-460.2 165.5,-460.2 " />
        <text
           style="font-size:11px;font-family:Helvetica, sans-Serif;text-anchor:start"
           id="text3664"
           font-size="11.00"
           y="-447.29999"
           x="11.5">std_dev_interval_betw_years</text>
        <polygon
           style="fill:none;stroke:#000000"
           id="polygon3666"
           points="165.5,-422.2 8.5,-422.2 8.5,-422.2 8.5,-441.2 165.5,-441.2 " />
        <text
           style="font-size:11px;font-family:Helvetica, sans-Serif;text-anchor:start"
           id="text3668"
           font-size="11.00"
           y="-428.29999"
           x="11.5">max_num_taxa</text>
        <polygon
           style="fill:none;stroke:#000000"
           id="polygon3670"
           points="165.5,-403.2 8.5,-403.2 8.5,-403.2 8.5,-422.2 165.5,-422.2 " />
        <text
           style="font-size:11px;font-family:Helvetica, sans-Serif;text-anchor:start"
           id="text3672"
           font-size="11.00"
           y="-409.29999"
           x="11.4927">geo_extent_bounding_box_m2</text>
        <polygon
           style="fill:#f7f7f7;stroke:none"
           id="polygon3674"
           points="63.5,-384.2 8.5,-384.2 8.5,-384.2 8.5,-403.2 63.5,-403.2 " />
        <polygon
           style="fill:none;stroke:#000000"
           id="polygon3676"
           points="63.5,-384.2 8.5,-384.2 8.5,-384.2 8.5,-403.2 63.5,-403.2 " />
        <text
           style="font-size:11px;font-family:Helvetica, sans-Serif;text-anchor:start"
           id="text3678"
           font-size="11.00"
           y="-390.29999"
           x="11.5"> </text>
        <polygon
           style="fill:#f7f7f7;stroke:none"
           id="polygon3680"
           points="122.5,-384.2 63.5,-384.2 63.5,-384.2 63.5,-403.2 122.5,-403.2 " />
        <polygon
           style="fill:none;stroke:#000000"
           id="polygon3682"
           points="122.5,-384.2 63.5,-384.2 63.5,-384.2 63.5,-403.2 122.5,-403.2 " />
        <text
           style="font-size:11px;font-family:Helvetica, sans-Serif;text-anchor:start"
           id="text3684"
           font-size="11.00"
           y="-390.29999"
           x="87.110497">0 rows</text>
        <polygon
           style="fill:#f7f7f7;stroke:none"
           id="polygon3686"
           points="165.5,-384.2 122.5,-384.2 122.5,-384.2 122.5,-403.2 165.5,-403.2 " />
        <polygon
           style="fill:none;stroke:#000000"
           id="polygon3688"
           points="165.5,-384.2 122.5,-384.2 122.5,-384.2 122.5,-403.2 165.5,-403.2 " />
        <text
           style="font-size:11px;font-family:Helvetica, sans-Serif;text-anchor:start"
           id="text3690"
           font-size="11.00"
           y="-390.29999"
           x="146.905">1 &gt;</text>
      </a>
    </g>
  </g>
  <g
     class="node"
     id="node2"
     transform="translate(84,515.1)">
    <title
       id="title3693">location</title>
    <g
       id="a_node2">
      <a
         xlink:href="tables/location.html"
         xlink:title="location"
         id="a3696">
        <polygon
           style="fill:#ffffff;stroke:none"
           id="polygon3698"
           points="134,-345.2 134,-193.2 39,-193.2 39,-193.2 39,-345.2 " />
        <polygon
           style="fill:#9bab96;stroke:none"
           id="polygon3700"
           points="134.5,-345.2 134.5,-326.2 39.5,-326.2 39.5,-326.2 39.5,-345.2 " />
        <polygon
           style="fill:none;stroke:#000000"
           id="polygon3702"
           points="134.5,-345.2 134.5,-326.2 39.5,-326.2 39.5,-326.2 39.5,-345.2 " />
        <text
           style="font-size:11px;font-family:Helvetica, sans-Serif;text-anchor:start"
           id="text3704"
           font-size="11.00"
           y="-332.29999"
           x="68.050797">location</text>
        <polygon
           style="fill:#bed1b8;stroke:none"
           id="polygon3706"
           points="134.5,-326.2 134.5,-307.2 39.5,-307.2 39.5,-307.2 39.5,-326.2 " />
        <polygon
           style="fill:none;stroke:#000000"
           id="polygon3708"
           points="134.5,-326.2 134.5,-307.2 39.5,-307.2 39.5,-307.2 39.5,-326.2 " />
        <text
           style="font-size:11px;font-family:Helvetica, sans-Serif;text-anchor:start"
           id="text3710"
           font-size="11.00"
           y="-313.29999"
           x="42.5">location_id</text>
        <polygon
           style="fill:none;stroke:#000000"
           id="polygon3712"
           points="134.5,-307.2 134.5,-288.2 39.5,-288.2 39.5,-288.2 39.5,-307.2 " />
        <text
           style="font-size:11px;font-family:Helvetica, sans-Serif;text-anchor:start"
           id="text3714"
           font-size="11.00"
           y="-294.29999"
           x="42.5">location_name</text>
        <polygon
           style="fill:none;stroke:#000000"
           id="polygon3716"
           points="134.5,-288.2 134.5,-269.2 39.5,-269.2 39.5,-269.2 39.5,-288.2 " />
        <text
           style="font-size:11px;font-family:Helvetica, sans-Serif;text-anchor:start"
           id="text3718"
           font-size="11.00"
           y="-275.29999"
           x="42.5">latitude</text>
        <polygon
           style="fill:none;stroke:#000000"
           id="polygon3720"
           points="134.5,-269.2 134.5,-250.2 39.5,-250.2 39.5,-250.2 39.5,-269.2 " />
        <text
           style="font-size:11px;font-family:Helvetica, sans-Serif;text-anchor:start"
           id="text3722"
           font-size="11.00"
           y="-256.29999"
           x="42.5">longitude</text>
        <polygon
           style="fill:none;stroke:#000000"
           id="polygon3724"
           points="134.5,-250.2 134.5,-231.2 39.5,-231.2 39.5,-231.2 39.5,-250.2 " />
        <text
           style="font-size:11px;font-family:Helvetica, sans-Serif;text-anchor:start"
           id="text3726"
           font-size="11.00"
           y="-237.3"
           x="42.5">elevation</text>
        <polygon
           style="fill:none;stroke:#000000"
           id="polygon3728"
           points="134.5,-231.2 134.5,-212.2 39.5,-212.2 39.5,-212.2 39.5,-231.2 " />
        <text
           style="font-size:11px;font-family:Helvetica, sans-Serif;text-anchor:start"
           id="text3730"
           font-size="11.00"
           y="-218.3"
           x="42.068802">parent_location_id</text>
        <polygon
           style="fill:#f7f7f7;stroke:none"
           id="polygon3732"
           points="67.5,-212.2 67.5,-193.2 39.5,-193.2 39.5,-193.2 39.5,-212.2 " />
        <polygon
           style="fill:none;stroke:#000000"
           id="polygon3734"
           points="67.5,-212.2 67.5,-193.2 39.5,-193.2 39.5,-193.2 39.5,-212.2 " />
        <text
           style="font-size:11px;font-family:Helvetica, sans-Serif;text-anchor:start"
           id="text3736"
           font-size="11.00"
           y="-199.3"
           x="42.5">&lt; 1</text>
        <polygon
           style="fill:#f7f7f7;stroke:none"
           id="polygon3738"
           points="109.5,-212.2 109.5,-193.2 67.5,-193.2 67.5,-193.2 67.5,-212.2 " />
        <polygon
           style="fill:none;stroke:#000000"
           id="polygon3740"
           points="109.5,-212.2 109.5,-193.2 67.5,-193.2 67.5,-193.2 67.5,-212.2 " />
        <text
           style="font-size:11px;font-family:Helvetica, sans-Serif;text-anchor:start"
           id="text3742"
           font-size="11.00"
           y="-199.3"
           x="74.110497">0 rows</text>
        <polygon
           style="fill:#f7f7f7;stroke:none"
           id="polygon3744"
           points="134.5,-212.2 134.5,-193.2 109.5,-193.2 109.5,-193.2 109.5,-212.2 " />
        <polygon
           style="fill:none;stroke:#000000"
           id="polygon3746"
           points="134.5,-212.2 134.5,-193.2 109.5,-193.2 109.5,-193.2 109.5,-212.2 " />
        <text
           style="font-size:11px;font-family:Helvetica, sans-Serif;text-anchor:start"
           id="text3748"
           font-size="11.00"
           y="-199.3"
           x="115.905">3 &gt;</text>
      </a>
    </g>
  </g>
  <g
     class="edge"
     id="edge1"
     transform="translate(84,515.1)">
    <title
       id="title3751">location:parent_location_id:w-&gt;location:location_id:e</title>
    <path
       style="fill:none;stroke:#000000"
       inkscape:connector-curvature="0"
       id="path3753"
       d="M 28.5896,-231.076 C -5.2816,-270.686 2.17383,-362.2 87,-362.2 c 93,0 93,14 47.5,45" />
    <polygon
       style="fill:#000000;stroke:#000000"
       id="polygon3755"
       points="36.5345,-223.884 39.5,-221.2 39.5,-221.2 39.5,-221.2 36.5345,-223.884 37.084,-218.531 33.569,-226.569 33.569,-226.569 33.569,-226.569 41.916,-223.869 " />
    <circle
       style="fill:none;stroke:#000000"
       r="3.2000101"
       id="ellipse3757"
       cy="-228.716"
       cx="31.196699" />
  </g>
  <g
     class="node"
     id="node3"
     transform="translate(-250.75926,512.54626)">
    <title
       id="title3760">location_ancillary</title>
    <g
       id="a_node3">
      <a
         xlink:href="tables/location_ancillary.html"
         xlink:title="location_ancillary"
         id="a3763">
        <polygon
           style="fill:#ffffff;stroke:none"
           id="polygon3765"
           points="322,-363.2 322,-211.2 217,-211.2 217,-211.2 217,-363.2 " />
        <polygon
           style="fill:#9bab96;stroke:none"
           id="polygon3767"
           points="322.5,-363.2 322.5,-344.2 217.5,-344.2 217.5,-344.2 217.5,-363.2 " />
        <polygon
           style="fill:none;stroke:#000000"
           id="polygon3769"
           points="322.5,-363.2 322.5,-344.2 217.5,-344.2 217.5,-344.2 217.5,-363.2 " />
        <text
           style="font-size:11px;font-family:Helvetica, sans-Serif;text-anchor:start"
           id="text3771"
           font-size="11.00"
           y="-350.29999"
           x="227.82899">location_ancillary</text>
        <polygon
           style="fill:#bed1b8;stroke:none"
           id="polygon3773"
           points="322.5,-344.2 322.5,-325.2 217.5,-325.2 217.5,-325.2 217.5,-344.2 " />
        <polygon
           style="fill:none;stroke:#000000"
           id="polygon3775"
           points="322.5,-344.2 322.5,-325.2 217.5,-325.2 217.5,-325.2 217.5,-344.2 " />
        <text
           style="font-size:11px;font-family:Helvetica, sans-Serif;text-anchor:start"
           id="text3777"
           font-size="11.00"
           y="-331.29999"
           x="220.493">location_ancillary_id</text>
        <polygon
           style="fill:#f4f7da;stroke:none"
           id="polygon3779"
           points="322.5,-325.2 322.5,-306.2 217.5,-306.2 217.5,-306.2 217.5,-325.2 " />
        <polygon
           style="fill:none;stroke:#000000"
           id="polygon3781"
           points="322.5,-325.2 322.5,-306.2 217.5,-306.2 217.5,-306.2 217.5,-325.2 " />
        <text
           style="font-size:11px;font-family:Helvetica, sans-Serif;text-anchor:start"
           id="text3783"
           font-size="11.00"
           y="-312.29999"
           x="220.5">location_id</text>
        <polygon
           style="fill:#f4f7da;stroke:none"
           id="polygon3785"
           points="322.5,-306.2 322.5,-287.2 217.5,-287.2 217.5,-287.2 217.5,-306.2 " />
        <polygon
           style="fill:none;stroke:#000000"
           id="polygon3787"
           points="322.5,-306.2 322.5,-287.2 217.5,-287.2 217.5,-287.2 217.5,-306.2 " />
        <text
           style="font-size:11px;font-family:Helvetica, sans-Serif;text-anchor:start"
           id="text3789"
           font-size="11.00"
           y="-293.29999"
           x="220.5">datetime</text>
        <polygon
           style="fill:#f4f7da;stroke:none"
           id="polygon3791"
           points="322.5,-287.2 322.5,-268.2 217.5,-268.2 217.5,-268.2 217.5,-287.2 " />
        <polygon
           style="fill:none;stroke:#000000"
           id="polygon3793"
           points="322.5,-287.2 322.5,-268.2 217.5,-268.2 217.5,-268.2 217.5,-287.2 " />
        <text
           style="font-size:11px;font-family:Helvetica, sans-Serif;text-anchor:start"
           id="text3795"
           font-size="11.00"
           y="-274.29999"
           x="220.5">variable_name</text>
        <polygon
           style="fill:none;stroke:#000000"
           id="polygon3797"
           points="322.5,-268.2 322.5,-249.2 217.5,-249.2 217.5,-249.2 217.5,-268.2 " />
        <text
           style="font-size:11px;font-family:Helvetica, sans-Serif;text-anchor:start"
           id="text3799"
           font-size="11.00"
           y="-255.3"
           x="220.5">value</text>
        <polygon
           style="fill:none;stroke:#000000"
           id="polygon3801"
           points="322.5,-249.2 322.5,-230.2 217.5,-230.2 217.5,-230.2 217.5,-249.2 " />
        <text
           style="font-size:11px;font-family:Helvetica, sans-Serif;text-anchor:start"
           id="text3803"
           font-size="11.00"
           y="-236.3"
           x="220.5">unit</text>
        <polygon
           style="fill:#f7f7f7;stroke:none"
           id="polygon3805"
           points="255.5,-230.2 255.5,-211.2 217.5,-211.2 217.5,-211.2 217.5,-230.2 " />
        <polygon
           style="fill:none;stroke:#000000"
           id="polygon3807"
           points="255.5,-230.2 255.5,-211.2 217.5,-211.2 217.5,-211.2 217.5,-230.2 " />
        <text
           style="font-size:11px;font-family:Helvetica, sans-Serif;text-anchor:start"
           id="text3809"
           font-size="11.00"
           y="-217.3"
           x="220.5">&lt; 1</text>
        <polygon
           style="fill:#f7f7f7;stroke:none"
           id="polygon3811"
           points="301.5,-230.2 301.5,-211.2 255.5,-211.2 255.5,-211.2 255.5,-230.2 " />
        <polygon
           style="fill:none;stroke:#000000"
           id="polygon3813"
           points="301.5,-230.2 301.5,-211.2 255.5,-211.2 255.5,-211.2 255.5,-230.2 " />
        <text
           style="font-size:11px;font-family:Helvetica, sans-Serif;text-anchor:start"
           id="text3815"
           font-size="11.00"
           y="-217.3"
           x="266.11099">0 rows</text>
        <polygon
           style="fill:#f7f7f7;stroke:none"
           id="polygon3817"
           points="322.5,-230.2 322.5,-211.2 301.5,-211.2 301.5,-211.2 301.5,-230.2 " />
        <polygon
           style="fill:none;stroke:#000000"
           id="polygon3819"
           points="322.5,-230.2 322.5,-211.2 301.5,-211.2 301.5,-211.2 301.5,-230.2 " />
        <text
           style="font-size:11px;font-family:Helvetica, sans-Serif;text-anchor:start"
           id="text3821"
           font-size="11.00"
           y="-217.3"
           x="313.38599"> </text>
      </a>
    </g>
  </g>
  <g
     class="edge"
     id="edge2"
     transform="matrix(-0.85830687,0,0,1.0061499,257.47272,517.04461)">
    <title
       id="title3824">location_ancillary:location_id:w-&gt;location:location_id:e</title>
    <path
       style="fill:none;stroke:#000000"
       inkscape:connector-curvature="0"
       id="path3826"
       d="m 202.076,-316.26 c -24.844,-0.215 -14.13032,0.48964 -44.78932,0.48964"
       sodipodi:nodetypes="cc" />
    <polygon
       style="fill:#000000;stroke:#000000"
       id="polygon3828"
       points="212.5,-316.217 216.485,-312.6 208.5,-316.233 208.5,-316.233 208.5,-316.233 216.515,-319.8 212.5,-316.217 216.5,-316.2 216.5,-316.2 216.5,-316.2 " />
    <circle
       style="fill:none;stroke:#000000"
       r="3.2"
       id="ellipse3830"
       cy="-316.246"
       cx="205.3" />
  </g>
  <g
     class="node"
     id="node4"
     transform="translate(83.335916,700.43757)">
    <title
       id="title3833">observation</title>
    <g
       id="a_node4">
      <a
         xlink:href="tables/observation.html"
         xlink:title="observation"
         id="a3836">
        <polygon
           style="fill:#ffffff;stroke:none"
           id="polygon3838"
           points="214,-384.7 214,-593.7 325,-593.7 325,-384.7 214,-384.7 " />
        <polygon
           style="fill:#9bab96;stroke:none"
           id="polygon3840"
           points="214.5,-574.2 214.5,-593.2 325.5,-593.2 325.5,-574.2 214.5,-574.2 " />
        <polygon
           style="fill:none;stroke:#000000"
           id="polygon3842"
           points="214.5,-574.2 214.5,-593.2 325.5,-593.2 325.5,-574.2 214.5,-574.2 " />
        <text
           style="font-size:11px;font-family:Helvetica, sans-Serif;text-anchor:start"
           id="text3844"
           font-size="11.00"
           y="-580.29999"
           x="241.575">observation</text>
        <polygon
           style="fill:#bed1b8;stroke:none"
           id="polygon3846"
           points="214.5,-555.2 214.5,-574.2 325.5,-574.2 325.5,-555.2 214.5,-555.2 " />
        <polygon
           style="fill:none;stroke:#000000"
           id="polygon3848"
           points="214.5,-555.2 214.5,-574.2 325.5,-574.2 325.5,-555.2 214.5,-555.2 " />
        <text
           style="font-size:11px;font-family:Helvetica, sans-Serif;text-anchor:start"
           id="text3850"
           font-size="11.00"
           y="-561.29999"
           x="217.5">observation_id</text>
        <polygon
           style="fill:none;stroke:#000000"
           id="polygon3852"
           points="214.5,-536.2 214.5,-555.2 325.5,-555.2 325.5,-536.2 214.5,-536.2 " />
        <text
           style="font-size:11px;font-family:Helvetica, sans-Serif;text-anchor:start"
           id="text3854"
           font-size="11.00"
           y="-542.29999"
           x="217.5">event_id</text>
        <polygon
           style="fill:none;stroke:#000000"
           id="polygon3856"
           points="214.5,-517.2 214.5,-536.2 325.5,-536.2 325.5,-517.2 214.5,-517.2 " />
        <text
           style="font-size:11px;font-family:Helvetica, sans-Serif;text-anchor:start"
           id="text3858"
           font-size="11.00"
           y="-523.29999"
           x="217.5">package_id</text>
        <polygon
           style="fill:none;stroke:#000000"
           id="polygon3860"
           points="214.5,-498.2 214.5,-517.2 325.5,-517.2 325.5,-498.2 214.5,-498.2 " />
        <text
           style="font-size:11px;font-family:Helvetica, sans-Serif;text-anchor:start"
           id="text3862"
           font-size="11.00"
           y="-504.29999"
           x="217.5">location_id</text>
        <polygon
           style="fill:none;stroke:#000000"
           id="polygon3864"
           points="214.5,-479.2 214.5,-498.2 325.5,-498.2 325.5,-479.2 214.5,-479.2 " />
        <text
           style="font-size:11px;font-family:Helvetica, sans-Serif;text-anchor:start"
           id="text3866"
           font-size="11.00"
           y="-485.29999"
           x="217.42999">observation_datetime</text>
        <polygon
           style="fill:none;stroke:#000000"
           id="polygon3868"
           points="214.5,-460.2 214.5,-479.2 325.5,-479.2 325.5,-460.2 214.5,-460.2 " />
        <text
           style="font-size:11px;font-family:Helvetica, sans-Serif;text-anchor:start"
           id="text3870"
           font-size="11.00"
           y="-466.29999"
           x="217.5">taxon_id</text>
        <polygon
           style="fill:none;stroke:#000000"
           id="polygon3872"
           points="214.5,-441.2 214.5,-460.2 325.5,-460.2 325.5,-441.2 214.5,-441.2 " />
        <text
           style="font-size:11px;font-family:Helvetica, sans-Serif;text-anchor:start"
           id="text3874"
           font-size="11.00"
           y="-447.29999"
           x="217.5">variable_name</text>
        <polygon
           style="fill:none;stroke:#000000"
           id="polygon3876"
           points="214.5,-422.2 214.5,-441.2 325.5,-441.2 325.5,-422.2 214.5,-422.2 " />
        <text
           style="font-size:11px;font-family:Helvetica, sans-Serif;text-anchor:start"
           id="text3878"
           font-size="11.00"
           y="-428.29999"
           x="217.5">value</text>
        <polygon
           style="fill:none;stroke:#000000"
           id="polygon3880"
           points="214.5,-403.2 214.5,-422.2 325.5,-422.2 325.5,-403.2 214.5,-403.2 " />
        <text
           style="font-size:11px;font-family:Helvetica, sans-Serif;text-anchor:start"
           id="text3882"
           font-size="11.00"
           y="-409.29999"
           x="217.5">unit</text>
        <polygon
           style="fill:#f7f7f7;stroke:none"
           id="polygon3884"
           points="214.5,-384.2 214.5,-403.2 250.5,-403.2 250.5,-384.2 214.5,-384.2 " />
        <polygon
           style="fill:none;stroke:#000000"
           id="polygon3886"
           points="214.5,-384.2 214.5,-403.2 250.5,-403.2 250.5,-384.2 214.5,-384.2 " />
        <text
           style="font-size:11px;font-family:Helvetica, sans-Serif;text-anchor:start"
           id="text3888"
           font-size="11.00"
           y="-390.29999"
           x="217.5">&lt; 3</text>
        <polygon
           style="fill:#f7f7f7;stroke:none"
           id="polygon3890"
           points="250.5,-384.2 250.5,-403.2 296.5,-403.2 296.5,-384.2 250.5,-384.2 " />
        <polygon
           style="fill:none;stroke:#000000"
           id="polygon3892"
           points="250.5,-384.2 250.5,-403.2 296.5,-403.2 296.5,-384.2 250.5,-384.2 " />
        <text
           style="font-size:11px;font-family:Helvetica, sans-Serif;text-anchor:start"
           id="text3894"
           font-size="11.00"
           y="-390.29999"
           x="261.11099">0 rows</text>
        <polygon
           style="fill:#f7f7f7;stroke:none"
           id="polygon3896"
           points="296.5,-384.2 296.5,-403.2 325.5,-403.2 325.5,-384.2 296.5,-384.2 " />
        <polygon
           style="fill:none;stroke:#000000"
           id="polygon3898"
           points="296.5,-384.2 296.5,-403.2 325.5,-403.2 325.5,-384.2 296.5,-384.2 " />
        <text
           style="font-size:11px;font-family:Helvetica, sans-Serif;text-anchor:start"
           id="text3900"
           font-size="11.00"
           y="-390.29999"
           x="306.905">1 &gt;</text>
      </a>
    </g>
  </g>
  <g
     class="edge"
     id="edge4"
     transform="matrix(1.0290824,0,0,0.99898279,78.55807,717.84514)">
    <title
       id="title3903">observation:package_id:w-&gt;dataset_summary:package_id:e</title>
    <path
       style="fill:none;stroke:#000000"
       inkscape:connector-curvature="0"
       id="path3905"
       d="m 198.896,-527.2 -61.1156,7.1995"
       sodipodi:nodetypes="cc" />
    <polygon
       style="fill:#000000;stroke:#000000"
       id="polygon3907"
       points="205.5,-527.2 205.5,-527.2 213.5,-530.8 209.5,-527.2 213.5,-527.2 213.5,-527.2 213.5,-527.2 209.5,-527.2 213.5,-523.6 205.5,-527.2 " />
    <circle
       style="fill:none;stroke:#000000"
       r="3.2"
       id="ellipse3909"
       cy="-527.20001"
       cx="202.3" />
  </g>
  <g
     class="edge"
     id="edge3"
     transform="matrix(1.0006406,0,0,-0.85696155,83.887584,-300.00692)">
    <title
       id="title3912">observation:location_id:w-&gt;location:location_id:e</title>
    <path
       style="fill:none;stroke:#000000"
       inkscape:connector-curvature="0"
       id="path3914"
       d="m 199.012,-506.314 c -38.08857,2.12096 -27.38809,107.09476 -77.76343,114.37791 -83.913923,12.13209 -91.288591,2.99478 -118.7177094,7.25076"
       sodipodi:nodetypes="csc" />
    <polygon
       style="fill:#000000;stroke:#000000"
       id="polygon3916"
       points="205.567,-507.167 213.035,-511.77 209.533,-507.684 213.5,-508.2 213.5,-508.2 213.5,-508.2 209.533,-507.684 213.965,-504.63 205.567,-507.167 205.567,-507.167 " />
    <circle
       style="fill:none;stroke:#000000"
       r="3.2"
       id="ellipse3918"
       cy="-506.754"
       cx="202.394" />
  </g>
  <g
     class="node"
     id="node6"
     transform="translate(84,523.1)">
    <title
       id="title3921">taxon</title>
    <g
       id="a_node6">
      <a
         xlink:href="tables/taxon.html"
         xlink:title="taxon"
         id="a3924">
        <polygon
           style="fill:#ffffff;stroke:none"
           id="polygon3926"
           points="39,-38.7 39,-38.7 39,-171.7 134,-171.7 134,-38.7 " />
        <polygon
           style="fill:#9bab96;stroke:none"
           id="polygon3928"
           points="39.5,-152.2 39.5,-152.2 39.5,-171.2 134.5,-171.2 134.5,-152.2 " />
        <polygon
           style="fill:none;stroke:#000000"
           id="polygon3930"
           points="39.5,-152.2 39.5,-152.2 39.5,-171.2 134.5,-171.2 134.5,-152.2 " />
        <text
           style="font-size:11px;font-family:Helvetica, sans-Serif;text-anchor:start"
           id="text3932"
           font-size="11.00"
           y="-158.3"
           x="73.549202">taxon</text>
        <polygon
           style="fill:#bed1b8;stroke:none"
           id="polygon3934"
           points="39.5,-133.2 39.5,-133.2 39.5,-152.2 134.5,-152.2 134.5,-133.2 " />
        <polygon
           style="fill:none;stroke:#000000"
           id="polygon3936"
           points="39.5,-133.2 39.5,-133.2 39.5,-152.2 134.5,-152.2 134.5,-133.2 " />
        <text
           style="font-size:11px;font-family:Helvetica, sans-Serif;text-anchor:start"
           id="text3938"
           font-size="11.00"
           y="-139.3"
           x="42.5">taxon_id</text>
        <polygon
           style="fill:none;stroke:#000000"
           id="polygon3940"
           points="39.5,-114.2 39.5,-114.2 39.5,-133.2 134.5,-133.2 134.5,-114.2 " />
        <text
           style="font-size:11px;font-family:Helvetica, sans-Serif;text-anchor:start"
           id="text3942"
           font-size="11.00"
           y="-120.3"
           x="42.5">taxon_rank</text>
        <polygon
           style="fill:none;stroke:#000000"
           id="polygon3944"
           points="39.5,-95.2 39.5,-95.2 39.5,-114.2 134.5,-114.2 134.5,-95.2 " />
        <text
           style="font-size:11px;font-family:Helvetica, sans-Serif;text-anchor:start"
           id="text3946"
           font-size="11.00"
           y="-101.3"
           x="42.5">taxon_name</text>
        <polygon
           style="fill:none;stroke:#000000"
           id="polygon3948"
           points="39.5,-76.2 39.5,-76.2 39.5,-95.2 134.5,-95.2 134.5,-76.2 " />
        <text
           style="font-size:11px;font-family:Helvetica, sans-Serif;text-anchor:start"
           id="text3950"
           font-size="11.00"
           y="-82.300003"
           x="42.5">authority_system</text>
        <polygon
           style="fill:none;stroke:#000000"
           id="polygon3952"
           points="39.5,-57.2 39.5,-57.2 39.5,-76.2 134.5,-76.2 134.5,-57.2 " />
        <text
           style="font-size:11px;font-family:Helvetica, sans-Serif;text-anchor:start"
           id="text3954"
           font-size="11.00"
           y="-63.299999"
           x="42.068298">authority_taxon_id</text>
        <polygon
           style="fill:#f7f7f7;stroke:none"
           id="polygon3956"
           points="39.5,-38.2 39.5,-38.2 39.5,-57.2 63.5,-57.2 63.5,-38.2 " />
        <polygon
           style="fill:none;stroke:#000000"
           id="polygon3958"
           points="39.5,-38.2 39.5,-38.2 39.5,-57.2 63.5,-57.2 63.5,-38.2 " />
        <text
           style="font-size:11px;font-family:Helvetica, sans-Serif;text-anchor:start"
           id="text3960"
           font-size="11.00"
           y="-44.299999"
           x="42.5"> </text>
        <polygon
           style="fill:#f7f7f7;stroke:none"
           id="polygon3962"
           points="63.5,-38.2 63.5,-38.2 63.5,-57.2 107.5,-57.2 107.5,-38.2 " />
        <polygon
           style="fill:none;stroke:#000000"
           id="polygon3964"
           points="63.5,-38.2 63.5,-38.2 63.5,-57.2 107.5,-57.2 107.5,-38.2 " />
        <text
           style="font-size:11px;font-family:Helvetica, sans-Serif;text-anchor:start"
           id="text3966"
           font-size="11.00"
           y="-44.299999"
           x="72.110497">0 rows</text>
        <polygon
           style="fill:#f7f7f7;stroke:none"
           id="polygon3968"
           points="107.5,-38.2 107.5,-38.2 107.5,-57.2 134.5,-57.2 134.5,-38.2 " />
        <polygon
           style="fill:none;stroke:#000000"
           id="polygon3970"
           points="107.5,-38.2 107.5,-38.2 107.5,-57.2 134.5,-57.2 134.5,-38.2 " />
        <text
           style="font-size:11px;font-family:Helvetica, sans-Serif;text-anchor:start"
           id="text3972"
           font-size="11.00"
           y="-44.299999"
           x="115.905">2 &gt;</text>
      </a>
    </g>
  </g>
  <g
     class="edge"
     id="edge5"
     transform="translate(84,700.98654)">
    <title
       id="title3975">observation:taxon_id:w-&gt;taxon:taxon_id:e</title>
    <path
       style="fill:none;stroke:#000000"
       inkscape:connector-curvature="0"
       id="path3977"
       d="m 199.621,-464.59 c -42.346,32.662 4.95474,58.16624 -20.86726,111.21624 -10.524,21.621 -19.92695,33.24626 -43.97295,33.24626"
       sodipodi:nodetypes="csc" />
    <polygon
       style="fill:#000000;stroke:#000000"
       id="polygon3979"
       points="213.5,-469.2 213.5,-469.2 213.5,-469.2 209.704,-467.939 214.635,-465.784 205.908,-466.678 205.908,-466.678 205.908,-466.678 212.365,-472.616 209.704,-467.939 " />
    <circle
       style="fill:none;stroke:#000000"
       r="3.2000101"
       id="ellipse3981"
       cy="-465.66901"
       cx="202.871" />
  </g>
  <g
     class="node"
     id="node5"
     transform="translate(-410.01794,591.36176)">
    <title
       id="title3984">observation_ancillary</title>
    <g
       id="a_node5">
      <a
         xlink:href="tables/observation_ancillary.html"
         xlink:title="observation_ancillary"
         id="a3987">
        <polygon
           style="fill:#ffffff;stroke:none"
           id="polygon3989"
           points="497,-612.7 497,-479.7 374,-479.7 374,-479.7 374,-612.7 " />
        <polygon
           style="fill:#9bab96;stroke:none"
           id="polygon3991"
           points="497.5,-612.2 497.5,-593.2 374.5,-593.2 374.5,-593.2 374.5,-612.2 " />
        <polygon
           style="fill:none;stroke:#000000"
           id="polygon3993"
           points="497.5,-612.2 497.5,-593.2 374.5,-593.2 374.5,-593.2 374.5,-612.2 " />
        <text
           style="font-size:11px;font-family:Helvetica, sans-Serif;text-anchor:start"
           id="text3995"
           font-size="11.00"
           y="-599.29999"
           x="384.353">observation_ancillary</text>
        <polygon
           style="fill:#bed1b8;stroke:none"
           id="polygon3997"
           points="497.5,-593.2 497.5,-574.2 374.5,-574.2 374.5,-574.2 374.5,-593.2 " />
        <polygon
           style="fill:none;stroke:#000000"
           id="polygon3999"
           points="497.5,-593.2 497.5,-574.2 374.5,-574.2 374.5,-574.2 374.5,-593.2 " />
        <text
           style="font-size:11px;font-family:Helvetica, sans-Serif;text-anchor:start"
           id="text4001"
           font-size="11.00"
           y="-580.29999"
           x="377.01801">observation_ancillary_id</text>
        <polygon
           style="fill:#f4f7da;stroke:none"
           id="polygon4003"
           points="497.5,-574.2 497.5,-555.2 374.5,-555.2 374.5,-555.2 374.5,-574.2 " />
        <polygon
           style="fill:none;stroke:#000000"
           id="polygon4005"
           points="497.5,-574.2 497.5,-555.2 374.5,-555.2 374.5,-555.2 374.5,-574.2 " />
        <text
           style="font-size:11px;font-family:Helvetica, sans-Serif;text-anchor:start"
           id="text4007"
           font-size="11.00"
           y="-561.29999"
           x="377.5">observation_id</text>
        <polygon
           style="fill:#f4f7da;stroke:none"
           id="polygon4009"
           points="497.5,-555.2 497.5,-536.2 374.5,-536.2 374.5,-536.2 374.5,-555.2 " />
        <polygon
           style="fill:none;stroke:#000000"
           id="polygon4011"
           points="497.5,-555.2 497.5,-536.2 374.5,-536.2 374.5,-536.2 374.5,-555.2 " />
        <text
           style="font-size:11px;font-family:Helvetica, sans-Serif;text-anchor:start"
           id="text4013"
           font-size="11.00"
           y="-542.29999"
           x="377.5">variable_name</text>
        <polygon
           style="fill:none;stroke:#000000"
           id="polygon4015"
           points="497.5,-536.2 497.5,-517.2 374.5,-517.2 374.5,-517.2 374.5,-536.2 " />
        <text
           style="font-size:11px;font-family:Helvetica, sans-Serif;text-anchor:start"
           id="text4017"
           font-size="11.00"
           y="-523.29999"
           x="377.5">value</text>
        <polygon
           style="fill:none;stroke:#000000"
           id="polygon4019"
           points="497.5,-517.2 497.5,-498.2 374.5,-498.2 374.5,-498.2 374.5,-517.2 " />
        <text
           style="font-size:11px;font-family:Helvetica, sans-Serif;text-anchor:start"
           id="text4021"
           font-size="11.00"
           y="-504.29999"
           x="377.5">unit</text>
        <polygon
           style="fill:#f7f7f7;stroke:none"
           id="polygon4023"
           points="421.5,-498.2 421.5,-479.2 374.5,-479.2 374.5,-479.2 374.5,-498.2 " />
        <polygon
           style="fill:none;stroke:#000000"
           id="polygon4025"
           points="421.5,-498.2 421.5,-479.2 374.5,-479.2 374.5,-479.2 374.5,-498.2 " />
        <text
           style="font-size:11px;font-family:Helvetica, sans-Serif;text-anchor:start"
           id="text4027"
           font-size="11.00"
           y="-485.29999"
           x="377.5">&lt; 1</text>
        <polygon
           style="fill:#f7f7f7;stroke:none"
           id="polygon4029"
           points="472.5,-498.2 472.5,-479.2 421.5,-479.2 421.5,-479.2 421.5,-498.2 " />
        <polygon
           style="fill:none;stroke:#000000"
           id="polygon4031"
           points="472.5,-498.2 472.5,-479.2 421.5,-479.2 421.5,-479.2 421.5,-498.2 " />
        <text
           style="font-size:11px;font-family:Helvetica, sans-Serif;text-anchor:start"
           id="text4033"
           font-size="11.00"
           y="-485.29999"
           x="437.11099">0 rows</text>
        <polygon
           style="fill:#f7f7f7;stroke:none"
           id="polygon4035"
           points="497.5,-498.2 497.5,-479.2 472.5,-479.2 472.5,-479.2 472.5,-498.2 " />
        <polygon
           style="fill:none;stroke:#000000"
           id="polygon4037"
           points="497.5,-498.2 497.5,-479.2 472.5,-479.2 472.5,-479.2 472.5,-498.2 " />
        <text
           style="font-size:11px;font-family:Helvetica, sans-Serif;text-anchor:start"
           id="text4039"
           font-size="11.00"
           y="-485.29999"
           x="488.38599"> </text>
      </a>
    </g>
  </g>
  <g
     class="edge"
     id="edge6"
     transform="matrix(-1.0668582,0,0,0.9976876,807.08197,735.82633)">
    <title
       id="title4042">observation_ancillary:observation_id:w-&gt;observation:observation_id:e</title>
    <path
       style="fill:none;stroke:#000000"
       inkscape:connector-curvature="0"
       id="path4044"
       d="m 358.896,-565.2 c -10.462,0 -17.382,0 -32.396,0" />
    <polygon
       style="fill:#000000;stroke:#000000"
       id="polygon4046"
       points="373.5,-565.2 373.5,-565.2 373.5,-565.2 369.5,-565.2 373.5,-561.6 365.5,-565.2 365.5,-565.2 365.5,-565.2 373.5,-568.8 369.5,-565.2 " />
    <circle
       style="fill:none;stroke:#000000"
       r="3.2"
       id="ellipse4048"
       cy="-565.20001"
       cx="362.29999" />
  </g>
  <g
     class="node"
     id="node7"
     transform="translate(-259.94753,525.09609)">
    <title
       id="title4051">taxon_ancillary</title>
    <g
       id="a_node7">
      <a
         xlink:href="tables/taxon_ancillary.html"
         xlink:title="taxon_ancillary"
         id="a4054">
        <polygon
           style="fill:#ffffff;stroke:none"
           id="polygon4056"
           points="222.5,-38.2 222.5,-38.2 222.5,-190.2 316.5,-190.2 316.5,-38.2 " />
        <polygon
           style="fill:#9bab96;stroke:none"
           id="polygon4058"
           points="222.5,-171.2 222.5,-171.2 222.5,-190.2 316.5,-190.2 316.5,-171.2 " />
        <polygon
           style="fill:none;stroke:#000000"
           id="polygon4060"
           points="222.5,-171.2 222.5,-171.2 222.5,-190.2 316.5,-190.2 316.5,-171.2 " />
        <text
           style="font-size:11px;font-family:Helvetica, sans-Serif;text-anchor:start"
           id="text4062"
           font-size="11.00"
           y="-177.3"
           x="232.827">taxon_ancillary</text>
        <polygon
           style="fill:#bed1b8;stroke:none"
           id="polygon4064"
           points="222.5,-152.2 222.5,-152.2 222.5,-171.2 316.5,-171.2 316.5,-152.2 " />
        <polygon
           style="fill:none;stroke:#000000"
           id="polygon4066"
           points="222.5,-152.2 222.5,-152.2 222.5,-171.2 316.5,-171.2 316.5,-152.2 " />
        <text
           style="font-size:11px;font-family:Helvetica, sans-Serif;text-anchor:start"
           id="text4068"
           font-size="11.00"
           y="-158.3"
           x="225.492">taxon_ancillary_id</text>
        <polygon
           style="fill:#f4f7da;stroke:none"
           id="polygon4070"
           points="222.5,-133.2 222.5,-133.2 222.5,-152.2 316.5,-152.2 316.5,-133.2 " />
        <polygon
           style="fill:none;stroke:#000000"
           id="polygon4072"
           points="222.5,-133.2 222.5,-133.2 222.5,-152.2 316.5,-152.2 316.5,-133.2 " />
        <text
           style="font-size:11px;font-family:Helvetica, sans-Serif;text-anchor:start"
           id="text4074"
           font-size="11.00"
           y="-139.3"
           x="225.5">taxon_id</text>
        <polygon
           style="fill:#f4f7da;stroke:none"
           id="polygon4076"
           points="222.5,-114.2 222.5,-114.2 222.5,-133.2 316.5,-133.2 316.5,-114.2 " />
        <polygon
           style="fill:none;stroke:#000000"
           id="polygon4078"
           points="222.5,-114.2 222.5,-114.2 222.5,-133.2 316.5,-133.2 316.5,-114.2 " />
        <text
           style="font-size:11px;font-family:Helvetica, sans-Serif;text-anchor:start"
           id="text4080"
           font-size="11.00"
           y="-120.3"
           x="225.5">datetime</text>
        <polygon
           style="fill:#f4f7da;stroke:none"
           id="polygon4082"
           points="222.5,-95.2 222.5,-95.2 222.5,-114.2 316.5,-114.2 316.5,-95.2 " />
        <polygon
           style="fill:none;stroke:#000000"
           id="polygon4084"
           points="222.5,-95.2 222.5,-95.2 222.5,-114.2 316.5,-114.2 316.5,-95.2 " />
        <text
           style="font-size:11px;font-family:Helvetica, sans-Serif;text-anchor:start"
           id="text4086"
           font-size="11.00"
           y="-101.3"
           x="225.5">variable_name</text>
        <polygon
           style="fill:none;stroke:#000000"
           id="polygon4088"
           points="222.5,-76.2 222.5,-76.2 222.5,-95.2 316.5,-95.2 316.5,-76.2 " />
        <text
           style="font-size:11px;font-family:Helvetica, sans-Serif;text-anchor:start"
           id="text4090"
           font-size="11.00"
           y="-82.300003"
           x="225.5">value</text>
        <polygon
           style="fill:none;stroke:#000000"
           id="polygon4092"
           points="222.5,-57.2 222.5,-57.2 222.5,-76.2 316.5,-76.2 316.5,-57.2 " />
        <text
           style="font-size:11px;font-family:Helvetica, sans-Serif;text-anchor:start"
           id="text4094"
           font-size="11.00"
           y="-63.299999"
           x="225.5">author</text>
        <polygon
           style="fill:#f7f7f7;stroke:none"
           id="polygon4096"
           points="222.5,-38.2 222.5,-38.2 222.5,-57.2 254.5,-57.2 254.5,-38.2 " />
        <polygon
           style="fill:none;stroke:#000000"
           id="polygon4098"
           points="222.5,-38.2 222.5,-38.2 222.5,-57.2 254.5,-57.2 254.5,-38.2 " />
        <text
           style="font-size:11px;font-family:Helvetica, sans-Serif;text-anchor:start"
           id="text4100"
           font-size="11.00"
           y="-44.299999"
           x="225.5">&lt; 1</text>
        <polygon
           style="fill:#f7f7f7;stroke:none"
           id="polygon4102"
           points="254.5,-38.2 254.5,-38.2 254.5,-57.2 298.5,-57.2 298.5,-38.2 " />
        <polygon
           style="fill:none;stroke:#000000"
           id="polygon4104"
           points="254.5,-38.2 254.5,-38.2 254.5,-57.2 298.5,-57.2 298.5,-38.2 " />
        <text
           style="font-size:11px;font-family:Helvetica, sans-Serif;text-anchor:start"
           id="text4106"
           font-size="11.00"
           y="-44.299999"
           x="263.11099">0 rows</text>
        <polygon
           style="fill:#f7f7f7;stroke:none"
           id="polygon4108"
           points="298.5,-38.2 298.5,-38.2 298.5,-57.2 316.5,-57.2 316.5,-38.2 " />
        <polygon
           style="fill:none;stroke:#000000"
           id="polygon4110"
           points="298.5,-38.2 298.5,-38.2 298.5,-57.2 316.5,-57.2 316.5,-38.2 " />
        <text
           style="font-size:11px;font-family:Helvetica, sans-Serif;text-anchor:start"
           id="text4112"
           font-size="11.00"
           y="-44.299999"
           x="307.38599"> </text>
      </a>
    </g>
  </g>
  <g
     class="edge"
     id="edge7"
     transform="matrix(-0.79284509,0,0,1.0090908,232.4297,524.4018)">
    <title
       id="title4115">taxon_ancillary:taxon_id:w-&gt;taxon:taxon_id:e</title>
    <path
       style="fill:none;stroke:#000000"
       inkscape:connector-curvature="0"
       id="path4117"
       d="m 206.916,-143.2 -68.6946,2.13821"
       sodipodi:nodetypes="cc" />
    <polygon
       style="fill:#000000;stroke:#000000"
       id="polygon4119"
       points="221.5,-146.8 217.5,-143.2 221.5,-143.2 221.5,-143.2 221.5,-143.2 217.5,-143.2 221.5,-139.6 213.5,-143.2 213.5,-143.2 213.5,-143.2 " />
    <circle
       style="fill:none;stroke:#000000"
       r="3.2"
       id="ellipse4121"
       cy="-143.2"
       cx="210.3" />
  </g>
</svg>
