<?xml version="1.0" encoding="UTF-8" standalone="no"?>
<!DOCTYPE svg PUBLIC "-//W3C//DTD SVG 1.1//EN"
 "http://www.w3.org/Graphics/SVG/1.1/DTD/svg11.dtd">
<!-- Generated by graphviz version 2.38.0 (20140413.2041)
 -->
<!-- Title: largeRelationshipsDiagram Pages: 1 -->
<svg width="513pt" height="625pt"
 viewBox="0.00 0.00 513.00 624.70" xmlns="http://www.w3.org/2000/svg" xmlns:xlink="http://www.w3.org/1999/xlink">
<g id="graph0" class="graph" transform="scale(1 1) rotate(0) translate(4 620.7)">
<title>largeRelationshipsDiagram</title>
<polygon fill="#f7f7f7" stroke="none" points="-4,4 -4,-620.7 509,-620.7 509,4 -4,4"/>
<text text-anchor="middle" x="72.4935" y="-7.3" font-family="Helvetica,sans-Serif" font-size="11.00">Generated by SchemaSpy</text>
<!-- dataset_summary -->
<g id="node1" class="node"><title>dataset_summary</title>
<g id="a_node1"><a xlink:href="tables/dataset_summary.html" xlink:title="dataset_summary">
<polygon fill="#ffffff" stroke="none" points="8,-384.7 8,-555.7 165,-555.7 165,-384.7 8,-384.7"/>
<polygon fill="#9bab96" stroke="none" points="8.5,-536.2 8.5,-555.2 165.5,-555.2 165.5,-536.2 8.5,-536.2"/>
<polygon fill="none" stroke="black" points="8.5,-536.2 8.5,-555.2 165.5,-555.2 165.5,-536.2 8.5,-536.2"/>
<text text-anchor="start" x="43.2981" y="-542.3" font-family="Helvetica,sans-Serif" font-size="11.00">dataset_summary</text>
<polygon fill="#bed1b8" stroke="none" points="8.5,-517.2 8.5,-536.2 165.5,-536.2 165.5,-517.2 8.5,-517.2"/>
<polygon fill="none" stroke="black" points="8.5,-517.2 8.5,-536.2 165.5,-536.2 165.5,-517.2 8.5,-517.2"/>
<text text-anchor="start" x="11.5" y="-523.3" font-family="Helvetica,sans-Serif" font-size="11.00">package_id</text>
<polygon fill="none" stroke="black" points="8.5,-498.2 8.5,-517.2 165.5,-517.2 165.5,-498.2 8.5,-498.2"/>
<text text-anchor="start" x="11.5" y="-504.3" font-family="Helvetica,sans-Serif" font-size="11.00">original_package_id</text>
<polygon fill="none" stroke="black" points="8.5,-479.2 8.5,-498.2 165.5,-498.2 165.5,-479.2 8.5,-479.2"/>
<text text-anchor="start" x="11.5" y="-485.3" font-family="Helvetica,sans-Serif" font-size="11.00">length_of_survey_years</text>
<polygon fill="none" stroke="black" points="8.5,-460.2 8.5,-479.2 165.5,-479.2 165.5,-460.2 8.5,-460.2"/>
<text text-anchor="start" x="11.5" y="-466.3" font-family="Helvetica,sans-Serif" font-size="11.00">number_of_years_sampled</text>
<polygon fill="none" stroke="black" points="8.5,-441.2 8.5,-460.2 165.5,-460.2 165.5,-441.2 8.5,-441.2"/>
<text text-anchor="start" x="11.5" y="-447.3" font-family="Helvetica,sans-Serif" font-size="11.00">std_dev_interval_betw_years</text>
<polygon fill="none" stroke="black" points="8.5,-422.2 8.5,-441.2 165.5,-441.2 165.5,-422.2 8.5,-422.2"/>
<text text-anchor="start" x="11.5" y="-428.3" font-family="Helvetica,sans-Serif" font-size="11.00">max_num_taxa</text>
<polygon fill="none" stroke="black" points="8.5,-403.2 8.5,-422.2 165.5,-422.2 165.5,-403.2 8.5,-403.2"/>
<text text-anchor="start" x="11.4927" y="-409.3" font-family="Helvetica,sans-Serif" font-size="11.00">geo_extent_bounding_box_m2</text>
<polygon fill="#f7f7f7" stroke="none" points="8.5,-384.2 8.5,-403.2 63.5,-403.2 63.5,-384.2 8.5,-384.2"/>
<polygon fill="none" stroke="black" points="8.5,-384.2 8.5,-403.2 63.5,-403.2 63.5,-384.2 8.5,-384.2"/>
<text text-anchor="start" x="11.5" y="-390.3" font-family="Helvetica,sans-Serif" font-size="11.00"> &#160;</text>
<polygon fill="#f7f7f7" stroke="none" points="63.5,-384.2 63.5,-403.2 122.5,-403.2 122.5,-384.2 63.5,-384.2"/>
<polygon fill="none" stroke="black" points="63.5,-384.2 63.5,-403.2 122.5,-403.2 122.5,-384.2 63.5,-384.2"/>
<text text-anchor="start" x="87.1105" y="-390.3" font-family="Helvetica,sans-Serif" font-size="11.00">0 rows</text>
<polygon fill="#f7f7f7" stroke="none" points="122.5,-384.2 122.5,-403.2 165.5,-403.2 165.5,-384.2 122.5,-384.2"/>
<polygon fill="none" stroke="black" points="122.5,-384.2 122.5,-403.2 165.5,-403.2 165.5,-384.2 122.5,-384.2"/>
<text text-anchor="start" x="146.905" y="-390.3" font-family="Helvetica,sans-Serif" font-size="11.00">1 &gt;</text>
</a>
</g>
</g>
<!-- location -->
<g id="node2" class="node"><title>location</title>
<g id="a_node2"><a xlink:href="tables/location.html" xlink:title="location">
<polygon fill="#ffffff" stroke="none" points="39,-193.2 39,-345.2 134,-345.2 134,-193.2 39,-193.2"/>
<polygon fill="#9bab96" stroke="none" points="39.5,-326.2 39.5,-345.2 134.5,-345.2 134.5,-326.2 39.5,-326.2"/>
<polygon fill="none" stroke="black" points="39.5,-326.2 39.5,-345.2 134.5,-345.2 134.5,-326.2 39.5,-326.2"/>
<text text-anchor="start" x="68.0508" y="-332.3" font-family="Helvetica,sans-Serif" font-size="11.00">location</text>
<polygon fill="#bed1b8" stroke="none" points="39.5,-307.2 39.5,-326.2 134.5,-326.2 134.5,-307.2 39.5,-307.2"/>
<polygon fill="none" stroke="black" points="39.5,-307.2 39.5,-326.2 134.5,-326.2 134.5,-307.2 39.5,-307.2"/>
<text text-anchor="start" x="42.5" y="-313.3" font-family="Helvetica,sans-Serif" font-size="11.00">location_id</text>
<polygon fill="none" stroke="black" points="39.5,-288.2 39.5,-307.2 134.5,-307.2 134.5,-288.2 39.5,-288.2"/>
<text text-anchor="start" x="42.5" y="-294.3" font-family="Helvetica,sans-Serif" font-size="11.00">location_name</text>
<polygon fill="none" stroke="black" points="39.5,-269.2 39.5,-288.2 134.5,-288.2 134.5,-269.2 39.5,-269.2"/>
<text text-anchor="start" x="42.5" y="-275.3" font-family="Helvetica,sans-Serif" font-size="11.00">latitude</text>
<polygon fill="none" stroke="black" points="39.5,-250.2 39.5,-269.2 134.5,-269.2 134.5,-250.2 39.5,-250.2"/>
<text text-anchor="start" x="42.5" y="-256.3" font-family="Helvetica,sans-Serif" font-size="11.00">longitude</text>
<polygon fill="none" stroke="black" points="39.5,-231.2 39.5,-250.2 134.5,-250.2 134.5,-231.2 39.5,-231.2"/>
<text text-anchor="start" x="42.5" y="-237.3" font-family="Helvetica,sans-Serif" font-size="11.00">elevation</text>
<polygon fill="none" stroke="black" points="39.5,-212.2 39.5,-231.2 134.5,-231.2 134.5,-212.2 39.5,-212.2"/>
<text text-anchor="start" x="42.0688" y="-218.3" font-family="Helvetica,sans-Serif" font-size="11.00">parent_location_id</text>
<polygon fill="#f7f7f7" stroke="none" points="39.5,-193.2 39.5,-212.2 67.5,-212.2 67.5,-193.2 39.5,-193.2"/>
<polygon fill="none" stroke="black" points="39.5,-193.2 39.5,-212.2 67.5,-212.2 67.5,-193.2 39.5,-193.2"/>
<text text-anchor="start" x="42.5" y="-199.3" font-family="Helvetica,sans-Serif" font-size="11.00">&lt; 1</text>
<polygon fill="#f7f7f7" stroke="none" points="67.5,-193.2 67.5,-212.2 109.5,-212.2 109.5,-193.2 67.5,-193.2"/>
<polygon fill="none" stroke="black" points="67.5,-193.2 67.5,-212.2 109.5,-212.2 109.5,-193.2 67.5,-193.2"/>
<text text-anchor="start" x="74.1105" y="-199.3" font-family="Helvetica,sans-Serif" font-size="11.00">0 rows</text>
<polygon fill="#f7f7f7" stroke="none" points="109.5,-193.2 109.5,-212.2 134.5,-212.2 134.5,-193.2 109.5,-193.2"/>
<polygon fill="none" stroke="black" points="109.5,-193.2 109.5,-212.2 134.5,-212.2 134.5,-193.2 109.5,-193.2"/>
<text text-anchor="start" x="115.905" y="-199.3" font-family="Helvetica,sans-Serif" font-size="11.00">3 &gt;</text>
</a>
</g>
</g>
<!-- location&#45;&gt;location -->
<g id="edge1" class="edge"><title>location:parent_location_id:w&#45;&gt;location:location_id:e</title>
<path fill="none" stroke="black" d="M28.5896,-231.076C-5.2816,-270.686 2.17383,-362.2 87,-362.2 180,-362.2 180,-348.2 134.5,-317.2"/>
<polygon fill="black" stroke="black" points="33.569,-226.569 41.916,-223.869 36.5345,-223.884 39.5,-221.2 39.5,-221.2 39.5,-221.2 36.5345,-223.884 37.084,-218.531 33.569,-226.569 33.569,-226.569"/>
<ellipse fill="none" stroke="black" cx="31.1967" cy="-228.716" rx="3.20001" ry="3.20001"/>
</g>
<!-- location_ancillary -->
<g id="node3" class="node"><title>location_ancillary</title>
<g id="a_node3"><a xlink:href="tables/location_ancillary.html" xlink:title="location_ancillary">
<polygon fill="#ffffff" stroke="none" points="217,-211.2 217,-363.2 322,-363.2 322,-211.2 217,-211.2"/>
<polygon fill="#9bab96" stroke="none" points="217.5,-344.2 217.5,-363.2 322.5,-363.2 322.5,-344.2 217.5,-344.2"/>
<polygon fill="none" stroke="black" points="217.5,-344.2 217.5,-363.2 322.5,-363.2 322.5,-344.2 217.5,-344.2"/>
<text text-anchor="start" x="227.829" y="-350.3" font-family="Helvetica,sans-Serif" font-size="11.00">location_ancillary</text>
<polygon fill="#bed1b8" stroke="none" points="217.5,-325.2 217.5,-344.2 322.5,-344.2 322.5,-325.2 217.5,-325.2"/>
<polygon fill="none" stroke="black" points="217.5,-325.2 217.5,-344.2 322.5,-344.2 322.5,-325.2 217.5,-325.2"/>
<text text-anchor="start" x="220.493" y="-331.3" font-family="Helvetica,sans-Serif" font-size="11.00">location_ancillary_id</text>
<polygon fill="#f4f7da" stroke="none" points="217.5,-306.2 217.5,-325.2 322.5,-325.2 322.5,-306.2 217.5,-306.2"/>
<polygon fill="none" stroke="black" points="217.5,-306.2 217.5,-325.2 322.5,-325.2 322.5,-306.2 217.5,-306.2"/>
<text text-anchor="start" x="220.5" y="-312.3" font-family="Helvetica,sans-Serif" font-size="11.00">location_id</text>
<polygon fill="#f4f7da" stroke="none" points="217.5,-287.2 217.5,-306.2 322.5,-306.2 322.5,-287.2 217.5,-287.2"/>
<polygon fill="none" stroke="black" points="217.5,-287.2 217.5,-306.2 322.5,-306.2 322.5,-287.2 217.5,-287.2"/>
<text text-anchor="start" x="220.5" y="-293.3" font-family="Helvetica,sans-Serif" font-size="11.00">datetime</text>
<polygon fill="#f4f7da" stroke="none" points="217.5,-268.2 217.5,-287.2 322.5,-287.2 322.5,-268.2 217.5,-268.2"/>
<polygon fill="none" stroke="black" points="217.5,-268.2 217.5,-287.2 322.5,-287.2 322.5,-268.2 217.5,-268.2"/>
<text text-anchor="start" x="220.5" y="-274.3" font-family="Helvetica,sans-Serif" font-size="11.00">variable_name</text>
<polygon fill="none" stroke="black" points="217.5,-249.2 217.5,-268.2 322.5,-268.2 322.5,-249.2 217.5,-249.2"/>
<text text-anchor="start" x="220.5" y="-255.3" font-family="Helvetica,sans-Serif" font-size="11.00">value</text>
<polygon fill="none" stroke="black" points="217.5,-230.2 217.5,-249.2 322.5,-249.2 322.5,-230.2 217.5,-230.2"/>
<text text-anchor="start" x="220.5" y="-236.3" font-family="Helvetica,sans-Serif" font-size="11.00">unit</text>
<polygon fill="#f7f7f7" stroke="none" points="217.5,-211.2 217.5,-230.2 255.5,-230.2 255.5,-211.2 217.5,-211.2"/>
<polygon fill="none" stroke="black" points="217.5,-211.2 217.5,-230.2 255.5,-230.2 255.5,-211.2 217.5,-211.2"/>
<text text-anchor="start" x="220.5" y="-217.3" font-family="Helvetica,sans-Serif" font-size="11.00">&lt; 1</text>
<polygon fill="#f7f7f7" stroke="none" points="255.5,-211.2 255.5,-230.2 301.5,-230.2 301.5,-211.2 255.5,-211.2"/>
<polygon fill="none" stroke="black" points="255.5,-211.2 255.5,-230.2 301.5,-230.2 301.5,-211.2 255.5,-211.2"/>
<text text-anchor="start" x="266.111" y="-217.3" font-family="Helvetica,sans-Serif" font-size="11.00">0 rows</text>
<polygon fill="#f7f7f7" stroke="none" points="301.5,-211.2 301.5,-230.2 322.5,-230.2 322.5,-211.2 301.5,-211.2"/>
<polygon fill="none" stroke="black" points="301.5,-211.2 301.5,-230.2 322.5,-230.2 322.5,-211.2 301.5,-211.2"/>
<text text-anchor="start" x="313.386" y="-217.3" font-family="Helvetica,sans-Serif" font-size="11.00"> &#160;</text>
</a>
</g>
</g>
<!-- location_ancillary&#45;&gt;location -->
<g id="edge2" class="edge"><title>location_ancillary:location_id:w&#45;&gt;location:location_id:e</title>
<path fill="none" stroke="black" d="M202.076,-316.26C177.232,-316.475 166.159,-317.2 135.5,-317.2"/>
<polygon fill="black" stroke="black" points="208.5,-316.233 216.515,-319.8 212.5,-316.217 216.5,-316.2 216.5,-316.2 216.5,-316.2 212.5,-316.217 216.485,-312.6 208.5,-316.233 208.5,-316.233"/>
<ellipse fill="none" stroke="black" cx="205.3" cy="-316.246" rx="3.2" ry="3.2"/>
</g>
<!-- observation -->
<g id="node4" class="node"><title>observation</title>
<g id="a_node4"><a xlink:href="tables/observation.html" xlink:title="observation">
<polygon fill="#ffffff" stroke="none" points="214,-384.7 214,-593.7 325,-593.7 325,-384.7 214,-384.7"/>
<polygon fill="#9bab96" stroke="none" points="214.5,-574.2 214.5,-593.2 325.5,-593.2 325.5,-574.2 214.5,-574.2"/>
<polygon fill="none" stroke="black" points="214.5,-574.2 214.5,-593.2 325.5,-593.2 325.5,-574.2 214.5,-574.2"/>
<text text-anchor="start" x="241.575" y="-580.3" font-family="Helvetica,sans-Serif" font-size="11.00">observation</text>
<polygon fill="#bed1b8" stroke="none" points="214.5,-555.2 214.5,-574.2 325.5,-574.2 325.5,-555.2 214.5,-555.2"/>
<polygon fill="none" stroke="black" points="214.5,-555.2 214.5,-574.2 325.5,-574.2 325.5,-555.2 214.5,-555.2"/>
<text text-anchor="start" x="217.5" y="-561.3" font-family="Helvetica,sans-Serif" font-size="11.00">observation_id</text>
<polygon fill="none" stroke="black" points="214.5,-536.2 214.5,-555.2 325.5,-555.2 325.5,-536.2 214.5,-536.2"/>
<text text-anchor="start" x="217.5" y="-542.3" font-family="Helvetica,sans-Serif" font-size="11.00">event_id</text>
<polygon fill="none" stroke="black" points="214.5,-517.2 214.5,-536.2 325.5,-536.2 325.5,-517.2 214.5,-517.2"/>
<text text-anchor="start" x="217.5" y="-523.3" font-family="Helvetica,sans-Serif" font-size="11.00">package_id</text>
<polygon fill="none" stroke="black" points="214.5,-498.2 214.5,-517.2 325.5,-517.2 325.5,-498.2 214.5,-498.2"/>
<text text-anchor="start" x="217.5" y="-504.3" font-family="Helvetica,sans-Serif" font-size="11.00">location_id</text>
<polygon fill="none" stroke="black" points="214.5,-479.2 214.5,-498.2 325.5,-498.2 325.5,-479.2 214.5,-479.2"/>
<text text-anchor="start" x="217.43" y="-485.3" font-family="Helvetica,sans-Serif" font-size="11.00">observation_datetime</text>
<polygon fill="none" stroke="black" points="214.5,-460.2 214.5,-479.2 325.5,-479.2 325.5,-460.2 214.5,-460.2"/>
<text text-anchor="start" x="217.5" y="-466.3" font-family="Helvetica,sans-Serif" font-size="11.00">taxon_id</text>
<polygon fill="none" stroke="black" points="214.5,-441.2 214.5,-460.2 325.5,-460.2 325.5,-441.2 214.5,-441.2"/>
<text text-anchor="start" x="217.5" y="-447.3" font-family="Helvetica,sans-Serif" font-size="11.00">variable_name</text>
<polygon fill="none" stroke="black" points="214.5,-422.2 214.5,-441.2 325.5,-441.2 325.5,-422.2 214.5,-422.2"/>
<text text-anchor="start" x="217.5" y="-428.3" font-family="Helvetica,sans-Serif" font-size="11.00">value</text>
<polygon fill="none" stroke="black" points="214.5,-403.2 214.5,-422.2 325.5,-422.2 325.5,-403.2 214.5,-403.2"/>
<text text-anchor="start" x="217.5" y="-409.3" font-family="Helvetica,sans-Serif" font-size="11.00">unit</text>
<polygon fill="#f7f7f7" stroke="none" points="214.5,-384.2 214.5,-403.2 250.5,-403.2 250.5,-384.2 214.5,-384.2"/>
<polygon fill="none" stroke="black" points="214.5,-384.2 214.5,-403.2 250.5,-403.2 250.5,-384.2 214.5,-384.2"/>
<text text-anchor="start" x="217.5" y="-390.3" font-family="Helvetica,sans-Serif" font-size="11.00">&lt; 3</text>
<polygon fill="#f7f7f7" stroke="none" points="250.5,-384.2 250.5,-403.2 296.5,-403.2 296.5,-384.2 250.5,-384.2"/>
<polygon fill="none" stroke="black" points="250.5,-384.2 250.5,-403.2 296.5,-403.2 296.5,-384.2 250.5,-384.2"/>
<text text-anchor="start" x="261.111" y="-390.3" font-family="Helvetica,sans-Serif" font-size="11.00">0 rows</text>
<polygon fill="#f7f7f7" stroke="none" points="296.5,-384.2 296.5,-403.2 325.5,-403.2 325.5,-384.2 296.5,-384.2"/>
<polygon fill="none" stroke="black" points="296.5,-384.2 296.5,-403.2 325.5,-403.2 325.5,-384.2 296.5,-384.2"/>
<text text-anchor="start" x="306.905" y="-390.3" font-family="Helvetica,sans-Serif" font-size="11.00">1 &gt;</text>
</a>
</g>
</g>
<!-- observation&#45;&gt;dataset_summary -->
<g id="edge4" class="edge"><title>observation:package_id:w&#45;&gt;dataset_summary:package_id:e</title>
<path fill="none" stroke="black" d="M198.896,-527.2C188.434,-527.2 181.514,-527.2 166.5,-527.2"/>
<polygon fill="black" stroke="black" points="205.5,-527.2 213.5,-530.8 209.5,-527.2 213.5,-527.2 213.5,-527.2 213.5,-527.2 209.5,-527.2 213.5,-523.6 205.5,-527.2 205.5,-527.2"/>
<ellipse fill="none" stroke="black" cx="202.3" cy="-527.2" rx="3.2" ry="3.2"/>
</g>
<!-- observation&#45;&gt;location -->
<g id="edge3" class="edge"><title>observation:location_id:w&#45;&gt;location:location_id:e</title>
<path fill="none" stroke="black" d="M199.012,-506.314C159.485,-494.124 196.95,-425.378 173,-374.2 160.147,-346.735 165.824,-317.2 135.5,-317.2"/>
<polygon fill="black" stroke="black" points="205.567,-507.167 213.035,-511.77 209.533,-507.684 213.5,-508.2 213.5,-508.2 213.5,-508.2 209.533,-507.684 213.965,-504.63 205.567,-507.167 205.567,-507.167"/>
<ellipse fill="none" stroke="black" cx="202.394" cy="-506.754" rx="3.2" ry="3.2"/>
</g>
<!-- taxon -->
<g id="node6" class="node"><title>taxon</title>
<g id="a_node6"><a xlink:href="tables/taxon.html" xlink:title="taxon">
<polygon fill="#ffffff" stroke="none" points="39,-38.7 39,-171.7 134,-171.7 134,-38.7 39,-38.7"/>
<polygon fill="#9bab96" stroke="none" points="39.5,-152.2 39.5,-171.2 134.5,-171.2 134.5,-152.2 39.5,-152.2"/>
<polygon fill="none" stroke="black" points="39.5,-152.2 39.5,-171.2 134.5,-171.2 134.5,-152.2 39.5,-152.2"/>
<text text-anchor="start" x="73.5492" y="-158.3" font-family="Helvetica,sans-Serif" font-size="11.00">taxon</text>
<polygon fill="#bed1b8" stroke="none" points="39.5,-133.2 39.5,-152.2 134.5,-152.2 134.5,-133.2 39.5,-133.2"/>
<polygon fill="none" stroke="black" points="39.5,-133.2 39.5,-152.2 134.5,-152.2 134.5,-133.2 39.5,-133.2"/>
<text text-anchor="start" x="42.5" y="-139.3" font-family="Helvetica,sans-Serif" font-size="11.00">taxon_id</text>
<polygon fill="none" stroke="black" points="39.5,-114.2 39.5,-133.2 134.5,-133.2 134.5,-114.2 39.5,-114.2"/>
<text text-anchor="start" x="42.5" y="-120.3" font-family="Helvetica,sans-Serif" font-size="11.00">taxon_rank</text>
<polygon fill="none" stroke="black" points="39.5,-95.2 39.5,-114.2 134.5,-114.2 134.5,-95.2 39.5,-95.2"/>
<text text-anchor="start" x="42.5" y="-101.3" font-family="Helvetica,sans-Serif" font-size="11.00">taxon_name</text>
<polygon fill="none" stroke="black" points="39.5,-76.2 39.5,-95.2 134.5,-95.2 134.5,-76.2 39.5,-76.2"/>
<text text-anchor="start" x="42.5" y="-82.3" font-family="Helvetica,sans-Serif" font-size="11.00">authority_system</text>
<polygon fill="none" stroke="black" points="39.5,-57.2 39.5,-76.2 134.5,-76.2 134.5,-57.2 39.5,-57.2"/>
<text text-anchor="start" x="42.0683" y="-63.3" font-family="Helvetica,sans-Serif" font-size="11.00">authority_taxon_id</text>
<polygon fill="#f7f7f7" stroke="none" points="39.5,-38.2 39.5,-57.2 63.5,-57.2 63.5,-38.2 39.5,-38.2"/>
<polygon fill="none" stroke="black" points="39.5,-38.2 39.5,-57.2 63.5,-57.2 63.5,-38.2 39.5,-38.2"/>
<text text-anchor="start" x="42.5" y="-44.3" font-family="Helvetica,sans-Serif" font-size="11.00"> &#160;</text>
<polygon fill="#f7f7f7" stroke="none" points="63.5,-38.2 63.5,-57.2 107.5,-57.2 107.5,-38.2 63.5,-38.2"/>
<polygon fill="none" stroke="black" points="63.5,-38.2 63.5,-57.2 107.5,-57.2 107.5,-38.2 63.5,-38.2"/>
<text text-anchor="start" x="72.1105" y="-44.3" font-family="Helvetica,sans-Serif" font-size="11.00">0 rows</text>
<polygon fill="#f7f7f7" stroke="none" points="107.5,-38.2 107.5,-57.2 134.5,-57.2 134.5,-38.2 107.5,-38.2"/>
<polygon fill="none" stroke="black" points="107.5,-38.2 107.5,-57.2 134.5,-57.2 134.5,-38.2 107.5,-38.2"/>
<text text-anchor="start" x="115.905" y="-44.3" font-family="Helvetica,sans-Serif" font-size="11.00">2 &gt;</text>
</a>
</g>
</g>
<!-- observation&#45;&gt;taxon -->
<g id="edge5" class="edge"><title>observation:taxon_id:w&#45;&gt;taxon:taxon_id:e</title>
<path fill="none" stroke="black" d="M199.621,-464.59C157.275,-431.928 198.822,-235.25 173,-182.2 162.476,-160.579 159.546,-143.2 135.5,-143.2"/>
<polygon fill="black" stroke="black" points="205.908,-466.678 212.365,-472.616 209.704,-467.939 213.5,-469.2 213.5,-469.2 213.5,-469.2 209.704,-467.939 214.635,-465.784 205.908,-466.678 205.908,-466.678"/>
<ellipse fill="none" stroke="black" cx="202.871" cy="-465.669" rx="3.20001" ry="3.20001"/>
</g>
<!-- observation_ancillary -->
<g id="node5" class="node"><title>observation_ancillary</title>
<g id="a_node5"><a xlink:href="tables/observation_ancillary.html" xlink:title="observation_ancillary">
<polygon fill="#ffffff" stroke="none" points="374,-479.7 374,-612.7 497,-612.7 497,-479.7 374,-479.7"/>
<polygon fill="#9bab96" stroke="none" points="374.5,-593.2 374.5,-612.2 497.5,-612.2 497.5,-593.2 374.5,-593.2"/>
<polygon fill="none" stroke="black" points="374.5,-593.2 374.5,-612.2 497.5,-612.2 497.5,-593.2 374.5,-593.2"/>
<text text-anchor="start" x="384.353" y="-599.3" font-family="Helvetica,sans-Serif" font-size="11.00">observation_ancillary</text>
<polygon fill="#bed1b8" stroke="none" points="374.5,-574.2 374.5,-593.2 497.5,-593.2 497.5,-574.2 374.5,-574.2"/>
<polygon fill="none" stroke="black" points="374.5,-574.2 374.5,-593.2 497.5,-593.2 497.5,-574.2 374.5,-574.2"/>
<text text-anchor="start" x="377.018" y="-580.3" font-family="Helvetica,sans-Serif" font-size="11.00">observation_ancillary_id</text>
<polygon fill="#f4f7da" stroke="none" points="374.5,-555.2 374.5,-574.2 497.5,-574.2 497.5,-555.2 374.5,-555.2"/>
<polygon fill="none" stroke="black" points="374.5,-555.2 374.5,-574.2 497.5,-574.2 497.5,-555.2 374.5,-555.2"/>
<text text-anchor="start" x="377.5" y="-561.3" font-family="Helvetica,sans-Serif" font-size="11.00">observation_id</text>
<polygon fill="#f4f7da" stroke="none" points="374.5,-536.2 374.5,-555.2 497.5,-555.2 497.5,-536.2 374.5,-536.2"/>
<polygon fill="none" stroke="black" points="374.5,-536.2 374.5,-555.2 497.5,-555.2 497.5,-536.2 374.5,-536.2"/>
<text text-anchor="start" x="377.5" y="-542.3" font-family="Helvetica,sans-Serif" font-size="11.00">variable_name</text>
<polygon fill="none" stroke="black" points="374.5,-517.2 374.5,-536.2 497.5,-536.2 497.5,-517.2 374.5,-517.2"/>
<text text-anchor="start" x="377.5" y="-523.3" font-family="Helvetica,sans-Serif" font-size="11.00">value</text>
<polygon fill="none" stroke="black" points="374.5,-498.2 374.5,-517.2 497.5,-517.2 497.5,-498.2 374.5,-498.2"/>
<text text-anchor="start" x="377.5" y="-504.3" font-family="Helvetica,sans-Serif" font-size="11.00">unit</text>
<polygon fill="#f7f7f7" stroke="none" points="374.5,-479.2 374.5,-498.2 421.5,-498.2 421.5,-479.2 374.5,-479.2"/>
<polygon fill="none" stroke="black" points="374.5,-479.2 374.5,-498.2 421.5,-498.2 421.5,-479.2 374.5,-479.2"/>
<text text-anchor="start" x="377.5" y="-485.3" font-family="Helvetica,sans-Serif" font-size="11.00">&lt; 1</text>
<polygon fill="#f7f7f7" stroke="none" points="421.5,-479.2 421.5,-498.2 472.5,-498.2 472.5,-479.2 421.5,-479.2"/>
<polygon fill="none" stroke="black" points="421.5,-479.2 421.5,-498.2 472.5,-498.2 472.5,-479.2 421.5,-479.2"/>
<text text-anchor="start" x="437.111" y="-485.3" font-family="Helvetica,sans-Serif" font-size="11.00">0 rows</text>
<polygon fill="#f7f7f7" stroke="none" points="472.5,-479.2 472.5,-498.2 497.5,-498.2 497.5,-479.2 472.5,-479.2"/>
<polygon fill="none" stroke="black" points="472.5,-479.2 472.5,-498.2 497.5,-498.2 497.5,-479.2 472.5,-479.2"/>
<text text-anchor="start" x="488.386" y="-485.3" font-family="Helvetica,sans-Serif" font-size="11.00"> &#160;</text>
</a>
</g>
</g>
<!-- observation_ancillary&#45;&gt;observation -->
<g id="edge6" class="edge"><title>observation_ancillary:observation_id:w&#45;&gt;observation:observation_id:e</title>
<path fill="none" stroke="black" d="M358.896,-565.2C348.434,-565.2 341.514,-565.2 326.5,-565.2"/>
<polygon fill="black" stroke="black" points="365.5,-565.2 373.5,-568.8 369.5,-565.2 373.5,-565.2 373.5,-565.2 373.5,-565.2 369.5,-565.2 373.5,-561.6 365.5,-565.2 365.5,-565.2"/>
<ellipse fill="none" stroke="black" cx="362.3" cy="-565.2" rx="3.2" ry="3.2"/>
</g>
<!-- taxon_ancillary -->
<g id="node7" class="node"><title>taxon_ancillary</title>
<g id="a_node7"><a xlink:href="tables/taxon_ancillary.html" xlink:title="taxon_ancillary">
<polygon fill="#ffffff" stroke="none" points="222.5,-38.2 222.5,-190.2 316.5,-190.2 316.5,-38.2 222.5,-38.2"/>
<polygon fill="#9bab96" stroke="none" points="222.5,-171.2 222.5,-190.2 316.5,-190.2 316.5,-171.2 222.5,-171.2"/>
<polygon fill="none" stroke="black" points="222.5,-171.2 222.5,-190.2 316.5,-190.2 316.5,-171.2 222.5,-171.2"/>
<text text-anchor="start" x="232.827" y="-177.3" font-family="Helvetica,sans-Serif" font-size="11.00">taxon_ancillary</text>
<polygon fill="#bed1b8" stroke="none" points="222.5,-152.2 222.5,-171.2 316.5,-171.2 316.5,-152.2 222.5,-152.2"/>
<polygon fill="none" stroke="black" points="222.5,-152.2 222.5,-171.2 316.5,-171.2 316.5,-152.2 222.5,-152.2"/>
<text text-anchor="start" x="225.492" y="-158.3" font-family="Helvetica,sans-Serif" font-size="11.00">taxon_ancillary_id</text>
<polygon fill="#f4f7da" stroke="none" points="222.5,-133.2 222.5,-152.2 316.5,-152.2 316.5,-133.2 222.5,-133.2"/>
<polygon fill="none" stroke="black" points="222.5,-133.2 222.5,-152.2 316.5,-152.2 316.5,-133.2 222.5,-133.2"/>
<text text-anchor="start" x="225.5" y="-139.3" font-family="Helvetica,sans-Serif" font-size="11.00">taxon_id</text>
<polygon fill="#f4f7da" stroke="none" points="222.5,-114.2 222.5,-133.2 316.5,-133.2 316.5,-114.2 222.5,-114.2"/>
<polygon fill="none" stroke="black" points="222.5,-114.2 222.5,-133.2 316.5,-133.2 316.5,-114.2 222.5,-114.2"/>
<text text-anchor="start" x="225.5" y="-120.3" font-family="Helvetica,sans-Serif" font-size="11.00">datetime</text>
<polygon fill="#f4f7da" stroke="none" points="222.5,-95.2 222.5,-114.2 316.5,-114.2 316.5,-95.2 222.5,-95.2"/>
<polygon fill="none" stroke="black" points="222.5,-95.2 222.5,-114.2 316.5,-114.2 316.5,-95.2 222.5,-95.2"/>
<text text-anchor="start" x="225.5" y="-101.3" font-family="Helvetica,sans-Serif" font-size="11.00">variable_name</text>
<polygon fill="none" stroke="black" points="222.5,-76.2 222.5,-95.2 316.5,-95.2 316.5,-76.2 222.5,-76.2"/>
<text text-anchor="start" x="225.5" y="-82.3" font-family="Helvetica,sans-Serif" font-size="11.00">value</text>
<polygon fill="none" stroke="black" points="222.5,-57.2 222.5,-76.2 316.5,-76.2 316.5,-57.2 222.5,-57.2"/>
<text text-anchor="start" x="225.5" y="-63.3" font-family="Helvetica,sans-Serif" font-size="11.00">author</text>
<polygon fill="#f7f7f7" stroke="none" points="222.5,-38.2 222.5,-57.2 254.5,-57.2 254.5,-38.2 222.5,-38.2"/>
<polygon fill="none" stroke="black" points="222.5,-38.2 222.5,-57.2 254.5,-57.2 254.5,-38.2 222.5,-38.2"/>
<text text-anchor="start" x="225.5" y="-44.3" font-family="Helvetica,sans-Serif" font-size="11.00">&lt; 1</text>
<polygon fill="#f7f7f7" stroke="none" points="254.5,-38.2 254.5,-57.2 298.5,-57.2 298.5,-38.2 254.5,-38.2"/>
<polygon fill="none" stroke="black" points="254.5,-38.2 254.5,-57.2 298.5,-57.2 298.5,-38.2 254.5,-38.2"/>
<text text-anchor="start" x="263.111" y="-44.3" font-family="Helvetica,sans-Serif" font-size="11.00">0 rows</text>
<polygon fill="#f7f7f7" stroke="none" points="298.5,-38.2 298.5,-57.2 316.5,-57.2 316.5,-38.2 298.5,-38.2"/>
<polygon fill="none" stroke="black" points="298.5,-38.2 298.5,-57.2 316.5,-57.2 316.5,-38.2 298.5,-38.2"/>
<text text-anchor="start" x="307.386" y="-44.3" font-family="Helvetica,sans-Serif" font-size="11.00"> &#160;</text>
</a>
</g>
</g>
<!-- taxon_ancillary&#45;&gt;taxon -->
<g id="edge7" class="edge"><title>taxon_ancillary:taxon_id:w&#45;&gt;taxon:taxon_id:e</title>
<path fill="none" stroke="black" d="M206.916,-143.2C180.023,-143.2 168.347,-143.2 135.5,-143.2"/>
<polygon fill="black" stroke="black" points="213.5,-143.2 221.5,-146.8 217.5,-143.2 221.5,-143.2 221.5,-143.2 221.5,-143.2 217.5,-143.2 221.5,-139.6 213.5,-143.2 213.5,-143.2"/>
<ellipse fill="none" stroke="black" cx="210.3" cy="-143.2" rx="3.2" ry="3.2"/>
</g>
</g>
</svg>
